<svg xmlns="http://www.w3.org/2000/svg" height="1e3" width="1e3" version="1.1" viewBox="0 0 264.58333 264.58334">
 <g transform="translate(0 -32.417)" fill="#808080">
  <path d="m500.45 72.793c-51.96-0.309-103.8 12.039-152.37 41.837-159.69 139.62 12.33 115.3-91 260.37-99.26 49.52-153.31 23.81-161.25 125 26.37 166.64 92.11 133.55 252.25 147.99-93.68 100.78-219.25 168.84-252.25 307.19h808.34c-40.8-143.4-122.23-210.91-241.17-307.19 135.87-19.26 188.71 30.66 241.17-147.99 0-107.44-58.95-70.73-167.95-125-32.97-141.63 74.64-134.16-73.22-263.97-51.79-23.236-107.24-37.908-162.55-38.237zm-2.63 45.487c2.46 0.01 4.91 0.05 7.36 0.13 73.03 1.72 160.09 26.74 190.04 100.15-0.68 46.72-16.68 93.57-9.02 140.72 2.56 47.65 51.03 71.17 91.6 81.26 25.57 11.57 60.5 5.75 77.98 30.77 6.08 38.19-13.26 77.21-36.92 106.49-39.95 31.5-94.14 14.09-140.51 21.98-37.67-5.63-72.59 41.26-51.06 74.46 79.51 69.11 168.95 136.13 213.07 235.37-226.34 0.46-452.68 0.31-679.01 0.09 31.78-59.9 84.74-105.24 134.99-149.98 25.8-26.65 56.91-47.99 80.8-76.4 20-22.86 16.84-63.8-14.22-75.17-49.64-18.07-104.25-3.88-155.37-14.58-44.81-5.18-64.19-54.33-64.61-93.98-4.87-34.85 33.77-49.62 61.29-55.88 63.19-8.02 117.18-58.35 129.24-120.97 13.26-35.73-3.61-70.96-10.48-105.8 24.28-66.56 100.88-97.78 167.47-98.63 2.45-0.02 4.91-0.04 7.36-0.03z" transform="matrix(.26458 0 0 .26458 0 32.417)"/>
  <path d="m120.91 105.41a10.155 9.7464 0 0 1 -10.155 9.7464 10.155 9.7464 0 0 1 -10.155 -9.7464 10.155 9.7464 0 0 1 10.155 -9.7464 10.155 9.7464 0 0 1 10.155 9.7464z"/>
  <path d="m170.05 105.41a10.155 9.7464 0 0 1 -10.155 9.7464 10.155 9.7464 0 0 1 -10.155 -9.7464 10.155 9.7464 0 0 1 10.155 -9.7464 10.155 9.7464 0 0 1 10.155 9.7464z"/>
 </g>
</svg>
