<svg xmlns="http://www.w3.org/2000/svg" height="1e3" width="1e3" version="1.1" viewBox="0 0 264.58333 264.58334">
 <g transform="translate(0 -32.417)" fill="#808080">
  <path d="m500.45 72.793c-51.96-0.309-103.8 12.039-152.37 41.837-159.69 139.62-36.33 90.97-139.66 236.04-99.26 49.52-104.65 57.89-112.59 159.08 45.67 165.8-1.013 175.4 138.99 224.23-93.68 100.78-105.99 82.85-138.99 221.2h808.34c-40.8-143.4-60.15-124.92-179.09-221.2 135.87-19.26 126.63-45.58 179.09-224.23 0-107.44-3.5794-88.871-112.58-143.14-32.97-141.63 19.27-125.77-128.59-255.58-51.79-23.236-107.24-37.908-162.55-38.237zm-2.63 45.487c2.46 0.01 4.91 0.05 7.36 0.13 73.03 1.72 160.09 26.74 190.04 100.15-0.68 46.72 38.691 85.181 46.351 132.33 2.56 47.65 51.03 71.17 91.6 81.26 31.519 51.855 21.88 38.389 21.764 77.601 1.1584 87.709-68.133 172.32-114.5 180.21-37.67-5.63-72.59 41.689-51.06 74.889 79.51 69.11 106.87 45.524 150.99 144.76-226.34 0.46-452.68 0.31-679.01 0.09 23.14-79.259 44.598-76.304 102.53-145 20-22.86 16.84-63.371-14.22-74.741-66.97-41.48-104.8-72.25-106.72-180.21-4.87-34.85 14.474-86.628 41.994-92.888 63.19-8.02 87.817-55.833 99.877-118.45 13.26-35.73 45.049-46.631 38.179-81.471 24.28-66.56 100.88-97.78 167.47-98.63 2.45-0.02 4.91-0.04 7.36-0.03z" transform="matrix(.26458 0 0 .26458 0 32.417)"/>
  <path d="m120.91 105.41a10.155 9.7464 0 0 1 -10.155 9.7464 10.155 9.7464 0 0 1 -10.155 -9.7464 10.155 9.7464 0 0 1 10.155 -9.7464 10.155 9.7464 0 0 1 10.155 9.7464z"/>
  <path d="m170.05 105.41a10.155 9.7464 0 0 1 -10.155 9.7464 10.155 9.7464 0 0 1 -10.155 -9.7464 10.155 9.7464 0 0 1 10.155 -9.7464 10.155 9.7464 0 0 1 10.155 9.7464z"/>
 </g>
</svg>
