<svg xmlns="http://www.w3.org/2000/svg" height="1e3" width="1e3" version="1.1" viewBox="0 0 264.58333 264.58334">
 <g transform="translate(0 -32.417)" fill="#808080">
  <path stroke-width=".99999" d="m500.44 72.793c-51.96-0.309-103.79 12.038-152.36 41.837-159.69 139.62-36.33 90.97-139.66 236.04-99.26 49.52-104.65 57.89-112.59 159.07 45.66 165.8-1.015 175.4 138.99 224.23-93.68 100.78-105.99 82.85-138.99 221.2h808.33c-40.8-143.4-60.15-124.92-179.09-221.2 135.87-19.26 126.63-45.58 179.09-224.23 0-107.43-3.58-88.87-112.58-143.13-32.97-141.63 19.27-125.77-128.59-255.58-51.79-23.236-107.24-37.908-162.55-38.237zm-81.84 166.25a38.381 36.837 0 0 1 38.38 36.84 38.381 36.837 0 0 1 -38.38 36.84 38.381 36.837 0 0 1 -38.38 -36.84 38.381 36.837 0 0 1 38.38 -36.84zm185.73 0a38.381 36.837 0 0 1 38.38 36.84 38.381 36.837 0 0 1 -38.38 36.84 38.381 36.837 0 0 1 -38.38 -36.84 38.381 36.837 0 0 1 38.38 -36.84z" transform="matrix(.26458 0 0 .26458 0 32.417)"/>
 </g>
</svg>
