<svg xmlns="http://www.w3.org/2000/svg" height="1e3" width="1e3" version="1.1" viewBox="0 0 264.58333 264.58334">
 <g transform="translate(0 -32.417)">
  <path d="m500.45 72.793c-51.96-0.309-103.8 12.039-152.37 41.837-159.69 139.62 12.33 115.3-91 260.37-99.26 49.52-153.31 23.81-161.25 125 26.37 166.64 92.11 133.55 252.25 147.99-93.68 100.78-219.25 168.84-252.25 307.19h808.34c-40.8-143.4-122.23-210.91-241.17-307.19 135.87-19.26 188.71 30.66 241.17-147.99 0-107.44-58.95-70.73-167.95-125-32.97-141.63 74.64-134.16-73.22-263.97-51.79-23.236-107.24-37.908-162.55-38.237zm-81.85 166.26a38.382 36.837 0 0 1 38.38 36.84 38.382 36.837 0 0 1 -38.38 36.83 38.382 36.837 0 0 1 -38.38 -36.83 38.382 36.837 0 0 1 38.38 -36.84zm185.73 0a38.382 36.837 0 0 1 38.38 36.84 38.382 36.837 0 0 1 -38.38 36.83 38.382 36.837 0 0 1 -38.38 -36.83 38.382 36.837 0 0 1 38.38 -36.84z" transform="matrix(.26458 0 0 .26458 0 32.417)" fill="#808080"/>
 </g>
</svg>
