<svg xmlns="http://www.w3.org/2000/svg" height="1e3" width="1e3" version="1.1" viewBox="0 0 264.58333 264.58334">
 <g transform="translate(0 -32.417)" fill="#000000">
  <path d="m159.92 32.417v104.55h18.5l0.39894 0.39894 0.39895-0.39894h85.254v-23.04h-62.22l62.33-62.333-18.89-18.898-62.74 62.733v-63.015z"/>
  <path d="m159.92 297v-104.55h18.5l0.39894-0.39894 0.39894 0.39894h85.254v23.037h-62.217l62.334 62.334-18.898 18.898-62.733-62.733v63.015z"/>
  <path d="m104.67 297v-104.55h-18.502l-0.39894-0.39894-0.39895 0.39894h-85.254v23.037h62.217l-62.333 62.33 18.898 18.9 62.733-62.74v63.015z"/>
  <path d="m104.67 32.417v104.55h-18.502l-0.39894 0.39894-0.39895-0.39894h-85.254v-23.037h62.217l-62.333-62.333 18.898-18.898 62.733 62.733v-63.015z"/>
 </g>
</svg>
