<svg xmlns="http://www.w3.org/2000/svg" height="1e3" width="1e3" version="1.1" viewBox="0 0 264.58333 264.58334">
 <g transform="translate(0 -32.417)" fill="#000000">
  <path d="m0 604.84v308.09 87.07h69.92l1.508 1.5 1.508-1.5h14.132 308.09v-87.07h-235.16l235.6-235.59-71.43-71.43-237.1 237.1-0.002-238.17h-87.068z" transform="matrix(.26458 0 0 .26458 0 32.417)"/>
  <path d="m0 137.37v-104.55h18.5l0.39894-0.39894 0.39894 0.39894h85.254v23.036h-62.216l62.336 62.338-18.9 18.89-62.733-62.728v63.015z"/>
  <path d="m264.58 137.37v-104.55h-18.5l-0.39894-0.39894-0.39895 0.39894h-85.254v23.037h62.217l-62.334 62.334 18.898 18.898 62.733-62.733v63.015z"/>
  <path d="m264.58 192.05v104.55h-18.5l-0.39894 0.39894-0.39895-0.39894h-85.254v-23.04h62.217l-62.334-62.334 18.898-18.898 62.733 62.733v-63.015z"/>
 </g>
</svg>
