<svg xmlns="http://www.w3.org/2000/svg" height="1e3" width="1e3" version="1.1" viewBox="0 0 264.58333 264.58334">
 <g transform="translate(0 -32.417)">
  <text style="word-spacing:0px;letter-spacing:0px" xml:space="preserve" font-size="47.625px" line-height="6.61458302px" y="167.2301" x="55.751976" font-family="Georgia" fill="#000000"><tspan stroke-width=".26458px" y="182.90874" x="55.751976" font-family="Georgia"/></text>
  <g aria-label="☑" fill="#000000">
   <path d="m226.65 259.07h-188.72v-188.72h188.72zm-8.7393-8.7393v-171.24h-171.24v171.24zm-148.3-63.09q0-4.6428 6.8276-8.4662 7.1007-3.8234 11.197-3.8234 3.0041 0 6.8276 10.651 3.8234 10.378 6.0083 10.378 1.3655 0 4.6428-5.4621 15.021-25.399 31.68-48.886 16.659-23.76 27.037-33.046 9.5586-8.7393 29.495-8.7393v3.0041q-23.214 24.579-42.058 50.797-18.571 25.945-27.037 41.239-8.1931 15.021-16.386 24.852-7.92 9.8317-15.294 9.8317-6.0083 0-10.924-6.2814-4.6428-6.2814-7.1007-14.474-2.4579-8.1931-3.8234-14.201-1.0924-6.0083-1.0924-7.3738z" stroke-width="1.5172px" fill="#000000"/>
  </g>
 </g>
</svg>
