<svg id="svg3384" xmlns:rdf="http://www.w3.org/1999/02/22-rdf-syntax-ns#" xmlns="http://www.w3.org/2000/svg" height="1e3" width="1e3" version="1.1" xmlns:cc="http://creativecommons.org/ns#" xmlns:dc="http://purl.org/dc/elements/1.1/" viewBox="0 0 999.99999 999.99999">
 <g id="about" fill="#808080" transform="matrix(.97993 0 0 .97993 1357.4 -4.0524)">
  <path id="path3515" d="m-1031.2 670.62v-351.88h156.25 156.25v351.88 351.88h-156.25-156.25v-351.88zm0-546.88v-117.5h156.25 156.25v117.5 117.5h-156.25-156.25v-117.5zm156.25 0v-38.75h-38.75-38.75v38.75 38.75h38.75 38.75v-38.75z"/>
  <path id="path3513" d="m-1031.2 670.62v-351.88h156.25 156.25v351.88 351.88h-156.25-156.25v-351.88zm0-546.88v-117.5h156.25 156.25v117.5 117.5h-156.25-156.25v-117.5zm156.25 0v-38.75h-38.75-38.75v38.75 38.75h38.75 38.75v-38.75z"/>
  <path id="path3511" d="m-1031.2 670.62v-351.88h156.25 156.25v351.88 351.88h-156.25-156.25v-351.88zm0-546.88v-117.5h156.25 156.25v117.5 117.5h-156.25-156.25v-117.5zm156.25 0v-38.75h-38.75-38.75v38.75 38.75h38.75 38.75v-38.75z"/>
  <path id="path3509" d="m-1031.2 670.62v-351.88h312.5v703.75h-312.5v-351.88zm0-546.88v-117.5h312.5v235h-312.5v-117.5zm156.25 0v-38.75h-77.5v77.5h77.5v-38.75z"/>
 </g>
</svg>
