<svg xmlns="http://www.w3.org/2000/svg" height="1e3" viewBox="0 0 1000 1000" width="1e3" version="1.1">
 <path d="m496.09 50.806c119.49 0 234.09 47.468 318.58 131.97 84.492 84.492 131.97 199.09 131.97 318.58-0.005 119.49-47.473 234.09-131.97 318.58-84.492 84.492-199.09 131.97-318.58 131.97-202.94-0.05-380.8-135.76-434.45-331.48h139.82c48.523 120.13 165.07 198.82 294.63 198.91 175.63 0 317.99-142.37 317.99-317.99 0-175.63-142.37-317.99-317.99-317.99-74.337 0.0974-146.29 26.235-203.36 73.872l116.39 35.13-355.76 141.41 111.29-385.67 28.11 120.87c82.86-75.816 191.03-117.96 303.33-118.17z" stroke-width="1.0711" fill="#808080"/>
 <path d="m501.46 194.62c-17.226 108.63-34.735 217.39-51.783 325.94-1.0131 32.025 39.498 54.476 70.086 41.427 26.062-6.4644 52.781-11.058 79.099-16.796 42.25-8.7205 84.5-17.441 126.75-26.162-63.44-10.23-126.88-20.46-190.33-30.69-2.6366-10.08-2.6359-21.416-4.2559-31.98-9.8558-87.246-19.712-174.49-29.567-261.74z" fill="#808080"/>
</svg>
