<svg id="svg2" xmlns:rdf="http://www.w3.org/1999/02/22-rdf-syntax-ns#" xmlns="http://www.w3.org/2000/svg" viewBox="0 0 1000 1000" height="1e3" width="1e3" version="1.1" xmlns:cc="http://creativecommons.org/ns#" xmlns:dc="http://purl.org/dc/elements/1.1/">
 <path id="path3230" d="m500.44 39.469l-122.47 340.82-362 10.25 286.29 221.79-102.12 347.46 238.32-162.18v-347.87h470.33l75.25-58-361.99-11.14-121.61-341.13zm408.35 410.27l-114.01 87.86h78.44v63.74h-161.14l-14.89 11.48 17.6 60.45h158.43v63.73h-139.87l20.95 71.93h118.92v63.74h-100.36l25.58 87.86h129.87v-510.79h-19.52zm-110.35 510.79l-128.42-87.86h-176.48v-63.74h83.32l-77.31-52.89-61.09 41.57v162.92h359.98zm-221.58-151.6l93.16 63.74h102.84l-18.56-63.74h-177.44zm156.49-71.93l-18.56-63.73h-221.25v63.73h239.81zm-21.27-135.66l82.7-63.74h-301.24v63.74h218.54z" fill="#808080"/>
</svg>
