<svg xmlns="http://www.w3.org/2000/svg" height="1e3" viewBox="0 0 1000 1000" width="1e3" version="1.1">
 <path d="m1.2812 231.71c-0.70815 0-1.2782 0.57145-1.2782 1.2796v113.38c0 0.70815 0.57004 1.2796 1.2782 1.2796h248.62c0.70815 0 1.2782-0.57146 1.2782-1.2796v-113.38c0-0.70816-0.57003-1.2796-1.2782-1.2796zm283.27 41.971 0.001 113.81h-284.55v379.23l0.12241 0.61348 0.33592 0.4996 0.50103 0.33591 0.61205 0.12384h667.47c0.8711 0 1.5728-0.70174 1.5728-1.5728v-490.96l-0.12384-0.61348-0.33592-0.49959-0.4996-0.33734-0.61348-0.12242-384.48-0.50529zm-97.786 1.1586h28.198c0.70817 0 1.2782 0.57004 1.2782 1.2782v27.127c0 0.70817-0.57004 1.2782-1.2782 1.2782h-28.198c-0.70817 0-1.2782-0.57004-1.2782-1.2782v-27.127c0-0.70817 0.57005-1.2782 1.2782-1.2782z" stroke-width=".72877" fill="#808080"/>
 <path d="m641.52 31.001h357.72l-110.36 67.797v801.23l111.12 68.97h-359.23l105.79-68.97v-801.23z" fill="#808080"/>
</svg>
