<svg xmlns="http://www.w3.org/2000/svg" height="1e3" viewBox="0 0 1000 1000" width="1e3" version="1.1">
 <text style="word-spacing:0px;letter-spacing:0px" xml:space="preserve" font-size="192px" line-height="25px" y="559.32202" x="415.25424" font-family="&apos;Unifont Upper&apos;" fill="#000000"><tspan x="415.25424" y="621.69702"/></text>
 <g aria-label="🔗" transform="matrix(3.7522 0 0 3.7522 -1429.9 -1100.2)">
  <path d="m606.05 362.26q0 10.594-5.3438 17.625-2.9062 3.8438-16.219 17.344-6.1875 6.5625-19.312 18.75-7.5938 6.1875-19.5 6.1875-6.5625 0-13.219-2.8125l-16.406 16.031q3.1875 8.5312 3.1875 13.875 0 10.594-6 18.094-3.0938 3.8438-15.75 16.688-5.9062 6.1875-18.281 18-8.0625 7.0312-19.875 7.0312-12.75 0-22.5-9.6562-9.6562-9.5625-9.6562-22.219 0-11.438 6.1875-18.75 3.4688-4.125 16.219-17.062 5.625-5.8125 17.25-16.969 3.4688-3 9.9375-5.1562 6.0938-1.9688 11.062-1.9688 6.75 0 13.312 3.1875l16.312-16.5q-3.1875-5.1562-3.1875-13.5t3.5625-14.812q3.1875-5.7188 14.062-16.594 8.1562-7.875 16.312-15.75 2.4375-2.4375 7.5938-6.9375 7.9688-5.9062 18.281-5.9062 12.938 0 22.406 9.4688 9.5625 9.375 9.5625 22.312zm-21.094 0.1875q0-4.4062-3.1875-7.5938-3.0938-3.2812-7.4062-3.2812-4.2188 0-7.0312 2.4375-2.9062 3.0938-8.7188 9.0938-6.2812 6.4688-17.25 17.625 2.1562-0.75 4.3125-0.75 4.2188 0 7.7812 3.375 3.6562 3.375 3.6562 7.5938 0 1.875-1.0312 4.5938 12-11.906 19.5-19.688 3-2.7188 8.0625-8.7188 1.3125-2.1562 1.3125-4.6875zm13.875-0.28125q0-9.9375-7.3125-17.156-7.3125-7.3125-17.25-7.3125-9.4688 0-15.094 4.7812-3.6562 3.0938-17.531 16.969-5.4375 5.25-15.656 16.219-4.7812 5.7188-4.7812 15.094 0 6.1875 1.6875 7.6875 1.875-1.875 5.7188-5.5312-0.0937-1.125-0.0937-1.9688 0-7.4062 3.1875-11.062 2.25-2.5312 18-18.281 4.7812-5.0625 15.188-14.25 3.75-2.7188 9.375-2.7188 7.2188 0 12.281 5.25 5.0625 5.1562 5.0625 12.375 0 5.9062-2.7188 9.9375-3.1875 4.6875-9.375 10.406-5.25 4.5938-10.5 9.2812-4.875 4.9688-9.6562 9.9375-6.4688 5.9062-11.906 5.9062-0.5625 0-1.5938-0.0937-1.0312-0.1875-1.5938-0.1875-0.65625 0-6.375 6.2812 3.75 1.5 8.0625 1.5 6.9375 0 11.719-3 3.2812-2.0625 15.656-14.25 6.75-6.2812 13.406-12.562 8.4375-8.4375 10.688-14.344 1.4062-3.6562 1.4062-8.9062zm-49.219 28.969q-0.9375-3.375-4.5-4.2188-6 5.3438-33.094 32.344-28.406 28.219-28.406 29.438 0 0.9375 1.4062 2.625 1.4062 1.5938 2.3438 1.5938 1.2188 0 29.719-28.5 27.469-27.469 32.531-33.281zm-37.594 57.75q0-4.5938-1.3125-7.875-2.0625 1.5-4.2188 3.0938-2.25 1.9688-2.25 4.4062 0 0.5625 0.0937 1.6875t0.0937 1.6875q0 3.1875-2.0625 6.2812-2.25 3.375-17.25 18.281-14.906 14.906-17.625 16.312-4.2188 2.1562-8.5312 2.1562-7.2188 0-12.469-5.1562-5.1562-5.0625-5.1562-12.281 0-7.125 4.4062-11.906 1.5-1.6875 17.812-17.625 4.875-5.1562 14.25-13.688 3.4688-2.5312 9.0938-2.5312 0.375 0 1.125 0.1875 0.75 0.0937 1.125 0.0937 0.75 0 6-6.1875-3.6562-1.5938-7.7812-1.5938-8.3438 0-14.531 5.1562-6.0938 5.0625-20.719 19.781-4.7812 4.5938-13.594 14.156-4.125 5.0625-4.125 14.156 0 10.031 7.3125 17.344 7.3125 7.3125 17.25 7.3125 9 0 14.719-4.7812 4.5938-3.8438 19.5-18.75 4.9688-4.7812 14.344-15 4.5-5.5312 4.5-14.719zm-20.344 10.781q-1.875 0.46875-3.75 0.46875-4.4062 0-7.9688-3.75-3.5625-3.8438-3.5625-8.25 0-1.6875 0.46875-3.6562-9.1875 8.4375-26.156 26.438-2.4375 2.9062-2.4375 6.2812 0 4.3125 3.1875 7.3125 3.1875 3.0938 7.5 3.0938 4.0312 0 6.0938-1.5 1.0312-0.75 7.875-7.5 6.2812-6.375 18.75-18.938z"/>
 </g>
 <rect height="330.51" width="292.37" y="550.85" x="610.17" fill="#808080"/>
</svg>
