<svg id="svg2" xmlns:rdf="http://www.w3.org/1999/02/22-rdf-syntax-ns#" xmlns="http://www.w3.org/2000/svg" height="1e3" viewBox="0 0 1000 1000" width="1e3" version="1.1" xmlns:cc="http://creativecommons.org/ns#" xmlns:dc="http://purl.org/dc/elements/1.1/">
 <path id="rect74623" fill="#808080" d="m41.656 131.85c-0.97171 0-1.7539 0.78414-1.7539 1.7559v155.58c0 0.97171 0.78219 1.7559 1.7539 1.7559h341.15c0.97171 0 1.7539-0.78414 1.7539-1.7559v-155.58c0-0.97171-0.78219-1.7559-1.7539-1.7559h-341.15zm388.7 57.592 0.002 156.17h-390.46v520.37l0.16797 0.8418 0.46094 0.68555 0.6875 0.46093 0.83984 0.16993h915.88c1.1953 0 2.1582-0.96291 2.1582-2.1582v-673.69l-0.16993-0.8418-0.46093-0.68554-0.68555-0.4629-0.8418-0.16796-527.58-0.69336zm-134.18 1.5898h38.693c0.97172 0 1.7539 0.78219 1.7539 1.7539v37.223c0 0.97172-0.78219 1.7539-1.7539 1.7539h-38.693c-0.97172 0-1.7539-0.7822-1.7539-1.7539v-37.223c0-0.97173 0.7822-1.7539 1.7539-1.7539z"/>
</svg>
