<svg id="svg3529" xmlns:rdf="http://www.w3.org/1999/02/22-rdf-syntax-ns#" xmlns="http://www.w3.org/2000/svg" height="1e3" width="1e3" version="1.1" xmlns:cc="http://creativecommons.org/ns#" xmlns:dc="http://purl.org/dc/elements/1.1/" viewBox="0 0 1000 1000">
 <path id="cut" d="m224.33 9.7338c3.67 110.14 26.87 221.67 85.64 316.27 39.86 64.27 83.95 125.75 127.57 187.53l-110.94 160.29c-78.117-7.0903-155.53 61.184-170.29 138.3-28.986 88.972 48.472 198.95 146.19 174.76 111.22-20.402 176.77-168.68 112.41-261.35l85.304-122.09 85.995 123.08 1.4023-0.67548c-25.196 35.145-35.56 82.296-21.75 124.69 17.641 92.197 124.85 171.78 215.74 125 11.125-5.8615 21.3-13.531 30.049-22.565 84.777-90.499 18.208-255.58-99.597-277.19-13.386-3.3146-26.388-4.0971-38.793-2.775l-110.37-159.47c43.62-61.78 87.72-123.26 127.57-187.53 58.78-94.6 81.98-206.13 85.64-316.27l-126.67 197.69-149.21 215.57-149.21-215.57-126.68-197.69zm472.76 725.16c15.306-0.0785 30.7 4.3667 43.969 14.327 58.613 33.251 75.238 134.14 10.8 169.9-69.356 34.46-143.12-42.526-133.61-111.52 1.167-42.758 39.725-72.504 78.841-72.705zm-390.55 0.12641c11.742-0.0533 23.81 2.5771 35.765 8.4928 64.438 35.759 47.813 136.65-10.8 169.9-47.181 35.415-121.19 1.1116-122.81-58.377-7.7305-57.227 41.271-119.76 97.846-120.01z" fill="#808080"/>
</svg>
