<svg id="svg2" xmlns:rdf="http://www.w3.org/1999/02/22-rdf-syntax-ns#" xmlns="http://www.w3.org/2000/svg" height="1e3" width="1e3" version="1.1" xmlns:cc="http://creativecommons.org/ns#" xmlns:dc="http://purl.org/dc/elements/1.1/" viewBox="0 0 1000 1000">
 <path id="rect12576" d="m62.052 72.22c-0.92906 0-1.6758 0.74672-1.6758 1.6758v382.33c0 0.92906 0.74672 1.6758 1.6758 1.6758h402.93c0.92906 0 1.6758-0.74672 1.6758-1.6758v-382.33c0-0.92906-0.74673-1.6758-1.6758-1.6758h-402.93zm472.97 0c-0.92906 0-1.6777 0.74672-1.6777 1.6758v382.33c0 0.92906 0.74867 1.6758 1.6777 1.6758h402.93c0.92906 0 1.6777-0.74672 1.6777-1.6758v-382.33c0-0.92906-0.74867-1.6758-1.6777-1.6758h-402.93zm-472.97 469.87c-0.92906 0-1.6758 0.74868-1.6758 1.6777v382.33c0 0.92907 0.74672 1.6777 1.6758 1.6777h402.93c0.92906 0 1.6758-0.74866 1.6758-1.6777v-382.33c0-0.92906-0.74673-1.6777-1.6758-1.6777h-402.93zm472.97 0c-0.92906 0-1.6777 0.74868-1.6777 1.6777v382.33c0 0.92907 0.74867 1.6777 1.6777 1.6777h402.93c0.92906 0 1.6777-0.74866 1.6777-1.6777v-382.33c0-0.92906-0.74867-1.6777-1.6777-1.6777h-402.93z" fill="#808080"/>
</svg>
