<svg id="svg2" xmlns:rdf="http://www.w3.org/1999/02/22-rdf-syntax-ns#" xmlns="http://www.w3.org/2000/svg" height="1e3" width="1e3" version="1.1" xmlns:cc="http://creativecommons.org/ns#" xmlns:dc="http://purl.org/dc/elements/1.1/" viewBox="0 0 1000 1000">
 <path id="rect17160-2" d="m22.517 699.66c-1.4912 0-2.6914 3.1315-2.6914 7.0205v153.83c0 3.889 1.2002 7.0205 2.6914 7.0205h57.438c1.4912 0 2.6914-3.1315 2.6914-7.0205v-153.83c0-3.889-1.2002-7.0205-2.6914-7.0205h-57.438zm92.172 0c-1.4912 0-2.6914 3.1315-2.6914 7.0205v153.83c0 3.889 1.2002 7.0205 2.6914 7.0205h373.61c1.4912 0 2.6914-3.1315 2.6914-7.0205v-153.83c0-3.889-1.2002-7.0205-2.6914-7.0205h-373.61zm408.34 0c-1.4912 0-2.6914 3.1315-2.6914 7.0205v153.83c0 3.889 1.2002 7.0205 2.6914 7.0205h170.72c1.4912 0 2.6914-3.1315 2.6914-7.0205v-153.83c0-3.889-1.2002-7.0205-2.6914-7.0205h-170.72zm205.46 0c-1.4912 0-2.6914 3.1315-2.6914 7.0205v153.83c0 3.889 1.2002 7.0205 2.6914 7.0205h224.28c1.4912 0 2.6914-3.1315 2.6914-7.0205v-153.83c0-3.889-1.2002-7.0205-2.6914-7.0205h-224.28zm-705.97-283.59c-1.4912 0-2.6914 3.1315-2.6914 7.0205v153.83c0 3.889 1.2002 7.0205 2.6914 7.0205h57.438c1.4912 0 2.6914-3.1315 2.6914-7.0205v-153.83c0-3.889-1.2002-7.0205-2.6914-7.0205h-57.438zm92.172 0c-1.4912 0-2.6914 3.1315-2.6914 7.0205v153.83c0 3.889 1.2002 7.0205 2.6914 7.0205h373.61c1.4912 0 2.6914-3.1315 2.6914-7.0205v-153.83c0-3.889-1.2002-7.0205-2.6914-7.0205h-373.61zm408.34 0c-1.4912 0-2.6914 3.1315-2.6914 7.0205v153.83c0 3.889 1.2002 7.0205 2.6914 7.0205h170.72c1.4912 0 2.6914-3.1315 2.6914-7.0205v-153.83c0-3.889-1.2002-7.0205-2.6914-7.0205h-170.72zm205.46 0c-1.4912 0-2.6914 3.1315-2.6914 7.0205v153.83c0 3.889 1.2002 7.0205 2.6914 7.0205h224.28c1.4912 0 2.6914-3.1315 2.6914-7.0205v-153.83c0-3.889-1.2002-7.0205-2.6914-7.0205h-224.28zm-705.97-283.6c-1.4912 0-2.6914 3.1315-2.6914 7.0205v153.83c0 3.889 1.2002 7.0205 2.6914 7.0205h57.438c1.4912 0 2.6914-3.1315 2.6914-7.0205v-153.83c0-3.889-1.2002-7.0205-2.6914-7.0205h-57.438zm92.172 0c-1.4912 0-2.6914 3.1315-2.6914 7.0205v153.83c0 3.889 1.2002 7.0205 2.6914 7.0205h373.61c1.4912 0 2.6914-3.1315 2.6914-7.0205v-153.83c0-3.889-1.2002-7.0205-2.6914-7.0205h-373.61zm408.34 0c-1.4912 0-2.6914 3.1315-2.6914 7.0205v153.83c0 3.889 1.2002 7.0205 2.6914 7.0205h170.72c1.4912 0 2.6914-3.1315 2.6914-7.0205v-153.83c0-3.889-1.2002-7.0205-2.6914-7.0205h-170.72zm205.46 0c-1.4912 0-2.6914 3.1315-2.6914 7.0205v153.83c0 3.889 1.2002 7.0205 2.6914 7.0205h224.28c1.4912 0 2.6914-3.1315 2.6914-7.0205v-153.83c0-3.889-1.2002-7.0205-2.6914-7.0205h-224.28z" fill="#808080"/>
</svg>
