<svg id="svg2" xmlns:rdf="http://www.w3.org/1999/02/22-rdf-syntax-ns#" xmlns="http://www.w3.org/2000/svg" height="1e3" width="1e3" version="1.1" xmlns:cc="http://creativecommons.org/ns#" xmlns:dc="http://purl.org/dc/elements/1.1/" viewBox="0 0 1000 1000">
 <path id="rect12560" d="m49.681 181.9c-1.4912 0-2.6934 1.2002-2.6934 2.6914v92.969c0 1.4912 1.2022 2.6914 2.6934 2.6914h421.5c1.4912 0 2.6914-1.2002 2.6914-2.6914v-92.969c0-1.4912-1.2002-2.6914-2.6914-2.6914h-421.5zm479.14 0c-1.4912 0-2.6914 1.2002-2.6914 2.6914v92.969c0 1.4912 1.2002 2.6914 2.6914 2.6914h421.5c1.4912 0 2.6914-1.2002 2.6914-2.6914v-92.969c0-1.4912-1.2002-2.6914-2.6914-2.6914h-421.5zm-479.14 179.28c-1.4912 0-2.6934 1.2022-2.6934 2.6934v92.969c0 1.4912 1.2022 2.6914 2.6934 2.6914h421.5c1.4912 0 2.6914-1.2002 2.6914-2.6914v-92.969c0-1.4912-1.2002-2.6934-2.6914-2.6934h-421.5zm479.14 0c-1.4912 0-2.6914 1.2022-2.6914 2.6934v92.969c0 1.4912 1.2002 2.6914 2.6914 2.6914h421.5c1.4912 0 2.6914-1.2002 2.6914-2.6914v-92.969c0-1.4912-1.2002-2.6934-2.6914-2.6934h-421.5zm-479.14 179.28c-1.4912 0-2.6934 1.2002-2.6934 2.6914v92.969c0 1.4912 1.2022 2.6914 2.6934 2.6914h421.5c1.4912 0 2.6914-1.2002 2.6914-2.6914v-92.969c0-1.4912-1.2002-2.6914-2.6914-2.6914h-421.5zm479.14 0c-1.4912 0-2.6914 1.2002-2.6914 2.6914v92.969c0 1.4912 1.2002 2.6914 2.6914 2.6914h421.5c1.4912 0 2.6914-1.2002 2.6914-2.6914v-92.969c0-1.4912-1.2002-2.6914-2.6914-2.6914h-421.5zm-479.14 179.29c-1.4912 0-2.6934 1.2002-2.6934 2.6914v92.969c0 1.4912 1.2022 2.6914 2.6934 2.6914h421.5c1.4912 0 2.6914-1.2002 2.6914-2.6914v-92.969c0-1.4912-1.2002-2.6914-2.6914-2.6914h-421.5zm479.14 0c-1.4912 0-2.6914 1.2002-2.6914 2.6914v92.969c0 1.4912 1.2002 2.6914 2.6914 2.6914h421.5c1.4912 0 2.6914-1.2002 2.6914-2.6914v-92.969c0-1.4912-1.2002-2.6914-2.6914-2.6914h-421.5z" fill="#808080"/>
</svg>
