<svg id="svg2" xmlns:rdf="http://www.w3.org/1999/02/22-rdf-syntax-ns#" xmlns="http://www.w3.org/2000/svg" height="1e3" viewBox="0 0 1000 1000" width="1e3" version="1.1" xmlns:cc="http://creativecommons.org/ns#" xmlns:dc="http://purl.org/dc/elements/1.1/">
 <path id="rect74623" fill="#808080" d="m430.36 160.65 527.58 0.69396 0.8414 0.16904 0.68566 0.46153 0.46152 0.68565 0.16904 0.8414v673.69c0 1.1953-0.9623 2.1576-2.1576 2.1576h-915.88l-0.8414-0.16904-0.68565-0.46153-0.46153-0.68565-0.16904-0.8414v-520.37h390.46z"/>
 <path id="rect74626" fill="#fdd1a5" d="m41.657 103.06h341.15c0.97172 0 1.754 0.78229 1.754 1.754v155.58c0 0.97172-0.78229 1.754-1.754 1.754h-341.15c-0.97172 0-1.754-0.78229-1.754-1.754v-155.58c0-0.97172 0.78229-1.754 1.754-1.754z"/>
 <path id="rect74630" fill="#e3b61b" d="m296.18 162.24h38.693c0.97172 0 1.754 0.78228 1.754 1.754v37.224c0 0.97172-0.78229 1.754-1.754 1.754h-38.693c-0.97172 0-1.754-0.78229-1.754-1.754v-37.224c0-0.97173 0.78229-1.754 1.754-1.754z"/>
 <path id="rect4138" d="m1.1986 149.42 350.58 350.58-350.58 350.58 148.22 148.22 350.58-350.58 350.58 350.58 148.22-148.22-350.58-350.58 350.58-350.58-148.22-148.22-350.58 350.58-350.58-350.58-148.22 148.22z" fill="#f00"/>
</svg>
