<svg id="svg2" xmlns:rdf="http://www.w3.org/1999/02/22-rdf-syntax-ns#" xmlns="http://www.w3.org/2000/svg" height="1e3" viewBox="0 0 1000 1000" width="1e3" version="1.1" xmlns:cc="http://creativecommons.org/ns#" xmlns:dc="http://purl.org/dc/elements/1.1/">
 <path id="path4193" fill="#808080" d="m503.68 80.061c-111.55 0.0001-218.54 44.315-297.42 123.2-78.88 78.88-123.2 185.86-123.2 297.41 0.00012 111.55 44.315 218.54 123.2 297.42 78.881 78.881 185.87 123.2 297.42 123.2 189.46-0.032 355.51-126.72 405.59-309.44h-130.53c-45.3 112.15-154.13 185.61-275.08 185.7-163.96 0-296.87-132.92-296.87-296.88 0.00039-163.96 132.91-296.87 296.87-296.87 69.399 0.0909 136.57 24.492 189.85 68.965l-170.17 101.94 393.6 62.87-30.9-413.93-99.2 166.72c-77.35-70.78-178.34-110.12-283.18-110.31z"/>
</svg>
