<svg xmlns="http://www.w3.org/2000/svg" height="1e3" viewBox="0 0 1000 1000" width="1e3" version="1.1">
 <path fill="#808080" d="m430.36 160.65v156.17h-390.46l0.002 520.37 0.17 0.84 0.461 0.69 0.686 0.46 0.842 0.17h642.95v-678.37l-254.65-0.33zm518.33 0.68v678.02h9.25c1.19 0 2.16-0.96 2.16-2.16v-673.69l-0.17-0.84-0.46-0.69-0.69-0.46-0.84-0.17-9.25-0.01z"/>
 <path fill="#808080" d="m41.656 103.06c-0.971 0-1.754 0.78-1.754 1.75v155.58c0 0.98 0.783 1.76 1.754 1.76h341.15c0.97 0 1.75-0.78 1.75-1.76v-155.58c0-0.97-0.78-1.75-1.75-1.75h-341.15zm254.52 59.18h38.69c0.97 0 1.76 0.78 1.76 1.75v37.23c0 0.97-0.79 1.75-1.76 1.75h-38.69c-0.97 0-1.75-0.78-1.75-1.75v-37.23c0-0.97 0.78-1.75 1.75-1.75z"/>
 <path fill="#808080" d="m642.92 27.955h357.72l-110.36 67.797v801.23l111.12 68.971h-359.23l105.79-68.971v-801.23z"/>
</svg>
