<svg xmlns="http://www.w3.org/2000/svg" height="1e3" width="1e3" version="1.1" viewBox="0 0 1000 1000">
 <path d="m627.96 281.91 370.52 0.48736 0.59091 0.11871 0.48152 0.32413 0.32413 0.48153 0.11871 0.5909v473.12c0 0.83945-0.67582 1.5153-1.5153 1.5153h-643.22l-0.59091-0.11872-0.48152-0.32412-0.32413-0.48152-0.11871-0.59091v-365.45h274.22z" stroke-width=".70229" fill="#808080"/>
 <path d="m354.98 241.46c-0.68 0-1.23 0.55-1.23 1.24v109.25c0 0.68 0.55 1.23 1.23 1.23h239.58c0.68 0 1.23-0.55 1.23-1.23v-109.26c0-0.69-0.55-1.23-1.23-1.23h-239.58zm178.74 41.56h27.18c0.68 0 1.23 0.55 1.23 1.23v26.14c0 0.69-0.55 1.24-1.23 1.24h-27.18c-0.68 0-1.23-0.55-1.23-1.24v-26.14c0-0.68 0.55-1.23 1.23-1.23z" stroke-width=".70229" fill="#808080"/>
</svg>
