<svg id="svg2" xmlns:rdf="http://www.w3.org/1999/02/22-rdf-syntax-ns#" xmlns="http://www.w3.org/2000/svg" height="1e3" viewBox="0 0 1000 1000" width="1e3" version="1.1" xmlns:cc="http://creativecommons.org/ns#" xmlns:dc="http://purl.org/dc/elements/1.1/">
 <path id="path4193" d="m500 79.385c-111.55 0-218.54 44.315-297.42 123.2-78.88 78.88-123.2 185.87-123.2 297.42 0.005 111.55 44.32 218.54 123.2 297.42s185.87 123.2 297.42 123.2c189.46-0.04 355.51-126.73 405.59-309.45h-130.53c-45.3 112.15-154.11 185.61-275.06 185.7-163.96 0-296.87-132.91-296.87-296.87s132.91-296.87 296.87-296.87c69.399 0.0909 136.57 24.492 189.85 68.965l-170.17 101.93 393.64 62.88-30.95-413.94-99.19 166.73c-77.35-70.78-178.34-110.12-283.18-110.32z" fill="#808080"/>
</svg>
