<svg id="svg2" xmlns:rdf="http://www.w3.org/1999/02/22-rdf-syntax-ns#" xmlns="http://www.w3.org/2000/svg" height="1e3" viewBox="0 0 1000 1000" width="1e3" version="1.1" xmlns:cc="http://creativecommons.org/ns#" xmlns:dc="http://purl.org/dc/elements/1.1/">
 <g id="text6888" fill="#808080">
  <path id="path10680" d="m705.09 793.32h-285.03v-34.242c25.079-1.6076 45.817-4.8228 62.214-9.6456 16.719-4.8228 25.079-10.771 25.079-17.844 0-2.8937-0.32152-6.4304-0.96456-10.61-0.64305-4.1798-1.6076-7.8772-2.8937-11.092l-56.909-153.37h-239.69c-9.0026 22.506-16.398 42.119-22.185 58.838-5.4658 16.719-10.449 32.152-14.951 46.299-4.1798 13.825-7.0734 25.079-8.6811 33.76-1.6076 8.681-2.4114 15.755-2.4114 21.22 0 12.861 10.128 22.828 30.384 29.901 20.256 7.0734 43.084 11.253 68.484 12.539v34.242h-257.54v-34.242c8.3695-0.64 18.819-2.41 31.358-5.31 12.539-3.2152 22.828-7.395 30.866-12.539 12.861-8.681 22.828-17.684 29.901-27.008 7.0735-9.6456 13.986-22.828 20.738-39.547 34.403-85.846 72.342-182.3 113.82-289.37 41.476-107.07 78.451-202.4 110.92-285.99h38.582l228.12 590.31c4.8228 12.539 10.289 22.667 16.398 30.384 6.1089 7.7165 14.629 15.272 25.561 22.667 7.395 4.5013 17.041 8.3595 28.937 11.575 11.896 2.8937 21.863 4.5013 29.901 4.8228zm-275.86-279.72-103.69-265.26-101.76 265.26z"/>
 </g>
 <path id="rect4138" d="m641.52 31.001h178.86 178.86l-110.36 67.797v801.23l111.12 68.971h-359.23l105.79-68.971v-801.23z" fill="#808080"/>
</svg>
