<svg id="svg2" xmlns:rdf="http://www.w3.org/1999/02/22-rdf-syntax-ns#" xmlns="http://www.w3.org/2000/svg" height="1e3" width="1e3" version="1.1" xmlns:cc="http://creativecommons.org/ns#" xmlns:dc="http://purl.org/dc/elements/1.1/" viewBox="0 0 1000 1000">
 <path id="rect12560" d="m148.47 121.78c-1.8 0-3.26 1.46-3.26 3.26v749.92c0 1.8 1.46 3.26 3.26 3.26h703.06c1.8 0 3.26-1.46 3.26-3.26v-749.92c0-1.8-1.46-3.26-3.26-3.26h-703.06zm74.15 66.17h554.76c1.8 0 3.26 1.46 3.26 3.26v617.58c0 1.8-1.46 3.26-3.26 3.26h-554.76c-1.8 0-3.26-1.46-3.26-3.26v-617.58c0-1.8 1.46-3.26 3.26-3.26z" fill="#808080"/>
</svg>
