<svg xmlns="http://www.w3.org/2000/svg" height="1e3" width="1e3" version="1.1" viewBox="0 0 1000 1000">
 <path fill="#808080" d="m44.439 233.94c-0.971 0-1.753 0.78-1.753 1.75v155.58c0 0.98 0.782 1.76 1.753 1.76h133.5c3.48-4.22 7-8.41 10.53-12.57 44.55-51.23 92.27-99.38 141.03-146.52h-285.06zm684.19 57.98c24.97 25.27 49.35 51.13 72.73 77.96 26.66 32.98 56.42 64.45 74.97 103.05 12.97 28.56 2.57 60.52 7.95 90.37h-244.97v365.35h-279.56c0-121.79 0-243.57-0.01-365.35h-234.43c-5.55 1.83-10.18-3.74-9.52-9.05 2.66-25.42-4.05-51.87 4.51-76.66 5.14-10.28 10.88-20.22 17.05-29.89h-94.67v520.37l0.168 0.84 0.461 0.69 0.687 0.46 0.84 0.17h915.88c1.19 0 2.16-0.96 2.16-2.16v-673.69l-0.17-0.84-0.47-0.69-0.68-0.46-0.84-0.17-232.09-0.3z"/>
 <path fill="#808080" d="m496.02 174.63c-103.01 99.726-213.22 194.08-297.3 311.25 78.067-0.25211 157.07 0.17725 235.5-0.13281 0.003 121.81 0.007 243.62 0.01 365.43h131.56v-365.26c78.499-0.49152 157 0.43643 235.5-0.32031-15.3-24.03-35.35-44.51-52.63-67.04-76.22-89.09-165.12-165.85-248.74-247.7-1.2988 1.2591-2.5977 2.5182-3.8965 3.7774z"/>
</svg>
