<?xml version="1.0" encoding="UTF-8" standalone="no"?>
<!-- Created with Inkscape (http://www.inkscape.org/) -->

<svg
   xmlns:dc="http://purl.org/dc/elements/1.1/"
   xmlns:cc="http://creativecommons.org/ns#"
   xmlns:rdf="http://www.w3.org/1999/02/22-rdf-syntax-ns#"
   xmlns:svg="http://www.w3.org/2000/svg"
   xmlns="http://www.w3.org/2000/svg"
   xmlns:sodipodi="http://sodipodi.sourceforge.net/DTD/sodipodi-0.dtd"
   xmlns:inkscape="http://www.inkscape.org/namespaces/inkscape"
   height="1000"
   width="1000"
   viewBox="0 0 1000 1000"
   id="svg2"
   version="1.1"
   inkscape:version="0.91 r13725"
   sodipodi:docname="localizer-hover.svg">
  <defs
     id="defs8" />
  <sodipodi:namedview
     pagecolor="#ffffff"
     bordercolor="#666666"
     borderopacity="1"
     objecttolerance="10"
     gridtolerance="10"
     guidetolerance="10"
     inkscape:pageopacity="0"
     inkscape:pageshadow="2"
     inkscape:window-width="2221"
     inkscape:window-height="1379"
     id="namedview6"
     showgrid="false"
     units="px"
     inkscape:zoom="0.65450993"
     inkscape:cx="444.96741"
     inkscape:cy="454.29358"
     inkscape:window-x="737"
     inkscape:window-y="528"
     inkscape:window-maximized="0"
     inkscape:current-layer="svg2" />
  <metadata
     id="metadata4">
    <rdf:RDF>
      <cc:Work
         rdf:about="">
        <dc:format>image/svg+xml</dc:format>
        <dc:type
           rdf:resource="http://purl.org/dc/dcmitype/StillImage" />
        <dc:title></dc:title>
      </cc:Work>
    </rdf:RDF>
  </metadata>
  <path
     style="opacity:1;fill:#000000;fill-opacity:1;stroke:none;stroke-width:10;stroke-linecap:butt;stroke-linejoin:round;stroke-miterlimit:1;stroke-dasharray:none;stroke-dashoffset:0;stroke-opacity:1"
     d="m 93.667447,112.40981 0,163.3418 88.129963,0 0,-163.3418 z m 0,264.85352 0,539.85742 88.129963,0 0,-539.85742 z"
     id="rect7039"
     inkscape:connector-curvature="0"
     sodipodi:nodetypes="cccccccccc" />
  <path
     style="opacity:1;fill:#000000;fill-opacity:1;stroke:none;stroke-width:10;stroke-linecap:butt;stroke-linejoin:round;stroke-miterlimit:1;stroke-dasharray:none;stroke-dashoffset:0;stroke-opacity:1"
     d="m 409.27641,66.268217 c -90.72088,4.99e-4 -164.26429,88.625463 -164.26367,197.949223 2e-4,79.96758 39.35469,148.85182 95.99414,180.08398 C 274.69653,484.7894 227.94037,582.471 227.94047,696.56314 227.94034,846.91452 309.1271,968.79872 409.27641,968.79947 509.42572,968.79872 590.61248,846.91452 590.61235,696.56314 590.61245,582.471 543.85629,484.7894 477.54594,444.30142 534.18539,413.06926 573.53988,344.18502 573.54008,264.21744 573.5407,154.89368 499.99729,66.268716 409.27641,66.268217 Z m 0,54.447263 c 48.41858,-5.2e-4 98.74404,80.97002 98.74414,144.42383 -1e-4,63.45383 -50.32556,134.27201 -98.74414,134.27149 -48.41858,5.2e-4 -105.20303,-74.50907 -105.20312,-137.96289 9e-5,-63.45382 56.78454,-140.73295 105.20312,-140.73243 z m 0,377.9004 c 78.23356,5.9e-4 108.43156,81.19843 108.43164,200.71484 -8e-5,119.51642 -30.19808,197.94863 -108.43164,197.94922 -78.23356,-5.9e-4 -113.96866,-81.20039 -113.96875,-200.7168 9e-5,-119.51641 35.73519,-197.94667 113.96875,-197.94726 z"
     id="path7046"
     inkscape:connector-curvature="0" />
  <path
     style="opacity:1;fill:#000000;fill-opacity:1;stroke:none;stroke-width:10;stroke-linecap:butt;stroke-linejoin:round;stroke-miterlimit:1;stroke-dasharray:none;stroke-dashoffset:0;stroke-opacity:1"
     d="m 636.75545,117.94693 0,799.17382 80.28711,0 0,-504.1543 108.43164,487.96094 0,16.19336 80.28711,0 0,-798.25 -80.28711,0 0,473.00976 -105.26367,-473.70897 -3.16797,0.74609 0,-0.9707 -80.28711,0 z"
     id="rect7050"
     inkscape:connector-curvature="0" />
</svg>
