<svg xmlns="http://www.w3.org/2000/svg" height="1e3" viewBox="0 0 1000 1000" width="1e3" version="1.1">
 <g aria-label="1A FF 00 11" style="word-spacing:0px;letter-spacing:0px" font-size="180px" line-height="25px" font-family="Georgia">
  <g aria-label="00 1C DF" fill="#808080" stroke-width="1.1084px">
   <path d="m67.24 258.68q0-5.1629 3.5069-8.6698t8.5724-3.5069q5.1629 0 8.6698 3.5069t3.5069 8.6698q0 5.0655-3.5069 8.5724t-8.6698 3.5069q-5.0655 0-8.5724-3.4095-3.5069-3.5069-3.5069-8.6698zm12.079-51.142q-9.9362 0-14.515 12.177-4.5784 12.177-4.5784 38.965 0 26.691 4.5784 38.868t14.515 12.177q10.034 0 14.612-12.177 4.5784-12.177 4.5784-38.868 0-26.789-4.5784-38.965-4.5784-12.177-14.612-12.177zm-48.025 51.14q0-37.797 11.982-56.597 11.982-18.898 36.043-18.898 24.159 0 36.14 18.801 11.982 18.801 11.982 56.695 0 37.797-11.982 56.597-11.982 18.801-36.14 18.801-24.061 0-36.043-18.801-11.982-18.9-11.982-56.6z"/>
   <path d="m187.25 258.68q0-5.1629 3.5069-8.6698t8.5724-3.5069q5.1629 0 8.6698 3.5069t3.5069 8.6698q0 5.0655-3.5069 8.5724t-8.6698 3.5069q-5.0655 0-8.5724-3.4095-3.5069-3.5069-3.5069-8.6698zm12.079-51.142q-9.9362 0-14.515 12.177-4.5784 12.177-4.5784 38.965 0 26.691 4.5784 38.868t14.515 12.177q10.034 0 14.612-12.177 4.5784-12.177 4.5784-38.868 0-26.789-4.5784-38.965-4.5784-12.177-14.612-12.177zm-48.025 51.142q0-37.797 11.982-56.597 11.982-18.898 36.043-18.898 24.159 0 36.14 18.801 11.982 18.801 11.982 56.695 0 37.797-11.982 56.597-11.982 18.801-36.14 18.801-24.061 0-36.043-18.801-11.982-18.898-11.982-56.597z"/>
   <path d="m397.67 305.93h32.147v-94.4l-29.906 7.4034v-25.91l30.101-7.2086h27.763v120.11h32.147v25.328h-92.251z"/>
   <path d="m604.67 327.07q-6.819 3.5069-14.32 5.2603-7.5008 1.7534-15.781 1.7534-29.419 0-44.908-19.385t-15.489-56.013q0-36.725 15.489-56.11t44.908-19.385q8.2802 0 15.878 1.7534 7.5983 1.7534 14.222 5.2603v31.952q-7.4034-6.819-14.417-9.9362-6.9164-3.2146-14.32-3.2146-15.781 0-23.866 12.566-7.9879 12.469-7.9879 37.115 0 24.548 7.9879 37.115 8.0853 12.469 23.866 12.469 7.4034 0 14.32-3.1172 7.0138-3.2146 14.417-10.034z"/>
   <path d="m781.48 211.73v93.615h7.7931q16.95 0 24.159-10.618 7.2086-10.716 7.2086-36.335 0-25.425-7.2086-36.043t-24.159-10.618zm-28.74-25.91h30.783q35.653 0 51.337 17.047 15.684 16.95 15.684 55.526 0 38.673-15.684 55.818-15.684 17.047-51.337 17.047h-30.78z"/>
   <path d="m967.73 211.14h-61.858v31.367h56.305v25.328h-56.305v63.416h-28.74v-145.44h90.595z"/>
  </g>
  <g aria-label="04 78 BE" fill="#808080" stroke-width="1.1084px">
   <path d="m67.24 500.05q0-5.1629 3.5069-8.6698t8.5724-3.5069q5.1629 0 8.6698 3.5069t3.5069 8.6698q0 5.0655-3.5069 8.5724t-8.6698 3.5069q-5.0655 0-8.5724-3.4095-3.5069-3.5069-3.5069-8.6698zm12.079-51.14q-9.9362 0-14.515 12.177-4.5784 12.177-4.5784 38.965 0 26.691 4.5784 38.868t14.515 12.177q10.034 0 14.612-12.177 4.5784-12.177 4.5784-38.868 0-26.789-4.5784-38.965-4.578-12.18-14.612-12.18zm-48.025 51.14q0-37.797 11.982-56.597 11.982-18.898 36.043-18.898 24.159 0 36.14 18.801 11.982 18.801 11.982 56.695 0 37.797-11.982 56.597-11.982 18.801-36.14 18.801-24.061 0-36.043-18.801-11.982-18.9-11.982-56.6z"/>
   <path d="m206.93 459.13-36.725 57.474h36.725zm-2.5328-31.952h30.101v89.426h15.976v24.646h-15.976v31.367h-27.568v-31.367h-57.669v-27.86z"/>
   <path d="m392.5 427.18h91.959v20.359l-49.291 125.08h-29.322l47.343-120.11h-60.689z"/>
   <path d="m559.37 507.74q-9.644 0-15.586 6.1371-5.9422 6.0396-5.9422 16.073 0 10.034 5.9422 16.171 5.9422 6.1371 15.586 6.1371 9.644 0 15.586-6.2345 6.0396-6.2345 6.0396-16.073 0-10.034-5.9422-16.073-5.9422-6.1371-15.684-6.1371zm-21.334-12.177q-11.008-3.7991-16.755-11.884-5.7474-8.1828-5.7474-19.97 0-18.119 11.787-28.64t32.049-10.521q20.359 0 32.147 10.521 11.787 10.521 11.787 28.64 0 11.69-5.65 19.872-5.65 8.0853-16.463 11.982 12.079 3.7017 18.898 13.248 6.819 9.5465 6.819 22.892 0 20.944-12.372 32.341t-35.166 11.397q-22.697 0-35.069-11.397t-12.372-32.341q0-13.443 6.9164-22.99 6.9164-9.5465 19.19-13.151zm3.0198-29.516q0 8.5724 4.8707 13.638 4.9681 4.9681 13.443 4.9681 8.5724 0 13.443-4.9681 4.9681-5.0655 4.9681-13.638 0-8.475-4.9681-13.346-4.8707-4.9681-13.443-4.9681-8.3776 0-13.346 4.9681-4.9681 4.9681-4.9681 13.346z"/>
   <path d="m779.33 506.58v43.057h19.093q13.735 0 19.19-4.6759 5.5526-4.6759 5.5526-16.268 0-11.787-5.7474-16.95-5.7474-5.1629-18.996-5.1629zm0-56.695v33.803h19.093q10.91 0 15.489-3.8966 4.6759-3.8966 4.6759-12.859 0-8.962-4.7733-12.956-4.6759-4.0914-15.391-4.0914zm-27.763-22.892h46.856q24.256 0 36.433 9.2543 12.274 9.1569 12.274 27.471 0 14.028-7.2086 21.918-7.2086 7.8905-21.139 9.1569 16.658 1.656 25.035 11.203 8.475 9.5466 8.475 26.691 0 21.041-12.664 30.49-12.664 9.4491-41.206 9.4491h-46.856z"/>
   <path d="m966.37 572.62h-90.6v-145.44h90.595v25.328h-61.858v31.367h56.013v25.328h-56.013v38.089h61.858z"/>
  </g>
  <g aria-label="13 AF 92" fill="#808080" stroke-width="1.1084px">
   <path d="m37.626 788.66h32.147v-94.394l-29.906 7.4034v-25.912l30.101-7.2086h27.763v120.11h32.147v25.328h-92.254z"/>
   <path d="m192.81 748.92h-15.4v-25.33h15.391q10.716 0 16.56-4.1888 5.9422-4.2862 5.9422-11.982 0-8.0853-5.9422-12.566-5.8448-4.5784-16.56-4.5784-8.1828 0-17.534 2.0457-9.3517 2.0457-19.385 5.9422v-26.107q10.034-3.0198 19.775-4.5784 9.7414-1.656 18.703-1.656 22.99 0 35.848 10.034 12.859 10.034 12.859 27.665 0 12.956-7.4034 21.236-7.4034 8.1828-21.139 10.716 15.586 2.7276 23.769 12.469 8.1828 9.644 8.1828 25.425 0 21.139-13.54 32.244-13.541 11.105-39.355 11.105-11.008 0-21.723-1.8509-10.618-1.8509-20.359-5.3578v-26.691q9.1569 4.5784 19.775 7.0138 10.618 2.3379 22.308 2.3379t18.509-5.3578q6.819-5.4552 6.819-14.612 0-11.203-6.819-17.242-6.819-6.1371-19.288-6.1371z"/>
   <path d="m439.36 694.85-13.54 59.52h27.178zm-17.534-26.302h35.166l39.258 145.44h-28.737l-8.9621-35.946h-38.478l-8.7672 35.946h-28.737z"/>
   <path d="m607.69 693.88h-61.858v31.367h56.305v25.328h-56.305v63.416h-28.74v-145.45h90.595z"/>
   <path d="m759.17 812.04v-26.204q7.6957 4.481 14.709 6.6241 7.1112 2.1431 13.638 2.1431 15.489 0 23.574-10.326 8.1828-10.423 8.6698-31.075-4.5784 6.3319-11.69 9.5465-7.1112 3.1172-16.853 3.1172-19.58 0-30.296-12.372-10.716-12.469-10.716-35.264 0-24.353 11.982-37.699t33.9-13.346q26.594 0 38.576 17.827 12.079 17.729 12.079 57.377 0 37.699-14.709 56.597-14.709 18.801-44.128 18.801-6.819 0-14.125-1.4612-7.2086-1.4612-14.612-4.2862zm37.699-70.235q9.2543 0 14.125-6.7215 4.9681-6.819 4.9681-19.678 0-12.761-4.9681-19.483-4.8707-6.819-14.125-6.819-9.3517 0-14.417 6.819-4.9681 6.7215-4.9681 19.483 0 12.761 4.9681 19.58 5.0655 6.819 14.417 6.819z"/>
   <path d="m901.69 788.66h61.273v25.328h-92.348v-24.548l15.586-16.56q27.763-29.516 33.705-36.335 7.306-8.3776 10.521-14.807 3.2146-6.5267 3.2146-12.859 0-9.7414-5.9422-15.002-5.8448-5.3578-16.658-5.3578-7.6957 0-17.34 3.1172-9.5465 3.0198-19.97 8.8646v-26.79q10.423-3.7991 20.359-5.7474 10.034-2.0457 19.19-2.0457 23.087 0 36.238 10.813 13.248 10.716 13.248 29.322 0 8.5724-2.9224 16.073-2.825 7.5008-9.8388 16.658-5.1629 6.6241-28.347 29.809-12.566 12.566-19.97 20.067z"/>
  </g>
  <flowRoot style="word-spacing:0px;letter-spacing:0px;writing-mode:lr" xml:space="preserve" font-size="180px" line-height="25px" font-family="monospace" fill="black"><flowRegion><rect y="113.81" width="1129.5" x="34.294" height="788.76"/></flowRegion><flowPara/></flowRoot>
 </g>
</svg>
