<svg xmlns="http://www.w3.org/2000/svg" height="1e3" width="1e3" version="1.1" viewBox="0 0 264.58333 264.58334">
 <g fill="#000000" transform="translate(0 -32.417)">
  <path d="m0 42.212 0.1695 244.99 92.912-100.08h-71.972v-24.741c0-6.6251 16.001-27.614 38.043-50.734zm264.58 0-59.153 69.43c22.042 23.12 38.043 44.11 38.043 50.734v24.741h-71.97l92.911 100.09z"/>
  <path d="m100.07 224.11v-48.33h-64.443v-13.096c0-7.2035 21.75-33.935 48.331-59.402l48.331-46.305 48.334 46.305c26.583 25.466 48.331 52.2 48.331 59.402v13.096h-64.442v96.666h-64.442v-48.331z" stroke-width=".26458"/>
 </g>
</svg>
