<svg xmlns="http://www.w3.org/2000/svg" height="1e3" width="1e3" version="1.1" viewBox="0 0 264.58333 264.58334">
 <g transform="translate(0 -32.417)">
  <g transform="matrix(1.0721 0 0 1.2375 -9.5434 -39.124)">
   <path d="m40.338 243.84 92.532-158.93 91.38 159.6z" fill-opacity=".66667" transform="matrix(1 0 0 1.0658 0 -5.5837)" fill="#ffd42a"/>
   <path d="m501.39 95.971-467.75 808.06h932.43zm-0.26 181.42 307.97 535.66-617.85 1.43c103.29-178.2 206.58-358.89 309.88-537.09z" transform="matrix(.26458 0 0 .26458 0 32.417)" fill="#808080"/>
  </g>
  <path d="m437.15 363.73v335.91h125.7v-335.91h-125.7zm62.85 386.4a69.294 63.885 0 0 0 -69.29 63.88 69.294 63.885 0 0 0 69.29 63.89 69.294 63.885 0 0 0 69.29 -63.89 69.294 63.885 0 0 0 -69.29 -63.88z" transform="matrix(.26458 0 0 .26458 0 32.417)" fill="#808080"/>
 </g>
</svg>
