<svg xmlns="http://www.w3.org/2000/svg" height="1e3" width="1e3" version="1.1" viewBox="0 0 264.58333 264.58334">
 <g transform="translate(0 -32.417)">
  <g aria-label="T" fill="#808080">
   <path d="m220.9 125.59h-9.9244q-3.9956-11.729-12.889-25.133-8.7644-13.404-16.24-14.436-4.1244-0.51556-10.182-0.90222-6.0578-0.38667-10.44-0.38667h-6.0578v143.46q0 4.64 1.6756 8.2489 1.6756 3.48 6.5733 5.5422 2.9644 1.16 9.1511 2.4489 6.3155 1.16 10.698 1.6756v10.053h-101.95v-10.053q3.7378-0.38667 10.44-1.0311 6.8311-0.77334 9.28-1.8044 5.0267-2.0622 6.7022-5.5422 1.6756-3.48 1.6756-8.2489v-144.75h-6.0578q-4.3822 0-10.44 0.38667t-10.182 0.90222q-7.4755 1.0311-16.369 14.436-8.7644 13.404-12.76 25.133h-9.928v-52.328h177.22z" stroke-width="1.4665px" fill="#808080"/>
  </g>
 </g>
</svg>
