<svg xmlns="http://www.w3.org/2000/svg" height="1e3" width="1e3" version="1.1" viewBox="0 0 264.58333 264.58334">
 <g transform="translate(0 -32.417)">
  <g aria-label="F" fill="#808080" fill-opacity=".94118">
   <path d="m215.23 122.11h-9.9244q-3.74-10.7-13.28-22.684-9.41-12.115-17.91-13.275-3.87-0.516-10.32-0.903-6.44-0.386-11.85-0.386h-28.484v71.791h18.173q7.7333 0 13.404-1.6756 5.6711-1.8044 10.053-6.3156 3.2222-3.2222 6.1867-10.698 3.0933-7.6044 3.7378-13.018h9.7955v76.947h-9.7955q-0.51555-5.8-3.9956-14.049-3.48-8.3778-5.9289-11.084-3.7378-4.1244-9.5378-6.0578-5.8-2.0622-13.92-2.0622h-18.173v60.578q0 4.64 1.6756 7.9911 1.8044 3.2222 6.7022 5.2844 2.8356 1.16 7.7333 2.1911 5.0267 0.90222 9.9244 1.4178v10.053h-98.602v-10.053q3.7378-0.38667 9.9244-1.0311 6.1867-0.77334 8.6355-1.8044 4.64-1.8044 6.4444-5.0267 1.8044-3.2222 1.8044-8.2489v-129.02q0-4.3822-1.6756-7.6044-1.545-3.349-6.572-5.54-3.608-1.546-9.537-2.835t-9.023-1.676v-10.053h164.33z" fill-opacity=".94118" stroke-width="1.4665px" fill="#808080"/>
  </g>
 </g>
</svg>
