<svg xmlns="http://www.w3.org/2000/svg" height="1e3" width="1e3" version="1.1" viewBox="0 0 264.58333 264.58334">
 <g transform="translate(0 -32.417)">
  <g aria-label="☺" fill="#000000">
   <path d="m40.878 164.95q0-38.008 26.764-64.772 26.764-26.886 64.649-26.886 38.008 0 64.649 26.886 26.764 26.764 26.764 64.772 0 37.885-26.764 64.527-26.642 26.642-64.649 26.642-37.885 0-64.649-26.642t-26.764-64.527zm18.576 0q0 29.942 21.265 51.573 21.387 21.509 51.573 21.509t51.573-21.509q21.509-21.631 21.509-51.573 0-30.43-21.509-51.695-21.387-21.387-51.573-21.387t-51.573 21.387q-21.265 21.265-21.265 51.695zm72.838 31.041q25.909 1.4665 35.441-30.553h8.4325q-2.322 42.652-44.362 44.851-40.571-2.93-42.893-44.6h7.9437q12.588 31.53 35.441 30.308zm29.453-44.851q-13.443-0.73326-13.932-14.421 0.73326-14.299 14.91-15.154 12.954 1.0999 13.688 14.665-0.73326 14.176-14.665 14.91zm-58.906 0q-13.443-0.73326-13.932-14.421 0.73326-14.299 14.91-15.154 12.832 1.0999 13.688 14.665-0.85547 14.176-14.665 14.91z" stroke-width="1.3905px" fill="#000000"/>
  </g>
 </g>
</svg>
