<svg height="1e3" id="sprite-1485034735" version="1.1" viewBox="0 0 1000 1000" width="1e3" xmlns="http://www.w3.org/2000/svg" xmlns:xlink="http://www.w3.org/1999/xlink"><defs id="defs-1485034735"><style>g{display:none;}g:target,g:target g{display:inline;}</style><symbol id="symbol-fi-adobe"><path d="m206.4 0h438.66c49.277 57.188 98.555 114.38 147.83 171.56v750.87h-586.49v-922.44z" fill="#ed1c24" fill-opacity=".26667" id="unique1"></path><path d="m134.66 0v999.58h730.68c-0.56928-270.53-1.1386-541.06-1.7078-811.59-60.9-62.67-121.8-125.33-182.7-187.99h-546.27zm71.74 73.846h438.66c49.277 52.61 98.555 105.22 147.83 157.83v690.76h-586.49v-848.59z" fill="#808080" id="unique2"></path><path d="m614.43 0.00072173c11.873-0.0025 55.782 0.0025 67.655-0.000004l182.71 174.26c0.0295 13.01 0.0914 41.354 0.12092 54.364h-250.48z" fill="#ed1c24" id="unique3"></path><path d="m242.78 264.4h514.43c1.6735 0 3.0207 1.3472 3.0207 3.0207v465.16c0 1.6735-1.3472 3.0207-3.0207 3.0207h-514.43c-1.6735 0-3.0207-1.3472-3.0207-3.0207v-465.16c0-1.6735 1.3472-3.0207 3.0207-3.0207z" fill="#ed1c24" id="unique4"></path><path d="m533.23 859.13-326.83-474.74 574.55-45.67z" fill="#fff" id="unique5" transform="matrix(.51287 -.77986 .74404 .53756 -150.37 691)"></path><path d="m666.81 736.25c-28.755-0.0133-57.51-0.0267-86.266-0.04-10.943-19.805-21.887-39.609-32.83-59.414-58.898 0-117.8-0.00001-176.69 0 43.675-79.491 87.35-158.98 131.03-238.47 54.385 99.637 109.61 198.76 164.77 297.93z" fill="#ed1c24" id="unique6"></path></symbol><symbol id="symbol-fi-adobe-hover"><path d="m206.4 0h438.66c49.277 57.188 98.555 114.38 147.83 171.56v750.87h-586.49v-922.44z" fill="#ed1c24" fill-opacity=".26667" id="unique7"></path><path d="m134.66 0v999.58h730.68c-0.56928-270.53-1.1386-541.06-1.7078-811.59-60.9-62.67-121.8-125.33-182.7-187.99h-546.27zm71.74 73.846h438.66c49.277 52.61 98.555 105.22 147.83 157.83v690.76h-586.49v-848.59z" fill="#000000" id="unique8"></path><path d="m614.43 0.00072173c11.873-0.0025 55.782 0.0025 67.655-0.000004l182.71 174.26c0.0295 13.01 0.0914 41.354 0.12092 54.364h-250.48z" fill="#ed1c24" id="unique9"></path><path d="m242.78 264.4h514.43c1.6735 0 3.0207 1.3472 3.0207 3.0207v465.16c0 1.6735-1.3472 3.0207-3.0207 3.0207h-514.43c-1.6735 0-3.0207-1.3472-3.0207-3.0207v-465.16c0-1.6735 1.3472-3.0207 3.0207-3.0207z" fill="#ed1c24" id="unique10"></path><path d="m533.23 859.13-326.83-474.74 574.55-45.67z" fill="#fff" id="unique11" transform="matrix(.51287 -.77986 .74404 .53756 -150.37 691)"></path><path d="m666.81 736.25c-28.755-0.0133-57.51-0.0267-86.266-0.04-10.943-19.805-21.887-39.609-32.83-59.414-58.898 0-117.8-0.00001-176.69 0 43.675-79.491 87.35-158.98 131.03-238.47 54.385 99.637 109.61 198.76 164.77 297.93z" fill="#ed1c24" id="unique12"></path></symbol><symbol id="symbol-fi-archive"><path d="m206.4 68.455h438.66c49.277 52.952 98.555 105.9 147.83 158.86v695.25h-586.49v-854.11z" fill="#e3d61b" fill-opacity=".25098" id="unique13"></path><path d="m134.66 0v999.71h730.68c-0.57-270.57-1.14-541.13-1.71-811.7-60.9-62.67-121.8-125.34-182.7-188.01h-546.27zm71.74 73.856h438.66c49.277 52.617 98.555 105.23 147.83 157.85v690.86h-586.49v-848.71z" fill="#808080" id="unique14"></path><path d="m614.43 0.00072173c11.873-0.0025 55.782 0.0025 67.655-0.000004l182.71 174.26c0.0295 13.01 0.0914 41.354 0.12092 54.364h-250.48z" fill="#e3d61b" id="unique15"></path><path d="m244.02 377.26 1.03 387.17 181.39-195.23-182.42-191.94zm511.97 0-182.42 191.94 181.39 195.23 1.0293-387.17zm-302.44 144.56c-1.2136 0-2.1895 0.97785-2.1895 2.1914v93.668c0 1.2136 0.9759 2.1894 2.1895 2.1894h92.914c1.2136 0 2.1914-0.97589 2.1914-2.1894v-93.668c0-1.2136-0.97783-2.1914-2.1914-2.1914h-92.914z" fill="#808080" id="unique16"></path></symbol><symbol id="symbol-fi-archive-hover"><path d="m206.4 68.455h438.66c49.277 52.952 98.555 105.9 147.83 158.86v695.25h-586.49v-854.11z" fill="#e3d61b" fill-opacity=".25098" id="unique17"></path><path d="m134.66 0v999.71h730.68c-0.57-270.57-1.14-541.13-1.71-811.7-60.9-62.67-121.8-125.34-182.7-188.01h-546.27zm71.74 73.856h438.66c49.277 52.617 98.555 105.23 147.83 157.85v690.86h-586.49v-848.71z" fill="#000000" id="unique18"></path><path d="m614.43 0.00072173c11.873-0.0025 55.782 0.0025 67.655-0.000004l182.71 174.26c0.0295 13.01 0.0914 41.354 0.12092 54.364h-250.48z" fill="#e3d61b" id="unique19"></path><path d="m244.02 377.26 1.03 387.17 181.39-195.23-182.42-191.94zm511.97 0-182.42 191.94 181.39 195.23 1.0293-387.17zm-302.44 144.56c-1.2136 0-2.1895 0.97785-2.1895 2.1914v93.668c0 1.2136 0.9759 2.1894 2.1895 2.1894h92.914c1.2136 0 2.1914-0.97589 2.1914-2.1894v-93.668c0-1.2136-0.97783-2.1914-2.1914-2.1914h-92.914z" fill="#000000" id="unique20"></path></symbol><symbol id="symbol-fi-audio"><path d="m206.76 69.981h438.66c49.277 52.896 98.555 105.79 147.83 158.69v694.51h-586.49v-853.2z" fill="#8fd6db" fill-opacity=".25098" id="unique21"></path><path d="m134.66 0v1000.4h730.68c-0.57-270.77-1.14-541.52-1.71-812.27-60.9-62.71-121.8-125.42-182.7-188.13h-546.27zm71.74 73.906h438.66c49.277 52.652 98.555 105.3 147.83 157.96v691.32h-586.49v-849.28z" fill="#808080" id="unique22"></path><path d="m614.43 0.00072173c11.873-0.0025 55.782 0.0025 67.655-0.000004l182.71 174.26c0.0295 13.01 0.0914 41.354 0.12092 54.364h-250.48z" fill="#8fd6db" id="unique23"></path><path d="m355.94 359.32c-1.143 124.8-0.30768 249.63-0.5659 374.45-43.026 3.8389-93.308 28.63-104.06 80.622 0.45466 28.044 27.652 40.569 49.052 38.204 37.937-2.465 77.914-22.601 98.678-59.856 10.562-18.382 2.6374-39.519 4.2969-59.609v-185.14l213.84-62.553v176.3c-41.838 3.9162-90.017 26.712-103.26 75.882-4.9843 27.792 22.811 45.048 44.214 42.976 38.595-0.83092 78.8-20.925 101.49-57.038 12.709-19.045 4.5433-42.311 6.0135-63.759 0.0901-128.45-0.96146-256.9-0.0275-385.34-103.23 28.287-206.45 56.574-309.68 84.86zm309.68-15.519v0.35796-0.35796zm-48.436 5.9929v78.507l-213.84 59.127v-78.959c71.28-19.558 142.56-39.117 213.84-58.675z" fill="#808080" id="unique24"></path></symbol><symbol id="symbol-fi-audio-hover"><path d="m206.76 69.981h438.66c49.277 52.896 98.555 105.79 147.83 158.69v694.51h-586.49v-853.2z" fill="#8fd6db" fill-opacity=".25098" id="unique25"></path><path d="m134.66 0v1000.4h730.68c-0.57-270.77-1.14-541.52-1.71-812.27-60.9-62.71-121.8-125.42-182.7-188.13h-546.27zm71.74 73.906h438.66c49.277 52.652 98.555 105.3 147.83 157.96v691.32h-586.49v-849.28z" fill="#000000" id="unique26"></path><path d="m614.43 0.00072173c11.873-0.0025 55.782 0.0025 67.655-0.000004l182.71 174.26c0.0295 13.01 0.0914 41.354 0.12092 54.364h-250.48z" fill="#8fd6db" id="unique27"></path><path d="m355.94 359.32c-1.143 124.8-0.30768 249.63-0.5659 374.45-43.026 3.8389-93.308 28.63-104.06 80.622 0.45466 28.044 27.652 40.569 49.052 38.204 37.937-2.465 77.914-22.601 98.678-59.856 10.562-18.382 2.6374-39.519 4.2969-59.609v-185.14l213.84-62.553v176.3c-41.838 3.9162-90.017 26.712-103.26 75.882-4.9843 27.792 22.811 45.048 44.214 42.976 38.595-0.83092 78.8-20.925 101.49-57.038 12.709-19.045 4.5433-42.311 6.0135-63.759 0.0901-128.45-0.96146-256.9-0.0275-385.34-103.23 28.287-206.45 56.574-309.68 84.86zm309.68-15.519v0.35796-0.35796zm-48.436 5.9929v78.507l-213.84 59.127v-78.959c71.28-19.558 142.56-39.117 213.84-58.675z" fill="#000000" id="unique28"></path></symbol><symbol id="symbol-fi-binary"><path d="m206.4 0h438.66c49.277 57.188 98.555 114.38 147.83 171.56v750.87h-586.49v-922.44z" fill="#808080" fill-opacity=".25098" id="unique29"></path><path d="m428.32 349.8c-29.059 0.00066-53.131 49.886-53.131 111.42-0.0001 61.536 24.072 111.42 53.131 111.42 29.059-0.00055 52.1-49.886 52.1-111.42 0.0001-61.536-23.041-111.42-52.1-111.42zm0 29.919c16.144 0.00048 28.715 50.735 28.715 81.503s-12.571 81.502-28.715 81.503c-16.144-0.00058-29.746-50.735-29.746-81.503s13.603-81.502 29.746-81.503z" fill="#808080" id="unique30"></path><path d="m561.06 349.8c-29.059 0.00066-53.131 49.886-53.131 111.42-0.0001 61.536 24.072 111.42 53.131 111.42 29.059-0.00055 52.1-49.886 52.1-111.42 0.0001-61.536-23.041-111.42-52.1-111.42zm0 29.919c16.144 0.00048 28.715 50.735 28.715 81.503s-12.571 81.502-28.715 81.503c-16.144-0.00058-29.746-50.735-29.746-81.503s13.603-81.502 29.746-81.503z" fill="#808080" id="unique31"></path><path d="m310.02 626.53c-29.059 0.00066-53.131 49.886-53.131 111.42-0.0001 61.536 24.072 111.42 53.131 111.42 29.059-0.00055 52.1-49.886 52.1-111.42 0.0001-61.536-23.041-111.42-52.1-111.42zm0 29.919c16.144 0.00048 28.715 50.735 28.715 81.503s-12.571 81.502-28.715 81.503c-16.144-0.00058-29.746-50.735-29.746-81.503s13.603-81.502 29.746-81.503z" fill="#808080" id="unique32"></path><path d="m689.68 626.53c-29.059 0.00066-53.131 49.886-53.131 111.42-0.0001 61.536 24.072 111.42 53.131 111.42 29.059-0.00055 52.1-49.886 52.1-111.42 0.0001-61.536-23.041-111.42-52.1-111.42zm0 29.919c16.144 0.00048 28.715 50.735 28.715 81.503s-12.571 81.502-28.715 81.503c-16.144-0.00058-29.746-50.735-29.746-81.503s13.603-81.502 29.746-81.503z" fill="#808080" id="unique33"></path><path d="m134.66 0v999.58h730.68c-0.56928-270.53-1.1386-541.06-1.7078-811.59-60.9-62.67-121.8-125.33-182.7-187.99h-546.27zm71.74 73.846h438.66c49.277 52.61 98.555 105.22 147.83 157.83v690.76h-586.49v-848.59z" fill="#808080" id="unique34"></path><path d="m614.43 0.00072173c11.873-0.0025 55.782 0.0025 67.655-0.000004l182.71 174.26c0.0295 13.01 0.0914 41.354 0.12092 54.364h-250.48z" fill="#808080" id="unique35"></path><path d="m257.02 349.8h76.09c1.2136 0 2.1906 0.97699 2.1906 2.1906v219.49c0 1.2136-0.97699 2.1906-2.1906 2.1906h-76.09c-1.2136 0-2.1906-0.97699-2.1906-2.1906v-219.49c0-1.2136 0.97698-2.1906 2.1906-2.1906z" fill="#808080" id="unique36"></path><path d="m655.25 349.8h76.09c1.2136 0 2.1906 0.97699 2.1906 2.1906v219.49c0 1.2136-0.97698 2.1906-2.1906 2.1906h-76.09c-1.2136 0-2.1906-0.97699-2.1906-2.1906v-219.49c0-1.2136 0.97698-2.1906 2.1906-2.1906z" fill="#808080" id="unique37"></path><path d="m398.01 626.53h76.09c1.2136 0 2.1906 0.97699 2.1906 2.1906v219.49c0 1.2136-0.97699 2.1906-2.1906 2.1906h-76.09c-1.2136 0-2.1906-0.97699-2.1906-2.1906v-219.49c0-1.2136 0.97699-2.1906 2.1906-2.1906z" fill="#808080" id="unique38"></path><path d="m524.57 626.53h76.09c1.2136 0 2.1906 0.97699 2.1906 2.1906v219.49c0 1.2136-0.97698 2.1906-2.1906 2.1906h-76.09c-1.2136 0-2.1906-0.97699-2.1906-2.1906v-219.49c0-1.2136 0.97698-2.1906 2.1906-2.1906z" fill="#808080" id="unique39"></path></symbol><symbol id="symbol-fi-binary-hover"><path d="m206.4 0h438.66c49.277 57.188 98.555 114.38 147.83 171.56v750.87h-586.49v-922.44z" fill="#000000" fill-opacity=".25098" id="unique40"></path><path d="m428.32 349.8c-29.059 0.00066-53.131 49.886-53.131 111.42-0.0001 61.536 24.072 111.42 53.131 111.42 29.059-0.00055 52.1-49.886 52.1-111.42 0.0001-61.536-23.041-111.42-52.1-111.42zm0 29.919c16.144 0.00048 28.715 50.735 28.715 81.503s-12.571 81.502-28.715 81.503c-16.144-0.00058-29.746-50.735-29.746-81.503s13.603-81.502 29.746-81.503z" fill="#000000" id="unique41"></path><path d="m561.06 349.8c-29.059 0.00066-53.131 49.886-53.131 111.42-0.0001 61.536 24.072 111.42 53.131 111.42 29.059-0.00055 52.1-49.886 52.1-111.42 0.0001-61.536-23.041-111.42-52.1-111.42zm0 29.919c16.144 0.00048 28.715 50.735 28.715 81.503s-12.571 81.502-28.715 81.503c-16.144-0.00058-29.746-50.735-29.746-81.503s13.603-81.502 29.746-81.503z" fill="#000000" id="unique42"></path><path d="m310.02 626.53c-29.059 0.00066-53.131 49.886-53.131 111.42-0.0001 61.536 24.072 111.42 53.131 111.42 29.059-0.00055 52.1-49.886 52.1-111.42 0.0001-61.536-23.041-111.42-52.1-111.42zm0 29.919c16.144 0.00048 28.715 50.735 28.715 81.503s-12.571 81.502-28.715 81.503c-16.144-0.00058-29.746-50.735-29.746-81.503s13.603-81.502 29.746-81.503z" fill="#000000" id="unique43"></path><path d="m689.68 626.53c-29.059 0.00066-53.131 49.886-53.131 111.42-0.0001 61.536 24.072 111.42 53.131 111.42 29.059-0.00055 52.1-49.886 52.1-111.42 0.0001-61.536-23.041-111.42-52.1-111.42zm0 29.919c16.144 0.00048 28.715 50.735 28.715 81.503s-12.571 81.502-28.715 81.503c-16.144-0.00058-29.746-50.735-29.746-81.503s13.603-81.502 29.746-81.503z" fill="#000000" id="unique44"></path><path d="m134.66 0v999.58h730.68c-0.56928-270.53-1.1386-541.06-1.7078-811.59-60.9-62.67-121.8-125.33-182.7-187.99h-546.27zm71.74 73.846h438.66c49.277 52.61 98.555 105.22 147.83 157.83v690.76h-586.49v-848.59z" fill="#000000" id="unique45"></path><path d="m614.43 0.00072173c11.873-0.0025 55.782 0.0025 67.655-0.000004l182.71 174.26c0.0295 13.01 0.0914 41.354 0.12092 54.364h-250.48z" fill="#000000" id="unique46"></path><path d="m257.02 349.8h76.09c1.2136 0 2.1906 0.97699 2.1906 2.1906v219.49c0 1.2136-0.97699 2.1906-2.1906 2.1906h-76.09c-1.2136 0-2.1906-0.97699-2.1906-2.1906v-219.49c0-1.2136 0.97698-2.1906 2.1906-2.1906z" fill="#000000" id="unique47"></path><path d="m655.25 349.8h76.09c1.2136 0 2.1906 0.97699 2.1906 2.1906v219.49c0 1.2136-0.97698 2.1906-2.1906 2.1906h-76.09c-1.2136 0-2.1906-0.97699-2.1906-2.1906v-219.49c0-1.2136 0.97698-2.1906 2.1906-2.1906z" fill="#000000" id="unique48"></path><path d="m398.01 626.53h76.09c1.2136 0 2.1906 0.97699 2.1906 2.1906v219.49c0 1.2136-0.97699 2.1906-2.1906 2.1906h-76.09c-1.2136 0-2.1906-0.97699-2.1906-2.1906v-219.49c0-1.2136 0.97699-2.1906 2.1906-2.1906z" fill="#000000" id="unique49"></path><path d="m524.57 626.53h76.09c1.2136 0 2.1906 0.97699 2.1906 2.1906v219.49c0 1.2136-0.97698 2.1906-2.1906 2.1906h-76.09c-1.2136 0-2.1906-0.97699-2.1906-2.1906v-219.49c0-1.2136 0.97698-2.1906 2.1906-2.1906z" fill="#000000" id="unique50"></path></symbol><symbol id="symbol-fi-config"><path d="m206.4 0h438.66c49.277 57.188 98.555 114.38 147.83 171.56v750.87h-586.49v-922.44z" fill="#005aff" fill-opacity=".25098" id="unique51"></path><path d="m459.99 271.69c-1.67 0-3.02 1.34-3.02 3.02v46.29a179.74 184.59 0 0 0 -52.51 22.91l-31.11-31.11c-1.19-1.18-3.09-1.18-4.27 0l-57.56 57.56c-1.19 1.18-1.19 3.09 0 4.27l33.08 33.08a179.74 184.59 0 0 0 -19.02 48.57h-45.32c-1.68 0-3.02 1.35-3.02 3.02v81.4c0 1.67 1.34 3.02 3.02 3.02h45.34a179.74 184.59 0 0 0 18.65 48.09l-31.79 31.79c-1.19 1.19-1.19 3.09 0 4.28l56.57 56.57c1.19 1.18 3.09 1.18 4.27 0l29.32-29.32a179.74 184.59 0 0 0 54.35 23.9v40.08c0 1.67 1.35 3.02 3.02 3.02h80.02c1.67 0 3.02-1.35 3.02-3.02v-40.11a179.74 184.59 0 0 0 50.94 -21.92l28.31 28.31c1.18 1.18 3.09 1.18 4.27 0l57.56-57.56c1.18-1.18 1.18-3.09 0-4.27l-29.63-29.63a179.74 184.59 0 0 0 19.94 -50.21h45.32c1.68 0 3.02-1.35 3.02-3.02v-81.4c0-1.67-1.34-3.02-3.02-3.02h-45.34a179.74 184.59 0 0 0 -20.96 -51.97l34.1-34.1c1.19-1.18 1.19-3.09 0-4.27l-56.57-56.57c-1.19-1.19-3.09-1.19-4.27 0l-33.19 33.18a179.74 184.59 0 0 0 -50.48 -21.58v-46.26c0-1.68-1.35-3.02-3.02-3.02h-80.02zm40.01 136.54a89.358 91.773 0 0 1 89.36 91.77 89.358 91.773 0 0 1 -89.36 91.77 89.358 91.773 0 0 1 -89.36 -91.77 89.358 91.773 0 0 1 89.36 -91.77zm0 57.07a35.045 34.698 0 0 0 -35.04 34.7 35.045 34.698 0 0 0 35.04 34.7 35.045 34.698 0 0 0 35.04 -34.7 35.045 34.698 0 0 0 -35.04 -34.7z" fill="#808080" id="unique52"></path><path d="m134.66 0v999.58h730.68c-0.56928-270.53-1.1386-541.06-1.7078-811.59-60.9-62.67-121.8-125.33-182.7-187.99h-546.27zm71.74 73.846h438.66c49.277 52.61 98.555 105.22 147.83 157.83v690.76h-586.49v-848.59z" fill="#808080" id="unique53"></path><path d="m614.43 0.00072173c11.873-0.0025 55.782 0.0025 67.655-0.000004l182.71 174.26c0.0295 13.01 0.0914 41.354 0.12092 54.364h-250.48z" fill="#005aff" id="unique54"></path></symbol><symbol id="symbol-fi-config-hover"><path d="m206.4 0h438.66c49.277 57.188 98.555 114.38 147.83 171.56v750.87h-586.49v-922.44z" fill="#005aff" fill-opacity=".25098" id="unique55"></path><path d="m459.99 271.69c-1.67 0-3.02 1.34-3.02 3.02v46.29a179.74 184.59 0 0 0 -52.51 22.91l-31.11-31.11c-1.19-1.18-3.09-1.18-4.27 0l-57.56 57.56c-1.19 1.18-1.19 3.09 0 4.27l33.08 33.08a179.74 184.59 0 0 0 -19.02 48.57h-45.32c-1.68 0-3.02 1.35-3.02 3.02v81.4c0 1.67 1.34 3.02 3.02 3.02h45.34a179.74 184.59 0 0 0 18.65 48.09l-31.79 31.79c-1.19 1.19-1.19 3.09 0 4.28l56.57 56.57c1.19 1.18 3.09 1.18 4.27 0l29.32-29.32a179.74 184.59 0 0 0 54.35 23.9v40.08c0 1.67 1.35 3.02 3.02 3.02h80.02c1.67 0 3.02-1.35 3.02-3.02v-40.11a179.74 184.59 0 0 0 50.94 -21.92l28.31 28.31c1.18 1.18 3.09 1.18 4.27 0l57.56-57.56c1.18-1.18 1.18-3.09 0-4.27l-29.63-29.63a179.74 184.59 0 0 0 19.94 -50.21h45.32c1.68 0 3.02-1.35 3.02-3.02v-81.4c0-1.67-1.34-3.02-3.02-3.02h-45.34a179.74 184.59 0 0 0 -20.96 -51.97l34.1-34.1c1.19-1.18 1.19-3.09 0-4.27l-56.57-56.57c-1.19-1.19-3.09-1.19-4.27 0l-33.19 33.18a179.74 184.59 0 0 0 -50.48 -21.58v-46.26c0-1.68-1.35-3.02-3.02-3.02h-80.02zm40.01 136.54a89.358 91.773 0 0 1 89.36 91.77 89.358 91.773 0 0 1 -89.36 91.77 89.358 91.773 0 0 1 -89.36 -91.77 89.358 91.773 0 0 1 89.36 -91.77zm0 57.07a35.045 34.698 0 0 0 -35.04 34.7 35.045 34.698 0 0 0 35.04 34.7 35.045 34.698 0 0 0 35.04 -34.7 35.045 34.698 0 0 0 -35.04 -34.7z" fill="#000000" id="unique56"></path><path d="m134.66 0v999.58h730.68c-0.56928-270.53-1.1386-541.06-1.7078-811.59-60.9-62.67-121.8-125.33-182.7-187.99h-546.27zm71.74 73.846h438.66c49.277 52.61 98.555 105.22 147.83 157.83v690.76h-586.49v-848.59z" fill="#000000" id="unique57"></path><path d="m614.43 0.00072173c11.873-0.0025 55.782 0.0025 67.655-0.000004l182.71 174.26c0.0295 13.01 0.0914 41.354 0.12092 54.364h-250.48z" fill="#005aff" id="unique58"></path></symbol><symbol id="symbol-fi-crypt"><path d="m206.4 0h438.66c49.277 57.188 98.555 114.38 147.83 171.56v750.87h-586.49v-922.44z" fill="#2ee62e" fill-opacity=".25098" id="unique59"></path><path d="m500 390.7c-108.08 0-195.7 73.63-195.7 164.45v0.02c-9.75 0-19.5 0.01-29.25 0-1.18-0.02-2.33 0.74-2.78 1.84-0.55 97.64-0.08 195.41-0.24 293.1-2.76 14.65 8.47 28.63 23.7 28.2 130.33 0.58 260.69 0.08 391.04 0.25 15.91 1.5 36.05-3.22 40.96-20.53 0.55-95.83 0.08-191.7 0.24-287.54-1.29-4.64 2.68-12.17-2.12-15.19-10.05-0.02-20.1-0.02-30.15-0.03v-0.12c0-90.82-87.62-164.45-195.7-164.45zm0 64.17c82.78 0 135.32 30.72 135.32 100.28v0.04c-89.05-0.07-178.11-0.02-267.17-0.01v-0.03c0-69.56 49.07-100.28 131.85-100.28z" fill="#808080" id="unique60"></path><path d="m134.66 0v999.58h730.68c-0.56928-270.53-1.1386-541.06-1.7078-811.59-60.9-62.67-121.8-125.33-182.7-187.99h-546.27zm71.74 73.846h438.66c49.277 52.61 98.555 105.22 147.83 157.83v690.76h-586.49v-848.59z" fill="#808080" id="unique61"></path><path d="m614.43 0.00072173c11.873-0.0025 55.782 0.0025 67.655-0.000004l182.71 174.26c0.0295 13.01 0.0914 41.354 0.12092 54.364h-250.48z" fill="#2ee62e" id="unique62"></path></symbol><symbol id="symbol-fi-crypt-hover"><path d="m206.4 0h438.66c49.277 57.188 98.555 114.38 147.83 171.56v750.87h-586.49v-922.44z" fill="#2ee62e" fill-opacity=".25098" id="unique63"></path><path d="m500 390.7c-108.08 0-195.7 73.63-195.7 164.45v0.02c-9.75 0-19.5 0.01-29.25 0-1.18-0.02-2.33 0.74-2.78 1.84-0.55 97.64-0.08 195.41-0.24 293.1-2.76 14.65 8.47 28.63 23.7 28.2 130.33 0.58 260.69 0.08 391.04 0.25 15.91 1.5 36.05-3.22 40.96-20.53 0.55-95.83 0.08-191.7 0.24-287.54-1.29-4.64 2.68-12.17-2.12-15.19-10.05-0.02-20.1-0.02-30.15-0.03v-0.12c0-90.82-87.62-164.45-195.7-164.45zm0 64.17c82.78 0 135.32 30.72 135.32 100.28v0.04c-89.05-0.07-178.11-0.02-267.17-0.01v-0.03c0-69.56 49.07-100.28 131.85-100.28z" fill="#000000" id="unique64"></path><path d="m134.66 0v999.58h730.68c-0.56928-270.53-1.1386-541.06-1.7078-811.59-60.9-62.67-121.8-125.33-182.7-187.99h-546.27zm71.74 73.846h438.66c49.277 52.61 98.555 105.22 147.83 157.83v690.76h-586.49v-848.59z" fill="#000000" id="unique65"></path><path d="m614.43 0.00072173c11.873-0.0025 55.782 0.0025 67.655-0.000004l182.71 174.26c0.0295 13.01 0.0914 41.354 0.12092 54.364h-250.48z" fill="#2ee62e" id="unique66"></path></symbol><symbol id="symbol-fi-db"><path d="m206.4 0h438.66c49.277 57.188 98.555 114.38 147.83 171.56v750.87h-586.49v-922.44z" fill="#ff3ffd" fill-opacity=".25098" id="unique67"></path><path d="m339.32 284.18c-36.74 0.69-57.74 36-56.56 74.35v71.33 71.33 71.33 71.33 71.33 71.33c0.61 47.64 21.41 73.89 56.56 74.35h53.55 53.55 53.55 53.54 53.55 53.55c35.35-0.69 55.22-26.08 56.57-74.35v-71.33-71.33-71.33-71.33-71.33-71.33c1.96-39.36-21.75-74.55-56.57-74.35h-53.55-53.55-53.54-53.55-53.55-53.55zm-3.89 82.93h329.14c1.67 0 3.02 1.34 3.02 3.02v100.83c0 1.67-1.35 3.02-3.02 3.02h-329.14c-1.67 0-3.02-1.35-3.02-3.02v-100.83c0-1.68 1.35-3.02 3.02-3.02zm0 151.97h329.14c1.67 0 3.02 1.35 3.02 3.03v100.82c0 1.68-1.35 3.03-3.02 3.03h-329.14c-1.67 0-3.02-1.35-3.02-3.03v-100.82c0-1.68 1.35-3.03 3.02-3.03zm0 151.98h329.14c1.67 0 3.02 1.35 3.02 3.02v100.83c0 1.68-1.35 3.02-3.02 3.02h-329.14c-1.67 0-3.02-1.34-3.02-3.02v-100.83c0-1.67 1.35-3.02 3.02-3.02z" fill="#808080" id="unique68"></path><path d="m134.66 0v999.58h730.68c-0.56928-270.53-1.1386-541.06-1.7078-811.59-60.9-62.67-121.8-125.33-182.7-187.99h-546.27zm71.74 73.846h438.66c49.277 52.61 98.555 105.22 147.83 157.83v690.76h-586.49v-848.59z" fill="#808080" id="unique69"></path><path d="m614.43 0.00072173c11.873-0.0025 55.782 0.0025 67.655-0.000004l182.71 174.26c0.0295 13.01 0.0914 41.354 0.12092 54.364h-250.48z" fill="#ff3ffd" id="unique70"></path></symbol><symbol id="symbol-fi-db-hover"><path d="m206.4 0h438.66c49.277 57.188 98.555 114.38 147.83 171.56v750.87h-586.49v-922.44z" fill="#ff3ffd" fill-opacity=".25098" id="unique71"></path><path d="m339.32 284.18c-36.74 0.69-57.74 36-56.56 74.35v71.33 71.33 71.33 71.33 71.33 71.33c0.61 47.64 21.41 73.89 56.56 74.35h53.55 53.55 53.55 53.54 53.55 53.55c35.35-0.69 55.22-26.08 56.57-74.35v-71.33-71.33-71.33-71.33-71.33-71.33c1.96-39.36-21.75-74.55-56.57-74.35h-53.55-53.55-53.54-53.55-53.55-53.55zm-3.89 82.93h329.14c1.67 0 3.02 1.34 3.02 3.02v100.83c0 1.67-1.35 3.02-3.02 3.02h-329.14c-1.67 0-3.02-1.35-3.02-3.02v-100.83c0-1.68 1.35-3.02 3.02-3.02zm0 151.97h329.14c1.67 0 3.02 1.35 3.02 3.03v100.82c0 1.68-1.35 3.03-3.02 3.03h-329.14c-1.67 0-3.02-1.35-3.02-3.03v-100.82c0-1.68 1.35-3.03 3.02-3.03zm0 151.98h329.14c1.67 0 3.02 1.35 3.02 3.02v100.83c0 1.68-1.35 3.02-3.02 3.02h-329.14c-1.67 0-3.02-1.34-3.02-3.02v-100.83c0-1.67 1.35-3.02 3.02-3.02z" fill="#000000" id="unique72"></path><path d="m134.66 0v999.58h730.68c-0.56928-270.53-1.1386-541.06-1.7078-811.59-60.9-62.67-121.8-125.33-182.7-187.99h-546.27zm71.74 73.846h438.66c49.277 52.61 98.555 105.22 147.83 157.83v690.76h-586.49v-848.59z" fill="#000000" id="unique73"></path><path d="m614.43 0.00072173c11.873-0.0025 55.782 0.0025 67.655-0.000004l182.71 174.26c0.0295 13.01 0.0914 41.354 0.12092 54.364h-250.48z" fill="#ff3ffd" id="unique74"></path></symbol><symbol id="symbol-fi-ebook"><path d="m206.4 0h438.66c49.277 57.188 98.555 114.38 147.83 171.56v750.87h-586.49v-922.44z" fill="#546cff" fill-opacity=".25098" id="unique75"></path><path d="m258.85 291.59v552.14c0.21658 22.589 15.317 42.292 32.788 42.458h416.73c18.349 0.23285 33.029-18.584 32.788-42.458v-552.14c0.0483-24.762-13.631-42.805-32.788-42.458h-416.73c-16.961 0.11413-33.055 18.991-32.788 42.458zm71.377 30.407h339.55c1.6734 0 3.0215 1.348 3.0215 3.0215v445.03c0 1.6734-1.348 3.0215-3.0215 3.0215h-339.55c-1.6734 0-3.0215-1.348-3.0215-3.0215v-445.03c0-1.6734 1.348-3.0215 3.0215-3.0215zm35.223 59.682c-1.1953 0-2.1582 0.96288-2.1582 2.1582v42.18c0 1.1953 0.96289 2.1582 2.1582 2.1582h269.11c1.1953 0 2.1582-0.96287 2.1582-2.1582v-42.18c0-1.1953-0.96289-2.1582-2.1582-2.1582zm0 97.732c-1.1953 0-2.1582 0.96288-2.1582 2.1582v42.18c0 1.1953 0.96289 2.1582 2.1582 2.1582h269.11c1.1953 0 2.1582-0.96288 2.1582-2.1582v-42.18c0-1.1953-0.96289-2.1582-2.1582-2.1582zm0 97.732c-1.1953 0-2.1582 0.96288-2.1582 2.1582v42.18c0 1.1953 0.96289 2.1582 2.1582 2.1582h269.11c1.1953 0 2.1582-0.96288 2.1582-2.1582v-42.18c0-1.1953-0.96289-2.1582-2.1582-2.1582zm0 97.734c-1.1953 0-2.1582 0.96288-2.1582 2.1582v42.18c0 1.1953 0.96289 2.1582 2.1582 2.1582h269.11c1.1953 0 2.1582-0.96288 2.1582-2.1582v-42.18c0-1.1953-0.96289-2.1582-2.1582-2.1582zm102.71 132.2h63.691c1.1953 0 2.1582 0.96289 2.1582 2.1582v26.912c0 1.1953-0.96289 2.1582-2.1582 2.1582h-63.691c-1.1953 0-2.1582-0.96288-2.1582-2.1582v-26.912c0-1.1953 0.96289-2.1582 2.1582-2.1582z" fill="#808080" id="unique76"></path><path d="m134.66 0v999.58h730.68c-0.56928-270.53-1.1386-541.06-1.7078-811.59-60.9-62.67-121.8-125.33-182.7-187.99h-546.27zm71.74 73.846h438.66c49.277 52.61 98.555 105.22 147.83 157.83v690.76h-586.49v-848.59z" fill="#808080" id="unique77"></path><path d="m614.43 0.00072173c11.873-0.0025 55.782 0.0025 67.655-0.000004l182.71 174.26c0.0295 13.01 0.0914 41.354 0.12092 54.364h-250.48z" fill="#546cff" id="unique78"></path></symbol><symbol id="symbol-fi-ebook-hover"><path d="m206.4 0h438.66c49.277 57.188 98.555 114.38 147.83 171.56v750.87h-586.49v-922.44z" fill="#546cff" fill-opacity=".25098" id="unique79"></path><path d="m258.85 291.59v552.14c0.21658 22.589 15.317 42.292 32.788 42.458h416.73c18.349 0.23285 33.029-18.584 32.788-42.458v-552.14c0.0483-24.762-13.631-42.805-32.788-42.458h-416.73c-16.961 0.11413-33.055 18.991-32.788 42.458zm71.377 30.407h339.55c1.6734 0 3.0215 1.348 3.0215 3.0215v445.03c0 1.6734-1.348 3.0215-3.0215 3.0215h-339.55c-1.6734 0-3.0215-1.348-3.0215-3.0215v-445.03c0-1.6734 1.348-3.0215 3.0215-3.0215zm35.223 59.682c-1.1953 0-2.1582 0.96288-2.1582 2.1582v42.18c0 1.1953 0.96289 2.1582 2.1582 2.1582h269.11c1.1953 0 2.1582-0.96287 2.1582-2.1582v-42.18c0-1.1953-0.96289-2.1582-2.1582-2.1582zm0 97.732c-1.1953 0-2.1582 0.96288-2.1582 2.1582v42.18c0 1.1953 0.96289 2.1582 2.1582 2.1582h269.11c1.1953 0 2.1582-0.96288 2.1582-2.1582v-42.18c0-1.1953-0.96289-2.1582-2.1582-2.1582zm0 97.732c-1.1953 0-2.1582 0.96288-2.1582 2.1582v42.18c0 1.1953 0.96289 2.1582 2.1582 2.1582h269.11c1.1953 0 2.1582-0.96288 2.1582-2.1582v-42.18c0-1.1953-0.96289-2.1582-2.1582-2.1582zm0 97.734c-1.1953 0-2.1582 0.96288-2.1582 2.1582v42.18c0 1.1953 0.96289 2.1582 2.1582 2.1582h269.11c1.1953 0 2.1582-0.96288 2.1582-2.1582v-42.18c0-1.1953-0.96289-2.1582-2.1582-2.1582zm102.71 132.2h63.691c1.1953 0 2.1582 0.96289 2.1582 2.1582v26.912c0 1.1953-0.96289 2.1582-2.1582 2.1582h-63.691c-1.1953 0-2.1582-0.96288-2.1582-2.1582v-26.912c0-1.1953 0.96289-2.1582 2.1582-2.1582z" fill="#000000" id="unique80"></path><path d="m134.66 0v999.58h730.68c-0.56928-270.53-1.1386-541.06-1.7078-811.59-60.9-62.67-121.8-125.33-182.7-187.99h-546.27zm71.74 73.846h438.66c49.277 52.61 98.555 105.22 147.83 157.83v690.76h-586.49v-848.59z" fill="#000000" id="unique81"></path><path d="m614.43 0.00072173c11.873-0.0025 55.782 0.0025 67.655-0.000004l182.71 174.26c0.0295 13.01 0.0914 41.354 0.12092 54.364h-250.48z" fill="#546cff" id="unique82"></path></symbol><symbol id="symbol-fi-folder"><path d="m430.36 160.65 527.58 0.69396 0.8414 0.16904 0.68566 0.46153 0.46152 0.68565 0.16904 0.8414v673.69c0 1.1953-0.9623 2.1576-2.1576 2.1576h-915.88l-0.8414-0.16904-0.68565-0.46153-0.46153-0.68565-0.16904-0.8414v-520.37h390.46z" fill="#808080" id="unique83"></path><path d="m41.657 103.06h341.15c0.97172 0 1.754 0.78229 1.754 1.754v155.58c0 0.97172-0.78229 1.754-1.754 1.754h-341.15c-0.97172 0-1.754-0.78229-1.754-1.754v-155.58c0-0.97172 0.78229-1.754 1.754-1.754z" fill="#fdd1a5" id="unique84"></path><path d="m296.18 162.24h38.693c0.97172 0 1.754 0.78228 1.754 1.754v37.224c0 0.97172-0.78229 1.754-1.754 1.754h-38.693c-0.97172 0-1.754-0.78229-1.754-1.754v-37.224c0-0.97173 0.78229-1.754 1.754-1.754z" fill="#e3b61b" id="unique85"></path></symbol><symbol id="symbol-fi-folder-hover"><path d="m430.36 160.65 527.58 0.69396 0.8414 0.16904 0.68566 0.46153 0.46152 0.68565 0.16904 0.8414v673.69c0 1.1953-0.9623 2.1576-2.1576 2.1576h-915.88l-0.8414-0.16904-0.68565-0.46153-0.46153-0.68565-0.16904-0.8414v-520.37h390.46z" fill="#000000" id="unique86"></path><path d="m41.657 103.06h341.15c0.97172 0 1.754 0.78229 1.754 1.754v155.58c0 0.97172-0.78229 1.754-1.754 1.754h-341.15c-0.97172 0-1.754-0.78229-1.754-1.754v-155.58c0-0.97172 0.78229-1.754 1.754-1.754z" fill="#fdd1a5" id="unique87"></path><path d="m296.18 162.24h38.693c0.97172 0 1.754 0.78228 1.754 1.754v37.224c0 0.97172-0.78229 1.754-1.754 1.754h-38.693c-0.97172 0-1.754-0.78229-1.754-1.754v-37.224c0-0.97173 0.78229-1.754 1.754-1.754z" fill="#e3b61b" id="unique88"></path></symbol><symbol id="symbol-fi-folderup"><path d="m430.36 160.65v156.17h-390.46c0.11334 173.73-0.22665 347.51 0.16992 521.21 25.513 3.1165 53.351 0.40558 79.74 1.3164h419.23v-277.29l-99.236 0.40429c85.877-110.16 171.75-220.33 257.63-330.49 87.554 109.46 175.11 218.91 262.66 328.37-0.42146-132.74 0.84233-265.89-0.63086-398.37-138.17-1.6493-277.01-0.57337-415.44-1.1748-37.888-0.0498-75.776-0.0996-113.66-0.14938zm529.74 399.69l-92.291 0.37695c0.0266 92.876-0.028 185.75-0.0625 278.63 30.531-0.43063 61.401 0.85474 91.723-0.63086 1.4716-92.517 0.21053-185.66 0.63086-278.38z" fill="#808080" id="unique89"></path><path d="m41.657 103.06h341.15c0.97172 0 1.754 0.78229 1.754 1.754v155.58c0 0.97172-0.78229 1.754-1.754 1.754h-341.15c-0.97172 0-1.754-0.78229-1.754-1.754v-155.58c0-0.97172 0.78229-1.754 1.754-1.754z" fill="#fdd1a5" id="unique90"></path><path d="m296.18 162.24h38.693c0.97172 0 1.754 0.78228 1.754 1.754v37.224c0 0.97172-0.78229 1.754-1.754 1.754h-38.693c-0.97172 0-1.754-0.78229-1.754-1.754v-37.224c0-0.97173 0.78229-1.754 1.754-1.754z" fill="#e3b61b" id="unique91"></path><path d="m699.06 303.71-171.76 220.34 66.161-0.27033v381.66c7.4435 3.0769 17.97 0.44141 26.586 1.3194 64.046-0.25786 128.3 0.51533 192.22-0.38565 0.9-90.465 0.12856-174.15 0.3857-264.75v-118.74l61.53-0.25189z" fill="#808080" id="unique92"></path></symbol><symbol id="symbol-fi-folderup-hover"><path d="m430.36 160.65v156.17h-390.46c0.11334 173.73-0.22665 347.51 0.16992 521.21 25.513 3.1165 53.351 0.40558 79.74 1.3164h419.23v-277.29l-99.236 0.40429c85.877-110.16 171.75-220.33 257.63-330.49 87.554 109.46 175.11 218.91 262.66 328.37-0.42146-132.74 0.84233-265.89-0.63086-398.37-138.17-1.6493-277.01-0.57337-415.44-1.1748-37.888-0.0498-75.776-0.0996-113.66-0.14938zm529.74 399.69l-92.291 0.37695c0.0266 92.876-0.028 185.75-0.0625 278.63 30.531-0.43063 61.401 0.85474 91.723-0.63086 1.4716-92.517 0.21053-185.66 0.63086-278.38z" fill="#000000" id="unique93"></path><path d="m41.657 103.06h341.15c0.97172 0 1.754 0.78229 1.754 1.754v155.58c0 0.97172-0.78229 1.754-1.754 1.754h-341.15c-0.97172 0-1.754-0.78229-1.754-1.754v-155.58c0-0.97172 0.78229-1.754 1.754-1.754z" fill="#fdd1a5" id="unique94"></path><path d="m296.18 162.24h38.693c0.97172 0 1.754 0.78228 1.754 1.754v37.224c0 0.97172-0.78229 1.754-1.754 1.754h-38.693c-0.97172 0-1.754-0.78229-1.754-1.754v-37.224c0-0.97173 0.78229-1.754 1.754-1.754z" fill="#e3b61b" id="unique95"></path><path d="m699.06 303.71-171.76 220.34 66.161-0.27033v381.66c7.4435 3.0769 17.97 0.44141 26.586 1.3194 64.046-0.25786 128.3 0.51533 192.22-0.38565 0.9-90.465 0.12856-174.15 0.3857-264.75v-118.74l61.53-0.25189z" fill="#000000" id="unique96"></path></symbol><symbol id="symbol-fi-font"><path d="m206.4 0h438.66c49.277 57.188 98.555 114.38 147.83 171.56v750.87h-586.49v-922.44z" fill="#808080" fill-opacity=".25098" id="unique97"></path><path d="m278.8 845.76 6.176-40.721h55.584l72.812-491.72h-55.584l5.851-41.105h357.56l-18.853 127.54h-36.081l12.027-80.289h-206.73l-28.28 192.08h149.2l10.727-71.838h35.756l-27.955 190.54h-36.081l10.727-71.838h-149.2l-36.731 246.63h69.887l-5.851 40.721h-184.96z" fill="#808080" id="unique98"></path><path d="m134.66 0v999.58h730.68c-0.56928-270.53-1.1386-541.06-1.7078-811.59-60.9-62.67-121.8-125.33-182.7-187.99h-546.27zm71.74 73.846h438.66c49.277 52.61 98.555 105.22 147.83 157.83v690.76h-586.49v-848.59z" fill="#808080" id="unique99"></path><path d="m614.43 0.00072173c11.873-0.0025 55.782 0.0025 67.655-0.000004l182.71 174.26c0.0295 13.01 0.0914 41.354 0.12092 54.364h-250.48z" fill="#808080" id="unique100"></path></symbol><symbol id="symbol-fi-font-hover"><path d="m206.4 0h438.66c49.277 57.188 98.555 114.38 147.83 171.56v750.87h-586.49v-922.44z" fill="#000000" fill-opacity=".25098" id="unique101"></path><path d="m278.8 845.76 6.176-40.721h55.584l72.812-491.72h-55.584l5.851-41.105h357.56l-18.853 127.54h-36.081l12.027-80.289h-206.73l-28.28 192.08h149.2l10.727-71.838h35.756l-27.955 190.54h-36.081l10.727-71.838h-149.2l-36.731 246.63h69.887l-5.851 40.721h-184.96z" fill="#000000" id="unique102"></path><path d="m134.66 0v999.58h730.68c-0.56928-270.53-1.1386-541.06-1.7078-811.59-60.9-62.67-121.8-125.33-182.7-187.99h-546.27zm71.74 73.846h438.66c49.277 52.61 98.555 105.22 147.83 157.83v690.76h-586.49v-848.59z" fill="#000000" id="unique103"></path><path d="m614.43 0.00072173c11.873-0.0025 55.782 0.0025 67.655-0.000004l182.71 174.26c0.0295 13.01 0.0914 41.354 0.12092 54.364h-250.48z" fill="#000000" id="unique104"></path></symbol><symbol id="symbol-fi-gis"><path d="m206.4 0h438.66c49.277 57.188 98.555 114.38 147.83 171.56v750.87h-586.49v-922.44z" fill-opacity=".25098" id="unique105"></path><path d="m500.13 207.51c-78.828-1.3265-150.47 59.715-167.69 135.6-10.932 49.656-4.127 101.69 8.1551 150.46 53.178 99.65 106.36 199.3 159.53 298.95 53.18-99.65 106.36-199.3 159.54-298.95 11.61-60.16 24.65-125.89-3.47-183.66-27.06-60.26-89.36-103.17-156.07-102.4zm0 102.76c44.053-1.0843 77.913 45.734 68.08 87.569-4.9589 21.086-19.615 38.098-29.349 57.162-12.911 22.189-25.821 44.378-38.732 66.567-21.584-37.869-44.578-75.068-65.273-113.36-16.738-44.514 16.116-98.564 65.273-97.94z" fill="#808080" id="unique106"></path><path d="m134.66 0v999.58h730.68c-0.56928-270.53-1.1386-541.06-1.7078-811.59-60.9-62.67-121.8-125.33-182.7-187.99h-546.27zm71.74 73.846h438.66c49.277 52.61 98.555 105.22 147.83 157.83v690.76h-586.49v-848.59z" fill="#808080" id="unique107"></path><path d="m614.43 0.00072173c11.873-0.0025 55.782 0.0025 67.655-0.000004l182.71 174.26c0.0295 13.01 0.0914 41.354 0.12092 54.364h-250.48z" id="unique108"></path></symbol><symbol id="symbol-fi-gis-hover"><path d="m206.4 0h438.66c49.277 57.188 98.555 114.38 147.83 171.56v750.87h-586.49v-922.44z" fill-opacity=".25098" id="unique109"></path><path d="m500.13 207.51c-78.828-1.3265-150.47 59.715-167.69 135.6-10.932 49.656-4.127 101.69 8.1551 150.46 53.178 99.65 106.36 199.3 159.53 298.95 53.18-99.65 106.36-199.3 159.54-298.95 11.61-60.16 24.65-125.89-3.47-183.66-27.06-60.26-89.36-103.17-156.07-102.4zm0 102.76c44.053-1.0843 77.913 45.734 68.08 87.569-4.9589 21.086-19.615 38.098-29.349 57.162-12.911 22.189-25.821 44.378-38.732 66.567-21.584-37.869-44.578-75.068-65.273-113.36-16.738-44.514 16.116-98.564 65.273-97.94z" fill="#000000" id="unique110"></path><path d="m134.66 0v999.58h730.68c-0.56928-270.53-1.1386-541.06-1.7078-811.59-60.9-62.67-121.8-125.33-182.7-187.99h-546.27zm71.74 73.846h438.66c49.277 52.61 98.555 105.22 147.83 157.83v690.76h-586.49v-848.59z" fill="#000000" id="unique111"></path><path d="m614.43 0.00072173c11.873-0.0025 55.782 0.0025 67.655-0.000004l182.71 174.26c0.0295 13.01 0.0914 41.354 0.12092 54.364h-250.48z" id="unique112"></path></symbol><symbol id="symbol-fi-image"><path d="m206.4 0h438.66c49.277 57.188 98.555 114.38 147.83 171.56v750.87h-586.49v-922.44z" fill="#ff6eb9" fill-opacity=".25098" id="unique113"></path><path d="m134.66 0v999.58h730.68c-0.56928-270.53-1.1386-541.06-1.7078-811.59-60.9-62.67-121.8-125.33-182.7-187.99h-546.27zm71.74 73.846h438.66c49.277 52.61 98.555 105.22 147.83 157.83v690.76h-586.49v-848.59z" fill="#808080" id="unique114"></path><path d="m614.43 0.00072173c11.873-0.0025 55.782 0.0025 67.655-0.000004l182.71 174.26c0.0295 13.01 0.0914 41.354 0.12092 54.364h-250.48z" fill="#ff6eb9" id="unique115"></path><path d="m276.58 306.55h446.84c1.2136 0 2.1906 0.97699 2.1906 2.1906v504.44c0 1.2136-0.97699 2.1906-2.1906 2.1906h-446.84c-1.2136 0-2.1906-0.97698-2.1906-2.1906v-504.44c0-1.2136 0.97699-2.1906 2.1906-2.1906z" fill="#808080" id="unique116"></path><path d="m306.64 332.4h386.73c1.0903 0 1.968 0.87773 1.968 1.968v453.19c0 1.0903-0.87773 1.968-1.968 1.968h-386.73c-1.0903 0-1.968-0.87773-1.968-1.968v-453.19c0-1.0903 0.87773-1.968 1.968-1.968z" fill="#fff" id="unique117"></path><path d="m339.43 370.06h316.7c0.95188 0 1.7182 0.76632 1.7182 1.7182v308.95c0 0.95188-0.76631 1.7182-1.7182 1.7182h-316.7c-0.95187 0-1.7182-0.76631-1.7182-1.7182v-308.95c0-0.95187 0.76632-1.7182 1.7182-1.7182z" fill="#808080" id="unique118"></path></symbol><symbol id="symbol-fi-image-hover"><path d="m206.4 0h438.66c49.277 57.188 98.555 114.38 147.83 171.56v750.87h-586.49v-922.44z" fill="#ff6eb9" fill-opacity=".25098" id="unique119"></path><path d="m134.66 0v999.58h730.68c-0.56928-270.53-1.1386-541.06-1.7078-811.59-60.9-62.67-121.8-125.33-182.7-187.99h-546.27zm71.74 73.846h438.66c49.277 52.61 98.555 105.22 147.83 157.83v690.76h-586.49v-848.59z" fill="#000000" id="unique120"></path><path d="m614.43 0.00072173c11.873-0.0025 55.782 0.0025 67.655-0.000004l182.71 174.26c0.0295 13.01 0.0914 41.354 0.12092 54.364h-250.48z" fill="#ff6eb9" id="unique121"></path><path d="m276.58 306.55h446.84c1.2136 0 2.1906 0.97699 2.1906 2.1906v504.44c0 1.2136-0.97699 2.1906-2.1906 2.1906h-446.84c-1.2136 0-2.1906-0.97698-2.1906-2.1906v-504.44c0-1.2136 0.97699-2.1906 2.1906-2.1906z" fill="#000000" id="unique122"></path><path d="m306.64 332.4h386.73c1.0903 0 1.968 0.87773 1.968 1.968v453.19c0 1.0903-0.87773 1.968-1.968 1.968h-386.73c-1.0903 0-1.968-0.87773-1.968-1.968v-453.19c0-1.0903 0.87773-1.968 1.968-1.968z" fill="#fff" id="unique123"></path><path d="m339.43 370.06h316.7c0.95188 0 1.7182 0.76632 1.7182 1.7182v308.95c0 0.95188-0.76631 1.7182-1.7182 1.7182h-316.7c-0.95187 0-1.7182-0.76631-1.7182-1.7182v-308.95c0-0.95187 0.76632-1.7182 1.7182-1.7182z" fill="#000000" id="unique124"></path></symbol><symbol id="symbol-fi-markup"><path d="m206.4 0h438.66c49.277 57.188 98.555 114.38 147.83 171.56v750.87h-586.49v-922.44z" fill="#b797ff" fill-opacity=".25098" id="unique125"></path><path d="m436.96 354.78-186.88 242.6 185.1 249.65 0.31835-88.252-123.4-166.44 124.58-161.73 0.27344-75.832z" fill="#808080" id="unique126"></path><path d="m558.74 354.78 186.88 242.6-185.1 249.65-0.31835-88.252 123.4-166.44-124.58-161.73-0.27344-75.832z" fill="#808080" id="unique127"></path><path d="m134.66 0v999.58h730.68c-0.56928-270.53-1.1386-541.06-1.7078-811.59-60.9-62.67-121.8-125.33-182.7-187.99h-546.27zm71.74 73.846h438.66c49.277 52.61 98.555 105.22 147.83 157.83v690.76h-586.49v-848.59z" fill="#808080" id="unique128"></path><path d="m614.43 0.00072173c11.873-0.0025 55.782 0.0025 67.655-0.000004l182.71 174.26c0.0295 13.01 0.0914 41.354 0.12092 54.364h-250.48z" fill="#b797ff" id="unique129"></path></symbol><symbol id="symbol-fi-markup-hover"><path d="m206.4 0h438.66c49.277 57.188 98.555 114.38 147.83 171.56v750.87h-586.49v-922.44z" fill="#b797ff" fill-opacity=".25098" id="unique130"></path><path d="m436.96 354.78-186.88 242.6 185.1 249.65 0.31835-88.252-123.4-166.44 124.58-161.73 0.27344-75.832z" fill="#000000" id="unique131"></path><path d="m558.74 354.78 186.88 242.6-185.1 249.65-0.31835-88.252 123.4-166.44-124.58-161.73-0.27344-75.832z" fill="#000000" id="unique132"></path><path d="m134.66 0v999.58h730.68c-0.56928-270.53-1.1386-541.06-1.7078-811.59-60.9-62.67-121.8-125.33-182.7-187.99h-546.27zm71.74 73.846h438.66c49.277 52.61 98.555 105.22 147.83 157.83v690.76h-586.49v-848.59z" fill="#000000" id="unique133"></path><path d="m614.43 0.00072173c11.873-0.0025 55.782 0.0025 67.655-0.000004l182.71 174.26c0.0295 13.01 0.0914 41.354 0.12092 54.364h-250.48z" fill="#b797ff" id="unique134"></path></symbol><symbol id="symbol-fi-officep"><path d="m206.4 0h438.66c49.277 57.188 98.555 114.38 147.83 171.56v750.87h-586.49v-922.44z" fill="#ff9100" fill-opacity=".25098" id="unique135"></path><path d="m239.54 301.87c-1.22 0-2.2 0.99-2.2 2.21v490.38c0 1.22 0.98 2.21 2.2 2.21h518.83c1.23 0 2.21-0.99 2.21-2.21v-490.38c0-1.22-0.98-2.21-2.21-2.21h-518.83zm47.19 48.58h424.45c1.23 0 2.21 0.99 2.21 2.21v393.22c0 1.23-0.98 2.21-2.21 2.21h-424.45c-1.22 0-2.2-0.98-2.2-2.21v-393.22c0-1.22 0.98-2.21 2.2-2.21zm317.87 45.8c-2.01 0-3.63 1.62-3.63 3.63v286.45h-61.76v-212.36c0-1.54-1.23-2.77-2.77-2.77h-74.27c-1.53 0-2.77 1.23-2.77 2.77v212.36h-61.76v-164.34c0-1.23-0.98-2.21-2.21-2.21h-75.39c-1.22 0-2.21 0.98-2.21 2.21v188.5c0 1.22 0.99 2.21 2.21 2.21h75.39 283.14c1.22 0 2.21-0.99 2.21-2.21v-21.95-288.66c0-2.01-1.62-3.63-3.63-3.63h-72.55z" fill="#808080" id="unique136"></path><path d="m134.66 0v999.58h730.68c-0.56928-270.53-1.1386-541.06-1.7078-811.59-60.9-62.67-121.8-125.33-182.7-187.99h-546.27zm71.74 73.846h438.66c49.277 52.61 98.555 105.22 147.83 157.83v690.76h-586.49v-848.59z" fill="#808080" id="unique137"></path><path d="m614.43 0.00072173c11.873-0.0025 55.782 0.0025 67.655-0.000004l182.71 174.26c0.0295 13.01 0.0914 41.354 0.12092 54.364h-250.48z" fill="#ff9100" id="unique138"></path></symbol><symbol id="symbol-fi-officep-hover"><path d="m206.4 0h438.66c49.277 57.188 98.555 114.38 147.83 171.56v750.87h-586.49v-922.44z" fill="#ff9100" fill-opacity=".25098" id="unique139"></path><path d="m239.54 301.87c-1.22 0-2.2 0.99-2.2 2.21v490.38c0 1.22 0.98 2.21 2.2 2.21h518.83c1.23 0 2.21-0.99 2.21-2.21v-490.38c0-1.22-0.98-2.21-2.21-2.21h-518.83zm47.19 48.58h424.45c1.23 0 2.21 0.99 2.21 2.21v393.22c0 1.23-0.98 2.21-2.21 2.21h-424.45c-1.22 0-2.2-0.98-2.2-2.21v-393.22c0-1.22 0.98-2.21 2.2-2.21zm317.87 45.8c-2.01 0-3.63 1.62-3.63 3.63v286.45h-61.76v-212.36c0-1.54-1.23-2.77-2.77-2.77h-74.27c-1.53 0-2.77 1.23-2.77 2.77v212.36h-61.76v-164.34c0-1.23-0.98-2.21-2.21-2.21h-75.39c-1.22 0-2.21 0.98-2.21 2.21v188.5c0 1.22 0.99 2.21 2.21 2.21h75.39 283.14c1.22 0 2.21-0.99 2.21-2.21v-21.95-288.66c0-2.01-1.62-3.63-3.63-3.63h-72.55z" fill="#000000" id="unique140"></path><path d="m134.66 0v999.58h730.68c-0.56928-270.53-1.1386-541.06-1.7078-811.59-60.9-62.67-121.8-125.33-182.7-187.99h-546.27zm71.74 73.846h438.66c49.277 52.61 98.555 105.22 147.83 157.83v690.76h-586.49v-848.59z" fill="#000000" id="unique141"></path><path d="m614.43 0.00072173c11.873-0.0025 55.782 0.0025 67.655-0.000004l182.71 174.26c0.0295 13.01 0.0914 41.354 0.12092 54.364h-250.48z" fill="#ff9100" id="unique142"></path></symbol><symbol id="symbol-fi-offices"><path d="m206.4 0h438.66c49.277 57.188 98.555 114.38 147.83 171.56v750.87h-586.49v-922.44z" fill="#2ee62e" fill-opacity=".25098" id="unique143"></path><path d="m243.88 269.26c-0.94 0-1.69 0.75-1.69 1.68v0.31 43.2 61.59 43.2 61.94 43.2 60.89 43.2 62.94c0 0.93 0.75 1.68 1.69 1.68h43.82c0.93 0 1.68-0.75 1.68-1.68v-60.95h87.44v60.95c0 0.93 0.75 1.68 1.69 1.68h43.82c0.93 0 1.68-0.75 1.68-1.68v-60.95h111.03v60.95c0 0.93 0.76 1.68 1.69 1.68h43.82c0.93 0 1.68-0.75 1.68-1.68v-60.95h114.51v60.95c0 0.93 0.75 1.68 1.68 1.68h43.82c0.94 0 1.69-0.75 1.69-1.68v-62.94-43.2-60.89-43.2-61.94-43.2-61.59-43.2-0.31c0-0.93-0.75-1.68-1.69-1.68h-0.31-454.23-43.51-0.31zm45.5 47.19h87.44v57.59h-87.44v-57.59zm134.63 0h111.03v57.59h-111.03v-57.59zm158.22 0h114.51v57.59h-114.51v-57.59zm-292.85 104.78h87.44v57.95h-87.44v-57.95zm134.63 0h111.03v57.95h-111.03v-57.95zm158.22 0h114.51v57.95h-114.51v-57.95zm-292.85 105.14h87.44v56.91h-87.44v-56.91zm134.63 0h111.03v56.91h-111.03v-56.91zm158.22 0h114.51v56.91h-114.51v-56.91z" fill="#808080" id="unique144"></path><path d="m134.66 0v999.58h730.68c-0.56928-270.53-1.1386-541.06-1.7078-811.59-60.9-62.67-121.8-125.33-182.7-187.99h-546.27zm71.74 73.846h438.66c49.277 52.61 98.555 105.22 147.83 157.83v690.76h-586.49v-848.59z" fill="#808080" id="unique145"></path><path d="m614.43 0.00072173c11.873-0.0025 55.782 0.0025 67.655-0.000004l182.71 174.26c0.0295 13.01 0.0914 41.354 0.12092 54.364h-250.48z" fill="#2ee62e" id="unique146"></path></symbol><symbol id="symbol-fi-offices-hover"><path d="m206.4 0h438.66c49.277 57.188 98.555 114.38 147.83 171.56v750.87h-586.49v-922.44z" fill="#2ee62e" fill-opacity=".25098" id="unique147"></path><path d="m243.88 269.26c-0.94 0-1.69 0.75-1.69 1.68v0.31 43.2 61.59 43.2 61.94 43.2 60.89 43.2 62.94c0 0.93 0.75 1.68 1.69 1.68h43.82c0.93 0 1.68-0.75 1.68-1.68v-60.95h87.44v60.95c0 0.93 0.75 1.68 1.69 1.68h43.82c0.93 0 1.68-0.75 1.68-1.68v-60.95h111.03v60.95c0 0.93 0.76 1.68 1.69 1.68h43.82c0.93 0 1.68-0.75 1.68-1.68v-60.95h114.51v60.95c0 0.93 0.75 1.68 1.68 1.68h43.82c0.94 0 1.69-0.75 1.69-1.68v-62.94-43.2-60.89-43.2-61.94-43.2-61.59-43.2-0.31c0-0.93-0.75-1.68-1.69-1.68h-0.31-454.23-43.51-0.31zm45.5 47.19h87.44v57.59h-87.44v-57.59zm134.63 0h111.03v57.59h-111.03v-57.59zm158.22 0h114.51v57.59h-114.51v-57.59zm-292.85 104.78h87.44v57.95h-87.44v-57.95zm134.63 0h111.03v57.95h-111.03v-57.95zm158.22 0h114.51v57.95h-114.51v-57.95zm-292.85 105.14h87.44v56.91h-87.44v-56.91zm134.63 0h111.03v56.91h-111.03v-56.91zm158.22 0h114.51v56.91h-114.51v-56.91z" fill="#000000" id="unique148"></path><path d="m134.66 0v999.58h730.68c-0.56928-270.53-1.1386-541.06-1.7078-811.59-60.9-62.67-121.8-125.33-182.7-187.99h-546.27zm71.74 73.846h438.66c49.277 52.61 98.555 105.22 147.83 157.83v690.76h-586.49v-848.59z" fill="#000000" id="unique149"></path><path d="m614.43 0.00072173c11.873-0.0025 55.782 0.0025 67.655-0.000004l182.71 174.26c0.0295 13.01 0.0914 41.354 0.12092 54.364h-250.48z" fill="#2ee62e" id="unique150"></path></symbol><symbol id="symbol-fi-officew"><path d="m206.4 0h438.66c49.277 57.188 98.555 114.38 147.83 171.56v750.87h-586.49v-922.44z" fill="#5797ff" fill-opacity=".25098" id="unique151"></path><path d="m531.97 191.2-2.0481 9.0118q-3.4136 0.13655-8.3291 1.6385-4.9155 1.3654-9.1483 3.6866-5.5982 3.1405-9.4214 7.2367-3.8232 4.0963-7.6464 11.196-14.064 26.08-38.232 71.412-24.031 45.332-49.428 92.029h-12.152l-15.839-149.38-84.793 149.38h-12.016q-3.1405-62.127-5.3251-104.45-2.1847-42.465-3.277-64.311-0.27308-4.3694-1.6385-7.3733t-5.3252-6.1444q-2.8674-2.3212-7.3733-3.4136-4.3694-1.2289-7.9194-1.502l2.0481-9.0118h77.966l-2.0481 9.0118q-16.249 0.9558-21.847 3.5501-5.4617 2.4578-5.4617 6.0079 0 2.7308 0.13654 8.056 0.13655 5.3251 0.40963 10.923 0.40963 9.4214 1.9116 38.095 1.6385 28.537 3.9597 71.958l81.379-144.87h12.562l16.249 148.01q17.068-32.634 29.766-57.894 12.698-25.397 22.666-45.605 6.0078-12.425 8.3291-18.843 2.4578-6.4175 2.4578-9.0118 0-4.3694-6.2809-6.9636-6.1444-2.7308-17.887-3.4136l2.0481-9.0118h71.548z" fill="#808080" id="unique152" style="" transform="scale(.93624 1.0681)"></path><path d="m499.11 317.83h216.21c2.0081 0 3.6248 1.6167 3.6248 3.6248v31.612c0 2.0081-1.6167 3.6248-3.6248 3.6248h-216.21c-2.0082 0-3.6248-1.6167-3.6248-3.6248v-31.612c0-2.0082 1.6167-3.6248 3.6248-3.6248z" fill="#808080" id="unique153"></path><path d="m499.11 397.78h216.21c2.0081 0 3.6248 1.6167 3.6248 3.6248v31.612c0 2.0081-1.6167 3.6248-3.6248 3.6248h-216.21c-2.0082 0-3.6248-1.6167-3.6248-3.6248v-31.612c0-2.0082 1.6167-3.6248 3.6248-3.6248z" fill="#808080" id="unique154"></path><path d="m285.37 477.72h429.95c2.0081 0 3.6248 1.6167 3.6248 3.6248v31.612c0 2.0081-1.6167 3.6248-3.6248 3.6248h-429.95c-2.0082 0-3.6248-1.6167-3.6248-3.6248v-31.612c0-2.0082 1.6167-3.6248 3.6248-3.6248z" fill="#808080" id="unique155"></path><path d="m285.37 557.67h429.95c2.0081 0 3.6248 1.6167 3.6248 3.6248v31.612c0 2.0082-1.6167 3.6248-3.6248 3.6248h-429.95c-2.0082 0-3.6248-1.6167-3.6248-3.6248v-31.612c0-2.0081 1.6167-3.6248 3.6248-3.6248z" fill="#808080" id="unique156"></path><path d="m285.37 637.61h429.95c2.0081 0 3.6248 1.6167 3.6248 3.6248v31.612c0 2.0082-1.6167 3.6248-3.6248 3.6248h-429.95c-2.0082 0-3.6248-1.6167-3.6248-3.6248v-31.612c0-2.0081 1.6167-3.6248 3.6248-3.6248z" fill="#808080" id="unique157"></path><path d="m285.37 717.56h429.95c2.0081 0 3.6248 1.6167 3.6248 3.6248v31.612c0 2.0082-1.6167 3.6248-3.6248 3.6248h-429.95c-2.0082 0-3.6248-1.6167-3.6248-3.6248v-31.612c0-2.0081 1.6167-3.6248 3.6248-3.6248z" fill="#808080" id="unique158"></path><path d="m134.66 0v999.58h730.68c-0.56928-270.53-1.1386-541.06-1.7078-811.59-60.9-62.67-121.8-125.33-182.7-187.99h-546.27zm71.74 73.846h438.66c49.277 52.61 98.555 105.22 147.83 157.83v690.76h-586.49v-848.59z" fill="#808080" id="unique159"></path><path d="m614.43 0.00072173c11.873-0.0025 55.782 0.0025 67.655-0.000004l182.71 174.26c0.0295 13.01 0.0914 41.354 0.12092 54.364h-250.48z" fill="#5797ff" id="unique160"></path></symbol><symbol id="symbol-fi-officew-hover"><path d="m206.4 0h438.66c49.277 57.188 98.555 114.38 147.83 171.56v750.87h-586.49v-922.44z" fill="#5797ff" fill-opacity=".25098" id="unique161"></path><path d="m531.97 191.2-2.0481 9.0118q-3.4136 0.13655-8.3291 1.6385-4.9155 1.3654-9.1483 3.6866-5.5982 3.1405-9.4214 7.2367-3.8232 4.0963-7.6464 11.196-14.064 26.08-38.232 71.412-24.031 45.332-49.428 92.029h-12.152l-15.839-149.38-84.793 149.38h-12.016q-3.1405-62.127-5.3251-104.45-2.1847-42.465-3.277-64.311-0.27308-4.3694-1.6385-7.3733t-5.3252-6.1444q-2.8674-2.3212-7.3733-3.4136-4.3694-1.2289-7.9194-1.502l2.0481-9.0118h77.966l-2.0481 9.0118q-16.249 0.9558-21.847 3.5501-5.4617 2.4578-5.4617 6.0079 0 2.7308 0.13654 8.056 0.13655 5.3251 0.40963 10.923 0.40963 9.4214 1.9116 38.095 1.6385 28.537 3.9597 71.958l81.379-144.87h12.562l16.249 148.01q17.068-32.634 29.766-57.894 12.698-25.397 22.666-45.605 6.0078-12.425 8.3291-18.843 2.4578-6.4175 2.4578-9.0118 0-4.3694-6.2809-6.9636-6.1444-2.7308-17.887-3.4136l2.0481-9.0118h71.548z" fill="#000000" id="unique162" style="" transform="scale(.93624 1.0681)"></path><path d="m499.11 317.83h216.21c2.0081 0 3.6248 1.6167 3.6248 3.6248v31.612c0 2.0081-1.6167 3.6248-3.6248 3.6248h-216.21c-2.0082 0-3.6248-1.6167-3.6248-3.6248v-31.612c0-2.0082 1.6167-3.6248 3.6248-3.6248z" fill="#000000" id="unique163"></path><path d="m499.11 397.78h216.21c2.0081 0 3.6248 1.6167 3.6248 3.6248v31.612c0 2.0081-1.6167 3.6248-3.6248 3.6248h-216.21c-2.0082 0-3.6248-1.6167-3.6248-3.6248v-31.612c0-2.0082 1.6167-3.6248 3.6248-3.6248z" fill="#000000" id="unique164"></path><path d="m285.37 477.72h429.95c2.0081 0 3.6248 1.6167 3.6248 3.6248v31.612c0 2.0081-1.6167 3.6248-3.6248 3.6248h-429.95c-2.0082 0-3.6248-1.6167-3.6248-3.6248v-31.612c0-2.0082 1.6167-3.6248 3.6248-3.6248z" fill="#000000" id="unique165"></path><path d="m285.37 557.67h429.95c2.0081 0 3.6248 1.6167 3.6248 3.6248v31.612c0 2.0082-1.6167 3.6248-3.6248 3.6248h-429.95c-2.0082 0-3.6248-1.6167-3.6248-3.6248v-31.612c0-2.0081 1.6167-3.6248 3.6248-3.6248z" fill="#000000" id="unique166"></path><path d="m285.37 637.61h429.95c2.0081 0 3.6248 1.6167 3.6248 3.6248v31.612c0 2.0082-1.6167 3.6248-3.6248 3.6248h-429.95c-2.0082 0-3.6248-1.6167-3.6248-3.6248v-31.612c0-2.0081 1.6167-3.6248 3.6248-3.6248z" fill="#000000" id="unique167"></path><path d="m285.37 717.56h429.95c2.0081 0 3.6248 1.6167 3.6248 3.6248v31.612c0 2.0082-1.6167 3.6248-3.6248 3.6248h-429.95c-2.0082 0-3.6248-1.6167-3.6248-3.6248v-31.612c0-2.0081 1.6167-3.6248 3.6248-3.6248z" fill="#000000" id="unique168"></path><path d="m134.66 0v999.58h730.68c-0.56928-270.53-1.1386-541.06-1.7078-811.59-60.9-62.67-121.8-125.33-182.7-187.99h-546.27zm71.74 73.846h438.66c49.277 52.61 98.555 105.22 147.83 157.83v690.76h-586.49v-848.59z" fill="#000000" id="unique169"></path><path d="m614.43 0.00072173c11.873-0.0025 55.782 0.0025 67.655-0.000004l182.71 174.26c0.0295 13.01 0.0914 41.354 0.12092 54.364h-250.48z" fill="#5797ff" id="unique170"></path></symbol><symbol id="symbol-fi-oofficew"><path d="m206.4 0h438.66c49.277 57.188 98.555 114.38 147.83 171.56v750.87h-586.49v-922.44z" fill="#8ac4ff" fill-opacity=".25098" id="unique171"></path><path d="m134.66 0v999.58h730.68c-0.56928-270.53-1.1386-541.06-1.7078-811.59-60.9-62.67-121.8-125.33-182.7-187.99h-546.27zm71.74 73.846h438.66c49.277 52.61 98.555 105.22 147.83 157.83v690.76h-586.49v-848.59z" fill="#808080" id="unique172"></path><path d="m614.43 0.00072173c11.873-0.0025 55.782 0.0025 67.655-0.000004l182.71 174.26c0.0295 13.01 0.0914 41.354 0.12092 54.364h-250.48z" fill="#8ac4ff" id="unique173"></path><path d="m327.26 197.45-105.34 58.299 0.18164 0.49219 0.49219 0.40039 0.73437 0.26953 0.89844 0.0977h103.03l103.03 57.922 103.03-57.922h103.03l0.89843-0.0977 0.73438-0.26953 0.49219-0.40039 0.18164-0.49219-105.34-58.299-103.03 57.922-103.03-57.922zm-154.18 106.01-105.34 58.299 0.18164 0.49219 0.49218 0.40039 0.73438 0.26953 0.89844 0.0977h103.03l103.03 57.922 103.03-57.922h103.03l0.90039-0.0977 0.73242-0.26953 0.49414-0.40039 0.18164-0.49219-105.34-58.299-103.03 57.922-103.03-57.922zm359.6 20.941c-2.0081 0-3.625 1.6168-3.625 3.625v31.613c0 2.0081 1.6168 3.623 3.625 3.623h216.21c2.0081 0 3.625-1.615 3.625-3.623v-31.613c0-2.0081-1.6169-3.625-3.625-3.625h-216.21zm0 79.951c-2.0081 0-3.625 1.6168-3.625 3.625v31.611c0 2.0081 1.6168 3.625 3.625 3.625h216.21c2.0081 0 3.625-1.6169 3.625-3.625v-31.611c0-2.0081-1.6169-3.625-3.625-3.625h-216.21zm-213.74 79.94c-2.0081 0-3.623 1.6168-3.623 3.625v31.611c0 2.0081 1.6148 3.625 3.623 3.625h429.95c2.0081 0 3.625-1.6169 3.625-3.625v-31.611c0-2.0081-1.6169-3.625-3.625-3.625h-429.95zm0 79.949c-2.0081 0-3.623 1.6169-3.623 3.625v31.613c0 2.0081 1.6148 3.625 3.623 3.625h429.95c2.0081 0 3.625-1.6168 3.625-3.625v-31.613c0-2.0081-1.6169-3.625-3.625-3.625h-429.95zm0 79.941c-2.0081 0-3.623 1.6169-3.623 3.625v31.611c0 2.0081 1.6148 3.625 3.623 3.625h429.95c2.0081 0 3.625-1.6168 3.625-3.625v-31.611c0-2.0081-1.6169-3.625-3.625-3.625h-429.95zm0 79.949c-2.0081 0-3.623 1.6169-3.623 3.625v31.611c0 2.0081 1.6148 3.625 3.623 3.625h429.95c2.0081 0 3.625-1.6168 3.625-3.625v-31.611c0-2.0081-1.6169-3.625-3.625-3.625h-429.95z" fill="#808080" id="unique174"></path></symbol><symbol id="symbol-fi-oofficew-hover"><path d="m206.4 0h438.66c49.277 57.188 98.555 114.38 147.83 171.56v750.87h-586.49v-922.44z" fill="#8ac4ff" fill-opacity=".25098" id="unique175"></path><path d="m134.66 0v999.58h730.68c-0.56928-270.53-1.1386-541.06-1.7078-811.59-60.9-62.67-121.8-125.33-182.7-187.99h-546.27zm71.74 73.846h438.66c49.277 52.61 98.555 105.22 147.83 157.83v690.76h-586.49v-848.59z" fill="#000000" id="unique176"></path><path d="m614.43 0.00072173c11.873-0.0025 55.782 0.0025 67.655-0.000004l182.71 174.26c0.0295 13.01 0.0914 41.354 0.12092 54.364h-250.48z" fill="#8ac4ff" id="unique177"></path><path d="m327.26 197.45-105.34 58.299 0.18164 0.49219 0.49219 0.40039 0.73437 0.26953 0.89844 0.0977h103.03l103.03 57.922 103.03-57.922h103.03l0.89843-0.0977 0.73438-0.26953 0.49219-0.40039 0.18164-0.49219-105.34-58.299-103.03 57.922-103.03-57.922zm-154.18 106.01-105.34 58.299 0.18164 0.49219 0.49218 0.40039 0.73438 0.26953 0.89844 0.0977h103.03l103.03 57.922 103.03-57.922h103.03l0.90039-0.0977 0.73242-0.26953 0.49414-0.40039 0.18164-0.49219-105.34-58.299-103.03 57.922-103.03-57.922zm359.6 20.941c-2.0081 0-3.625 1.6168-3.625 3.625v31.613c0 2.0081 1.6168 3.623 3.625 3.623h216.21c2.0081 0 3.625-1.615 3.625-3.623v-31.613c0-2.0081-1.6169-3.625-3.625-3.625h-216.21zm0 79.951c-2.0081 0-3.625 1.6168-3.625 3.625v31.611c0 2.0081 1.6168 3.625 3.625 3.625h216.21c2.0081 0 3.625-1.6169 3.625-3.625v-31.611c0-2.0081-1.6169-3.625-3.625-3.625h-216.21zm-213.74 79.94c-2.0081 0-3.623 1.6168-3.623 3.625v31.611c0 2.0081 1.6148 3.625 3.623 3.625h429.95c2.0081 0 3.625-1.6169 3.625-3.625v-31.611c0-2.0081-1.6169-3.625-3.625-3.625h-429.95zm0 79.949c-2.0081 0-3.623 1.6169-3.623 3.625v31.613c0 2.0081 1.6148 3.625 3.623 3.625h429.95c2.0081 0 3.625-1.6168 3.625-3.625v-31.613c0-2.0081-1.6169-3.625-3.625-3.625h-429.95zm0 79.941c-2.0081 0-3.623 1.6169-3.623 3.625v31.611c0 2.0081 1.6148 3.625 3.623 3.625h429.95c2.0081 0 3.625-1.6168 3.625-3.625v-31.611c0-2.0081-1.6169-3.625-3.625-3.625h-429.95zm0 79.949c-2.0081 0-3.623 1.6169-3.623 3.625v31.611c0 2.0081 1.6148 3.625 3.623 3.625h429.95c2.0081 0 3.625-1.6168 3.625-3.625v-31.611c0-2.0081-1.6169-3.625-3.625-3.625h-429.95z" fill="#000000" id="unique178"></path></symbol><symbol id="symbol-fi-shell"><path d="m206.4 0h438.66c49.277 57.188 98.555 114.38 147.83 171.56v750.87h-586.49v-922.44z" fill="#808080" fill-opacity=".25098" id="unique179"></path><path d="m244.17 283.14h511.65c1.6734 0 3.0207 1.3472 3.0207 3.0207v427.69c0 1.6734-1.3472 3.0207-3.0207 3.0207h-511.65c-1.6734 0-3.0207-1.3472-3.0207-3.0207v-427.69c0-1.6734 1.3472-3.0207 3.0207-3.0207z" fill="#808080" id="unique180"></path><path d="m525.25 334.14-135.45 67.727v-25.465l106.47-51.608-106.47-51.743v-25.465l135.45 67.727v18.828z" fill="#fff" id="unique181" transform="scale(.74107 1.3494)"></path><path d="m134.66 0v999.58h730.68c-0.56928-270.53-1.1386-541.06-1.7078-811.59-60.9-62.67-121.8-125.33-182.7-187.99h-546.27zm71.74 73.846h438.66c49.277 52.61 98.555 105.22 147.83 157.83v690.76h-586.49v-848.59z" fill="#808080" id="unique182"></path><path d="m614.43 0.00072173c11.873-0.0025 55.782 0.0025 67.655-0.000004l182.71 174.26c0.0295 13.01 0.0914 41.354 0.12092 54.364h-250.48z" fill="#808080" id="unique183"></path></symbol><symbol id="symbol-fi-shell-hover"><path d="m206.4 0h438.66c49.277 57.188 98.555 114.38 147.83 171.56v750.87h-586.49v-922.44z" fill="#000000" fill-opacity=".25098" id="unique184"></path><path d="m244.17 283.14h511.65c1.6734 0 3.0207 1.3472 3.0207 3.0207v427.69c0 1.6734-1.3472 3.0207-3.0207 3.0207h-511.65c-1.6734 0-3.0207-1.3472-3.0207-3.0207v-427.69c0-1.6734 1.3472-3.0207 3.0207-3.0207z" fill="#000000" id="unique185"></path><path d="m525.25 334.14-135.45 67.727v-25.465l106.47-51.608-106.47-51.743v-25.465l135.45 67.727v18.828z" fill="#fff" id="unique186" transform="scale(.74107 1.3494)"></path><path d="m134.66 0v999.58h730.68c-0.56928-270.53-1.1386-541.06-1.7078-811.59-60.9-62.67-121.8-125.33-182.7-187.99h-546.27zm71.74 73.846h438.66c49.277 52.61 98.555 105.22 147.83 157.83v690.76h-586.49v-848.59z" fill="#000000" id="unique187"></path><path d="m614.43 0.00072173c11.873-0.0025 55.782 0.0025 67.655-0.000004l182.71 174.26c0.0295 13.01 0.0914 41.354 0.12092 54.364h-250.48z" fill="#000000" id="unique188"></path></symbol><symbol id="symbol-fi-source"><path d="m206.4 0h438.66c49.277 57.188 98.555 114.38 147.83 171.56v750.87h-586.49v-922.44z" fill="#af3fff" fill-opacity=".25098" id="unique189"></path><path d="m539.62 688.9v35.284h-15.192q-61.012 0-81.839-18.132-20.582-18.132-20.582-72.283v-58.561q0-36.999-13.231-51.21-13.231-14.212-48.025-14.212h-14.947v-35.039h14.947q35.039 0 48.025-13.966 13.231-14.212 13.231-50.72v-58.806q0-54.151 20.582-72.038 20.827-18.132 81.839-18.132h15.192v35.039h-16.662q-34.549 0-45.085 10.781t-10.536 45.33v60.767q0 38.469-11.271 55.866-11.026 17.397-37.979 23.523 27.198 6.6157 38.224 24.013t11.026 55.621v60.767q0 34.549 10.536 45.33t45.085 10.781h16.662z" fill="#808080" id="unique190" style="" transform="scale(.82992 1.2049)"></path><path d="m665.32 688.9h17.152q34.304 0 44.595-10.536 10.536-10.536 10.536-45.575v-60.767q0-38.224 11.026-55.621t38.224-24.013q-27.198-6.1256-38.224-23.523t-11.026-55.866v-60.767q0-34.794-10.536-45.33-10.291-10.781-44.595-10.781h-17.152v-35.039h15.437q61.012 0 81.349 18.132 20.582 17.887 20.582 72.038v58.806q0 36.509 13.231 50.72 13.231 13.966 48.025 13.966h15.192v35.039h-15.192q-34.794 0-48.025 14.212t-13.231 51.21v58.561q0 54.151-20.582 72.283-20.337 18.132-81.349 18.132h-15.437v-35.284z" fill="#808080" id="unique191" style="" transform="scale(.82992 1.2049)"></path><path d="m134.66 0v999.58h730.68c-0.56928-270.53-1.1386-541.06-1.7078-811.59-60.9-62.67-121.8-125.33-182.7-187.99h-546.27zm71.74 73.846h438.66c49.277 52.61 98.555 105.22 147.83 157.83v690.76h-586.49v-848.59z" fill="#808080" id="unique192"></path><path d="m614.43 0.00072173c11.873-0.0025 55.782 0.0025 67.655-0.000004l182.71 174.26c0.0295 13.01 0.0914 41.354 0.12092 54.364h-250.48z" fill="#af3fff" id="unique193"></path></symbol><symbol id="symbol-fi-source-hover"><path d="m206.4 0h438.66c49.277 57.188 98.555 114.38 147.83 171.56v750.87h-586.49v-922.44z" fill="#af3fff" fill-opacity=".25098" id="unique194"></path><path d="m539.62 688.9v35.284h-15.192q-61.012 0-81.839-18.132-20.582-18.132-20.582-72.283v-58.561q0-36.999-13.231-51.21-13.231-14.212-48.025-14.212h-14.947v-35.039h14.947q35.039 0 48.025-13.966 13.231-14.212 13.231-50.72v-58.806q0-54.151 20.582-72.038 20.827-18.132 81.839-18.132h15.192v35.039h-16.662q-34.549 0-45.085 10.781t-10.536 45.33v60.767q0 38.469-11.271 55.866-11.026 17.397-37.979 23.523 27.198 6.6157 38.224 24.013t11.026 55.621v60.767q0 34.549 10.536 45.33t45.085 10.781h16.662z" fill="#000000" id="unique195" style="" transform="scale(.82992 1.2049)"></path><path d="m665.32 688.9h17.152q34.304 0 44.595-10.536 10.536-10.536 10.536-45.575v-60.767q0-38.224 11.026-55.621t38.224-24.013q-27.198-6.1256-38.224-23.523t-11.026-55.866v-60.767q0-34.794-10.536-45.33-10.291-10.781-44.595-10.781h-17.152v-35.039h15.437q61.012 0 81.349 18.132 20.582 17.887 20.582 72.038v58.806q0 36.509 13.231 50.72 13.231 13.966 48.025 13.966h15.192v35.039h-15.192q-34.794 0-48.025 14.212t-13.231 51.21v58.561q0 54.151-20.582 72.283-20.337 18.132-81.349 18.132h-15.437v-35.284z" fill="#000000" id="unique196" style="" transform="scale(.82992 1.2049)"></path><path d="m134.66 0v999.58h730.68c-0.56928-270.53-1.1386-541.06-1.7078-811.59-60.9-62.67-121.8-125.33-182.7-187.99h-546.27zm71.74 73.846h438.66c49.277 52.61 98.555 105.22 147.83 157.83v690.76h-586.49v-848.59z" fill="#000000" id="unique197"></path><path d="m614.43 0.00072173c11.873-0.0025 55.782 0.0025 67.655-0.000004l182.71 174.26c0.0295 13.01 0.0914 41.354 0.12092 54.364h-250.48z" fill="#af3fff" id="unique198"></path></symbol><symbol id="symbol-fi-tex"><path d="m206.4 0h438.66c49.277 57.188 98.555 114.38 147.83 171.56v750.87h-586.49v-922.44z" fill="#808080" fill-opacity=".25098" id="unique199"></path><path d="m134.66 0v999.58h730.68c-0.56928-270.53-1.1386-541.06-1.7078-811.59-60.9-62.67-121.8-125.33-182.7-187.99h-546.27zm71.74 73.846h438.66c49.277 52.61 98.555 105.22 147.83 157.83v690.76h-586.49v-848.59z" fill="#808080" id="unique200"></path><path d="m614.43 0.00072173c11.873-0.0025 55.782 0.0025 67.655-0.000004l182.71 174.26c0.0295 13.01 0.0914 41.354 0.12092 54.364h-250.48z" fill="#808080" id="unique201"></path><path d="m380.27-503.01h-13.028q-1.6993-6.7973-6.2309-16.049-4.3428-9.4408-9.8184-17.749-5.6644-8.6855-12.462-15.105-6.6085-6.6085-12.839-7.5526-5.8533-0.75526-14.728-1.1329-8.8743-0.37763-16.427-0.37763h-10.951v214.31q0 6.2309 2.6434 11.518 2.6434 5.098 9.2519 7.9302 3.3987 1.3217 14.161 3.5875 10.951 2.2658 16.993 2.4546v13.406h-126.51v-13.406q5.2868-0.37763 16.049-1.5105 10.951-1.1329 15.105-2.8322 6.2309-2.4546 9.0631-6.9862 3.021-4.7204 3.021-12.462v-216h-10.951q-5.8533 0-14.539 0.37763-8.6855 0.18881-16.616 1.1329-6.2309 0.75526-13.028 7.5526-6.6085 6.6085-12.273 15.105-5.6645 8.4967-10.007 18.126-4.3428 9.4408-6.0421 15.672h-13.217v-72.694h233.38v72.694z" fill="#808080" id="unique202" transform="matrix(0 1 -1 0 100.94 96.363)"></path><path d="m550.9-297.88-5.098 78.925h-222.42v-13.406c3.7763-0.25176 8.8114-0.75526 15.105-1.5105 6.2938-0.88114 10.385-1.7623 12.273-2.6434 4.0281-1.8882 6.7973-4.3428 8.3079-7.3638 1.6364-3.021 2.4546-6.8603 2.4546-11.518v-192.59c0-4.1539-0.69232-7.8044-2.077-10.951-1.3846-3.2728-4.2798-5.9162-8.6855-7.9302-3.3987-1.6364-7.9932-3.084-13.784-4.3428-5.6644-1.2588-10.196-2.014-13.595-2.2658v-13.406h207.32v64.575h-14.161c-2.5175-9.5666-7.9932-19.7-16.427-30.399-8.3079-10.825-16.238-16.742-23.791-17.749-3.9022-0.50351-8.5596-0.88114-13.972-1.1329-5.4127-0.25176-11.581-0.37763-18.504-0.37763h-42.106v106.49h30.21c9.6925 0 16.742-0.88114 21.147-2.6434 4.5316-1.8882 8.4967-4.9721 11.895-9.2519 2.7693-3.6504 5.098-8.4967 6.9862-14.539 2.014-6.168 3.3357-11.958 3.9651-17.371h14.161v104.79h-14.161c-0.5035-6.0421-1.8882-12.399-4.1539-19.07-2.1399-6.7974-4.4057-11.707-6.7973-14.728-3.9022-4.9092-8.3708-8.119-13.406-9.6296-4.9092-1.5105-11.455-2.2658-19.637-2.2658h-30.21v80.435c0 8.0561 0.56645 14.413 1.6993 19.07 1.1329 4.6574 3.3357 8.182 6.6085 10.574 3.2728 2.3917 7.7414 3.9651 13.406 4.7204 5.6644 0.62938 13.721 0.94407 24.168 0.94407h16.427c6.7974 0 12.525-0.25176 17.182-0.75526 4.7833-0.50351 9.6925-1.3846 14.728-2.6434 5.161-1.3846 8.8114-3.2098 10.951-5.4756 5.7903-6.0421 11.832-15.168 18.126-27.378 6.4197-12.336 10.511-21.399 12.273-27.189z" fill="#808080" id="unique203" transform="matrix(0 1 -1 0 100.94 96.363)"></path><path d="m792.23-311.25h-125.37v-13.406q15.483-0.37763 24.924-2.8322 9.6296-2.6434 9.6296-7.9302 0-2.8322-4.3428-11.707-4.3427-8.8743-11.14-19.826-7.5526-12.084-17.937-28.322-10.385-16.427-20.581-31.343-16.616 21.903-37.763 52.868-21.147 30.777-21.147 36.252 0 6.2309 5.6644 9.2519 5.8533 2.8322 25.49 3.5875v13.406h-100.07v-13.406q4.9092-0.37763 12.462-1.3217 7.7414-1.1329 12.651-3.5875 9.8184-5.2868 15.672-11.329 6.0421-6.2309 12.084-14.539 12.084-16.616 30.966-41.35 18.882-24.924 33.42-45.316-10.951-16.049-27.945-40.595-16.993-24.735-36.252-52.868-8.119-11.895-12.839-16.805-4.5316-4.9092-12.273-8.4967-4.5316-2.077-12.651-3.2098-7.9302-1.3217-12.651-1.6993v-13.406h124.05v13.406q-10.951 0.37763-22.847 2.8322-11.707 2.2658-11.707 7.175 0 3.5875 4.7204 12.651 4.7204 8.8743 11.14 19.07 6.6085 10.574 14.728 23.413 8.119 12.839 19.826 29.644 21.336-28.889 36.819-52.113t15.483-30.21q0-6.0421-7.175-8.8743-6.9862-2.8322-23.791-3.5875v-13.406h99.883v13.406q-4.7204 0.18882-12.462 1.5105-7.5526 1.1329-12.651 3.3987-9.8184 4.7204-14.728 10.196-4.7204 5.4756-12.839 15.86-15.105 19.448-27.945 36.63-12.651 16.993-30.588 41.539 15.105 21.525 33.609 48.903 18.693 27.378 35.686 52.302 5.8533 8.4967 13.406 16.238 7.5526 7.5526 12.273 10.385 4.5316 2.6434 12.084 3.3987 7.7414 0.56645 13.028 0.75526v13.406z" fill="#808080" id="unique204" transform="matrix(0 1 -1 0 100.94 96.363)"></path></symbol><symbol id="symbol-fi-tex-hover"><path d="m206.4 0h438.66c49.277 57.188 98.555 114.38 147.83 171.56v750.87h-586.49v-922.44z" fill="#000000" fill-opacity=".25098" id="unique205"></path><path d="m134.66 0v999.58h730.68c-0.56928-270.53-1.1386-541.06-1.7078-811.59-60.9-62.67-121.8-125.33-182.7-187.99h-546.27zm71.74 73.846h438.66c49.277 52.61 98.555 105.22 147.83 157.83v690.76h-586.49v-848.59z" fill="#000000" id="unique206"></path><path d="m614.43 0.00072173c11.873-0.0025 55.782 0.0025 67.655-0.000004l182.71 174.26c0.0295 13.01 0.0914 41.354 0.12092 54.364h-250.48z" fill="#000000" id="unique207"></path><path d="m380.27-503.01h-13.028q-1.6993-6.7973-6.2309-16.049-4.3428-9.4408-9.8184-17.749-5.6644-8.6855-12.462-15.105-6.6085-6.6085-12.839-7.5526-5.8533-0.75526-14.728-1.1329-8.8743-0.37763-16.427-0.37763h-10.951v214.31q0 6.2309 2.6434 11.518 2.6434 5.098 9.2519 7.9302 3.3987 1.3217 14.161 3.5875 10.951 2.2658 16.993 2.4546v13.406h-126.51v-13.406q5.2868-0.37763 16.049-1.5105 10.951-1.1329 15.105-2.8322 6.2309-2.4546 9.0631-6.9862 3.021-4.7204 3.021-12.462v-216h-10.951q-5.8533 0-14.539 0.37763-8.6855 0.18881-16.616 1.1329-6.2309 0.75526-13.028 7.5526-6.6085 6.6085-12.273 15.105-5.6645 8.4967-10.007 18.126-4.3428 9.4408-6.0421 15.672h-13.217v-72.694h233.38v72.694z" fill="#000000" id="unique208" transform="matrix(0 1 -1 0 100.94 96.363)"></path><path d="m550.9-297.88-5.098 78.925h-222.42v-13.406c3.7763-0.25176 8.8114-0.75526 15.105-1.5105 6.2938-0.88114 10.385-1.7623 12.273-2.6434 4.0281-1.8882 6.7973-4.3428 8.3079-7.3638 1.6364-3.021 2.4546-6.8603 2.4546-11.518v-192.59c0-4.1539-0.69232-7.8044-2.077-10.951-1.3846-3.2728-4.2798-5.9162-8.6855-7.9302-3.3987-1.6364-7.9932-3.084-13.784-4.3428-5.6644-1.2588-10.196-2.014-13.595-2.2658v-13.406h207.32v64.575h-14.161c-2.5175-9.5666-7.9932-19.7-16.427-30.399-8.3079-10.825-16.238-16.742-23.791-17.749-3.9022-0.50351-8.5596-0.88114-13.972-1.1329-5.4127-0.25176-11.581-0.37763-18.504-0.37763h-42.106v106.49h30.21c9.6925 0 16.742-0.88114 21.147-2.6434 4.5316-1.8882 8.4967-4.9721 11.895-9.2519 2.7693-3.6504 5.098-8.4967 6.9862-14.539 2.014-6.168 3.3357-11.958 3.9651-17.371h14.161v104.79h-14.161c-0.5035-6.0421-1.8882-12.399-4.1539-19.07-2.1399-6.7974-4.4057-11.707-6.7973-14.728-3.9022-4.9092-8.3708-8.119-13.406-9.6296-4.9092-1.5105-11.455-2.2658-19.637-2.2658h-30.21v80.435c0 8.0561 0.56645 14.413 1.6993 19.07 1.1329 4.6574 3.3357 8.182 6.6085 10.574 3.2728 2.3917 7.7414 3.9651 13.406 4.7204 5.6644 0.62938 13.721 0.94407 24.168 0.94407h16.427c6.7974 0 12.525-0.25176 17.182-0.75526 4.7833-0.50351 9.6925-1.3846 14.728-2.6434 5.161-1.3846 8.8114-3.2098 10.951-5.4756 5.7903-6.0421 11.832-15.168 18.126-27.378 6.4197-12.336 10.511-21.399 12.273-27.189z" fill="#000000" id="unique209" transform="matrix(0 1 -1 0 100.94 96.363)"></path><path d="m792.23-311.25h-125.37v-13.406q15.483-0.37763 24.924-2.8322 9.6296-2.6434 9.6296-7.9302 0-2.8322-4.3428-11.707-4.3427-8.8743-11.14-19.826-7.5526-12.084-17.937-28.322-10.385-16.427-20.581-31.343-16.616 21.903-37.763 52.868-21.147 30.777-21.147 36.252 0 6.2309 5.6644 9.2519 5.8533 2.8322 25.49 3.5875v13.406h-100.07v-13.406q4.9092-0.37763 12.462-1.3217 7.7414-1.1329 12.651-3.5875 9.8184-5.2868 15.672-11.329 6.0421-6.2309 12.084-14.539 12.084-16.616 30.966-41.35 18.882-24.924 33.42-45.316-10.951-16.049-27.945-40.595-16.993-24.735-36.252-52.868-8.119-11.895-12.839-16.805-4.5316-4.9092-12.273-8.4967-4.5316-2.077-12.651-3.2098-7.9302-1.3217-12.651-1.6993v-13.406h124.05v13.406q-10.951 0.37763-22.847 2.8322-11.707 2.2658-11.707 7.175 0 3.5875 4.7204 12.651 4.7204 8.8743 11.14 19.07 6.6085 10.574 14.728 23.413 8.119 12.839 19.826 29.644 21.336-28.889 36.819-52.113t15.483-30.21q0-6.0421-7.175-8.8743-6.9862-2.8322-23.791-3.5875v-13.406h99.883v13.406q-4.7204 0.18882-12.462 1.5105-7.5526 1.1329-12.651 3.3987-9.8184 4.7204-14.728 10.196-4.7204 5.4756-12.839 15.86-15.105 19.448-27.945 36.63-12.651 16.993-30.588 41.539 15.105 21.525 33.609 48.903 18.693 27.378 35.686 52.302 5.8533 8.4967 13.406 16.238 7.5526 7.5526 12.273 10.385 4.5316 2.6434 12.084 3.3987 7.7414 0.56645 13.028 0.75526v13.406z" fill="#000000" id="unique210" transform="matrix(0 1 -1 0 100.94 96.363)"></path></symbol><symbol id="symbol-fi-text"><path d="m206.4 0h438.66c49.277 57.188 98.555 114.38 147.83 171.56v750.87h-586.49v-922.44z" fill="#005aff" fill-opacity=".25098" id="unique211"></path><path d="m134.66 0v999.58h730.68c-0.56928-270.53-1.1386-541.06-1.7078-811.59-60.9-62.67-121.8-125.33-182.7-187.99h-546.27zm71.74 73.846h438.66c49.277 52.61 98.555 105.22 147.83 157.83v690.76h-586.49v-848.59z" fill="#808080" id="unique212"></path><path d="m614.43 0.00072173c11.873-0.0025 55.782 0.0025 67.655-0.000004l182.71 174.26c0.0295 13.01 0.0914 41.354 0.12092 54.364h-250.48z" fill="#005aff" id="unique213"></path><path d="m283.64 238.39c-1.2431 0-2.2441 1.6168-2.2441 3.625v31.613c0 2.0081 1.001 3.625 2.2441 3.625h266.16c1.2431 0 2.2441-1.6169 2.2441-3.625v-31.613c0-2.0081-1.001-3.625-2.2441-3.625h-266.16zm1.3809 80.727c-2.0081 0-3.625 1.6168-3.625 3.625v31.611c0 2.0081 1.6168 3.625 3.625 3.625h429.95c2.0081 0 3.625-1.6169 3.625-3.625v-31.611c0-2.0081-1.6169-3.625-3.625-3.625h-429.95zm0 80.727c-2.0081 0-3.625 1.6169-3.625 3.625v31.611c0 2.0081 1.6168 3.625 3.625 3.625h429.95c2.0081 0 3.625-1.6168 3.625-3.625v-31.611c0-2.0081-1.6169-3.625-3.625-3.625h-429.95zm0 80.725c-2.0081 0-3.625 1.6169-3.625 3.625v31.613c0 2.0081 1.6168 3.625 3.625 3.625h429.95c2.0081 0 3.625-1.6168 3.625-3.625v-31.613c0-2.0081-1.6169-3.625-3.625-3.625h-429.95zm0 80.727c-2.0081 0-3.625 1.6169-3.625 3.625v31.611c0 2.0081 1.6168 3.625 3.625 3.625h429.95c2.0081 0 3.625-1.6168 3.625-3.625v-31.611c0-2.0081-1.6169-3.625-3.625-3.625h-429.95zm0 80.727c-2.0081 0-3.625 1.6168-3.625 3.625v31.611c0 2.0081 1.6168 3.625 3.625 3.625h429.95c2.0081 0 3.625-1.6169 3.625-3.625v-31.611c0-2.0081-1.6169-3.625-3.625-3.625h-429.95zm0 80.725c-2.0081 0-3.625 1.6169-3.625 3.625v31.613c0 2.0081 1.6168 3.625 3.625 3.625h429.95c2.0081 0 3.625-1.6168 3.625-3.625v-31.613c0-2.0081-1.6169-3.625-3.625-3.625h-429.95z" fill="#808080" id="unique214"></path></symbol><symbol id="symbol-fi-text-hover"><path d="m206.4 0h438.66c49.277 57.188 98.555 114.38 147.83 171.56v750.87h-586.49v-922.44z" fill="#005aff" fill-opacity=".25098" id="unique215"></path><path d="m134.66 0v999.58h730.68c-0.56928-270.53-1.1386-541.06-1.7078-811.59-60.9-62.67-121.8-125.33-182.7-187.99h-546.27zm71.74 73.846h438.66c49.277 52.61 98.555 105.22 147.83 157.83v690.76h-586.49v-848.59z" fill="#000000" id="unique216"></path><path d="m614.43 0.00072173c11.873-0.0025 55.782 0.0025 67.655-0.000004l182.71 174.26c0.0295 13.01 0.0914 41.354 0.12092 54.364h-250.48z" fill="#005aff" id="unique217"></path><path d="m283.64 238.39c-1.2431 0-2.2441 1.6168-2.2441 3.625v31.613c0 2.0081 1.001 3.625 2.2441 3.625h266.16c1.2431 0 2.2441-1.6169 2.2441-3.625v-31.613c0-2.0081-1.001-3.625-2.2441-3.625h-266.16zm1.3809 80.727c-2.0081 0-3.625 1.6168-3.625 3.625v31.611c0 2.0081 1.6168 3.625 3.625 3.625h429.95c2.0081 0 3.625-1.6169 3.625-3.625v-31.611c0-2.0081-1.6169-3.625-3.625-3.625h-429.95zm0 80.727c-2.0081 0-3.625 1.6169-3.625 3.625v31.611c0 2.0081 1.6168 3.625 3.625 3.625h429.95c2.0081 0 3.625-1.6168 3.625-3.625v-31.611c0-2.0081-1.6169-3.625-3.625-3.625h-429.95zm0 80.725c-2.0081 0-3.625 1.6169-3.625 3.625v31.613c0 2.0081 1.6168 3.625 3.625 3.625h429.95c2.0081 0 3.625-1.6168 3.625-3.625v-31.613c0-2.0081-1.6169-3.625-3.625-3.625h-429.95zm0 80.727c-2.0081 0-3.625 1.6169-3.625 3.625v31.611c0 2.0081 1.6168 3.625 3.625 3.625h429.95c2.0081 0 3.625-1.6168 3.625-3.625v-31.611c0-2.0081-1.6169-3.625-3.625-3.625h-429.95zm0 80.727c-2.0081 0-3.625 1.6168-3.625 3.625v31.611c0 2.0081 1.6168 3.625 3.625 3.625h429.95c2.0081 0 3.625-1.6169 3.625-3.625v-31.611c0-2.0081-1.6169-3.625-3.625-3.625h-429.95zm0 80.725c-2.0081 0-3.625 1.6169-3.625 3.625v31.613c0 2.0081 1.6168 3.625 3.625 3.625h429.95c2.0081 0 3.625-1.6168 3.625-3.625v-31.613c0-2.0081-1.6169-3.625-3.625-3.625h-429.95z" fill="#000000" id="unique218"></path></symbol><symbol id="symbol-fi-unknown"><path d="m206.4 0h438.66c49.277 57.188 98.555 114.38 147.83 171.56v750.87h-586.49v-922.44z" fill="#808080" fill-opacity=".25098" id="unique219"></path><path d="m433.16 765.88h83.863v104.93h-83.863v-104.93zm81.385-60.729h-78.906v-63.62q0-41.725 11.567-68.578t48.748-62.381l37.181-36.768q23.548-21.895 33.876-41.312 10.741-19.417 10.741-39.66 0-36.768-27.266-59.489-26.853-22.722-71.47-22.722-32.636 0-69.817 14.459-36.768 14.459-76.84 42.138v-77.667q38.833-23.548 78.493-35.115 40.073-11.567 82.624-11.567 76.014 0 121.87 40.073 46.269 40.073 46.269 105.76 0 31.397-14.872 59.902-14.872 28.092-52.053 63.62l-36.355 35.528q-19.417 19.417-27.679 30.571-7.8493 10.741-11.154 21.069-2.4787 8.6755-3.7181 21.069t-1.2394 33.876v50.814z" fill="#808080" id="unique220" transform="scale(1.0061 .99398)"></path><path d="m134.66 0v999.58h730.68c-0.56928-270.53-1.1386-541.06-1.7078-811.59-60.9-62.67-121.8-125.33-182.7-187.99h-546.27zm71.74 73.846h438.66c49.277 52.61 98.555 105.22 147.83 157.83v690.76h-586.49v-848.59z" fill="#808080" id="unique221"></path><path d="m614.43 0.00072173c11.873-0.0025 55.782 0.0025 67.655-0.000004l182.71 174.26c0.0295 13.01 0.0914 41.354 0.12092 54.364h-250.48z" fill="#808080" id="unique222"></path></symbol><symbol id="symbol-fi-unknown-hover"><path d="m206.4 0h438.66c49.277 57.188 98.555 114.38 147.83 171.56v750.87h-586.49v-922.44z" fill="#000000" fill-opacity=".25098" id="unique223"></path><path d="m433.16 765.88h83.863v104.93h-83.863v-104.93zm81.385-60.729h-78.906v-63.62q0-41.725 11.567-68.578t48.748-62.381l37.181-36.768q23.548-21.895 33.876-41.312 10.741-19.417 10.741-39.66 0-36.768-27.266-59.489-26.853-22.722-71.47-22.722-32.636 0-69.817 14.459-36.768 14.459-76.84 42.138v-77.667q38.833-23.548 78.493-35.115 40.073-11.567 82.624-11.567 76.014 0 121.87 40.073 46.269 40.073 46.269 105.76 0 31.397-14.872 59.902-14.872 28.092-52.053 63.62l-36.355 35.528q-19.417 19.417-27.679 30.571-7.8493 10.741-11.154 21.069-2.4787 8.6755-3.7181 21.069t-1.2394 33.876v50.814z" fill="#000000" id="unique224" transform="scale(1.0061 .99398)"></path><path d="m134.66 0v999.58h730.68c-0.56928-270.53-1.1386-541.06-1.7078-811.59-60.9-62.67-121.8-125.33-182.7-187.99h-546.27zm71.74 73.846h438.66c49.277 52.61 98.555 105.22 147.83 157.83v690.76h-586.49v-848.59z" fill="#000000" id="unique225"></path><path d="m614.43 0.00072173c11.873-0.0025 55.782 0.0025 67.655-0.000004l182.71 174.26c0.0295 13.01 0.0914 41.354 0.12092 54.364h-250.48z" fill="#000000" id="unique226"></path></symbol><symbol id="symbol-fi-video"><path d="m206.4 0h438.66c49.277 57.188 98.555 114.38 147.83 171.56v750.87h-586.49v-922.44z" fill="#808080" fill-opacity=".25098" id="unique227"></path><path d="m134.66 0v999.58h730.68c-0.56928-270.53-1.1386-541.06-1.7078-811.59-60.9-62.67-121.8-125.33-182.7-187.99h-546.27zm71.74 73.846h438.66c49.277 52.61 98.555 105.22 147.83 157.83v690.76h-586.49v-848.59z" fill="#808080" id="unique228"></path><path d="m614.43 0.00072173c11.873-0.0025 55.782 0.0025 67.655-0.000004l182.71 174.26c0.0295 13.01 0.0914 41.354 0.12092 54.364h-250.48z" fill="#808080" id="unique229"></path><path d="m282.96 281.28c-1.2136 0-2.1914 0.97783-2.1914 2.1914v591.93c0 1.2136 0.97783 2.1914 2.1914 2.1914h434.08c1.2136 0 2.1914-0.97785 2.1914-2.1914v-591.93c0-1.2136-0.97783-2.1914-2.1914-2.1914h-434.08zm29.768 24.91h43.076c1.2136 0 2.1914 0.97784 2.1914 2.1914v42.045c0 1.2136-0.97785 2.1894-2.1914 2.1895h-43.076c-1.2136 0-2.1894-0.97589-2.1894-2.1895v-42.045c0-1.2136 0.97589-2.1914 2.1894-2.1914zm321.88 1.0332h43.076c1.2136 0 2.1914 0.97588 2.1914 2.1894v42.045c0 1.2136-0.97784 2.1914-2.1914 2.1914h-43.076c-1.2136 0-2.1894-0.97785-2.1894-2.1914v-42.045c0-1.2136 0.97588-2.1894 2.1894-2.1894zm-321.88 81.502h43.076c1.2136 0 2.1914 0.97784 2.1914 2.1914v42.045c0 1.2136-0.97785 2.1894-2.1914 2.1894h-43.076c-1.2136 0-2.1894-0.97589-2.1894-2.1894v-42.045c0-1.2136 0.97589-2.1914 2.1894-2.1914zm321.88 1.0312h43.076c1.2136 0 2.1914 0.97785 2.1914 2.1914v42.045c0 1.2136-0.97784 2.1894-2.1914 2.1894h-43.076c-1.2136 0-2.1894-0.97588-2.1894-2.1894v-42.045c0-1.2136 0.97588-2.1914 2.1894-2.1914zm-321.88 81.504h43.076c1.2136 0 2.1914 0.97589 2.1914 2.1894v42.045c0 1.2136-0.97785 2.1914-2.1914 2.1914h-43.076c-1.2136 0-2.1894-0.97784-2.1894-2.1914v-42.045c0-1.2136 0.97589-2.1894 2.1894-2.1894zm321.88 1.0312h43.076c1.2136 0 2.1914 0.97783 2.1914 2.1914v42.043c0 1.2136-0.97784 2.1914-2.1914 2.1914h-43.076c-1.2136 0-2.1894-0.97784-2.1894-2.1914v-42.043c0-1.2136 0.97588-2.1914 2.1894-2.1914zm-321.88 81.504h43.076c1.2136 0 2.1914 0.97589 2.1914 2.1895v42.045c0 1.2136-0.97785 2.1894-2.1914 2.1894h-43.076c-1.2136 0-2.1894-0.97589-2.1894-2.1894v-42.045c0-1.2136 0.97589-2.1895 2.1894-2.1895zm321.88 1.0312h43.076c1.2136 0 2.1914 0.9759 2.1914 2.1895v42.045c0 1.2136-0.97784 2.1914-2.1914 2.1914h-43.076c-1.2136 0-2.1894-0.97784-2.1894-2.1914v-42.045c0-1.2136 0.97588-2.1895 2.1894-2.1895zm-321.88 81.502h43.076c1.2136 0 2.1914 0.97784 2.1914 2.1914v42.045c0 1.2136-0.97785 2.1895-2.1914 2.1895h-43.076c-1.2136 0-2.1894-0.97589-2.1894-2.1895v-42.045c0-1.2136 0.97589-2.1914 2.1894-2.1914zm321.88 1.0312h43.076c1.2136 0 2.1914 0.97784 2.1914 2.1914v42.045c0 1.2136-0.97784 2.1895-2.1914 2.1895h-43.076c-1.2136 0-2.1894-0.97589-2.1894-2.1895v-42.045c0-1.2136 0.97588-2.1914 2.1894-2.1914zm-321.88 81.504h43.076c1.2136 0 2.1914 0.97588 2.1914 2.1895v42.045c0 1.2136-0.97785 2.1914-2.1914 2.1914h-43.076c-1.2136 0-2.1894-0.97783-2.1894-2.1914v-42.045c0-1.2136 0.97589-2.1895 2.1894-2.1895zm321.88 1.0312h43.076c1.2136 0 2.1914 0.97784 2.1914 2.1914v42.045c0 1.2136-0.97784 2.1894-2.1914 2.1894h-43.076c-1.2136 0-2.1894-0.97589-2.1894-2.1894v-42.045c0-1.2136 0.97588-2.1914 2.1894-2.1914zm-321.88 81.504h43.076c1.2136 0 2.1914 0.97589 2.1914 2.1894v42.045c0 1.2136-0.97785 2.1914-2.1914 2.1914h-43.076c-1.2136 0-2.1894-0.97785-2.1894-2.1914v-42.045c0-1.2136 0.97589-2.1894 2.1894-2.1894zm321.88 1.0312h43.076c1.2136 0 2.1914 0.97589 2.1914 2.1894v42.045c0 1.2136-0.97784 2.1914-2.1914 2.1914h-43.076c-1.2136 0-2.1894-0.97784-2.1894-2.1914v-42.045c0-1.2136 0.97588-2.1894 2.1894-2.1894z" fill="#808080" id="unique230"></path></symbol><symbol id="symbol-fi-video-hover"><path d="m206.4 0h438.66c49.277 57.188 98.555 114.38 147.83 171.56v750.87h-586.49v-922.44z" fill="#000000" fill-opacity=".25098" id="unique231"></path><path d="m134.66 0v999.58h730.68c-0.56928-270.53-1.1386-541.06-1.7078-811.59-60.9-62.67-121.8-125.33-182.7-187.99h-546.27zm71.74 73.846h438.66c49.277 52.61 98.555 105.22 147.83 157.83v690.76h-586.49v-848.59z" fill="#000000" id="unique232"></path><path d="m614.43 0.00072173c11.873-0.0025 55.782 0.0025 67.655-0.000004l182.71 174.26c0.0295 13.01 0.0914 41.354 0.12092 54.364h-250.48z" fill="#000000" id="unique233"></path><path d="m282.96 281.28c-1.2136 0-2.1914 0.97783-2.1914 2.1914v591.93c0 1.2136 0.97783 2.1914 2.1914 2.1914h434.08c1.2136 0 2.1914-0.97785 2.1914-2.1914v-591.93c0-1.2136-0.97783-2.1914-2.1914-2.1914h-434.08zm29.768 24.91h43.076c1.2136 0 2.1914 0.97784 2.1914 2.1914v42.045c0 1.2136-0.97785 2.1894-2.1914 2.1895h-43.076c-1.2136 0-2.1894-0.97589-2.1894-2.1895v-42.045c0-1.2136 0.97589-2.1914 2.1894-2.1914zm321.88 1.0332h43.076c1.2136 0 2.1914 0.97588 2.1914 2.1894v42.045c0 1.2136-0.97784 2.1914-2.1914 2.1914h-43.076c-1.2136 0-2.1894-0.97785-2.1894-2.1914v-42.045c0-1.2136 0.97588-2.1894 2.1894-2.1894zm-321.88 81.502h43.076c1.2136 0 2.1914 0.97784 2.1914 2.1914v42.045c0 1.2136-0.97785 2.1894-2.1914 2.1894h-43.076c-1.2136 0-2.1894-0.97589-2.1894-2.1894v-42.045c0-1.2136 0.97589-2.1914 2.1894-2.1914zm321.88 1.0312h43.076c1.2136 0 2.1914 0.97785 2.1914 2.1914v42.045c0 1.2136-0.97784 2.1894-2.1914 2.1894h-43.076c-1.2136 0-2.1894-0.97588-2.1894-2.1894v-42.045c0-1.2136 0.97588-2.1914 2.1894-2.1914zm-321.88 81.504h43.076c1.2136 0 2.1914 0.97589 2.1914 2.1894v42.045c0 1.2136-0.97785 2.1914-2.1914 2.1914h-43.076c-1.2136 0-2.1894-0.97784-2.1894-2.1914v-42.045c0-1.2136 0.97589-2.1894 2.1894-2.1894zm321.88 1.0312h43.076c1.2136 0 2.1914 0.97783 2.1914 2.1914v42.043c0 1.2136-0.97784 2.1914-2.1914 2.1914h-43.076c-1.2136 0-2.1894-0.97784-2.1894-2.1914v-42.043c0-1.2136 0.97588-2.1914 2.1894-2.1914zm-321.88 81.504h43.076c1.2136 0 2.1914 0.97589 2.1914 2.1895v42.045c0 1.2136-0.97785 2.1894-2.1914 2.1894h-43.076c-1.2136 0-2.1894-0.97589-2.1894-2.1894v-42.045c0-1.2136 0.97589-2.1895 2.1894-2.1895zm321.88 1.0312h43.076c1.2136 0 2.1914 0.9759 2.1914 2.1895v42.045c0 1.2136-0.97784 2.1914-2.1914 2.1914h-43.076c-1.2136 0-2.1894-0.97784-2.1894-2.1914v-42.045c0-1.2136 0.97588-2.1895 2.1894-2.1895zm-321.88 81.502h43.076c1.2136 0 2.1914 0.97784 2.1914 2.1914v42.045c0 1.2136-0.97785 2.1895-2.1914 2.1895h-43.076c-1.2136 0-2.1894-0.97589-2.1894-2.1895v-42.045c0-1.2136 0.97589-2.1914 2.1894-2.1914zm321.88 1.0312h43.076c1.2136 0 2.1914 0.97784 2.1914 2.1914v42.045c0 1.2136-0.97784 2.1895-2.1914 2.1895h-43.076c-1.2136 0-2.1894-0.97589-2.1894-2.1895v-42.045c0-1.2136 0.97588-2.1914 2.1894-2.1914zm-321.88 81.504h43.076c1.2136 0 2.1914 0.97588 2.1914 2.1895v42.045c0 1.2136-0.97785 2.1914-2.1914 2.1914h-43.076c-1.2136 0-2.1894-0.97783-2.1894-2.1914v-42.045c0-1.2136 0.97589-2.1895 2.1894-2.1895zm321.88 1.0312h43.076c1.2136 0 2.1914 0.97784 2.1914 2.1914v42.045c0 1.2136-0.97784 2.1894-2.1914 2.1894h-43.076c-1.2136 0-2.1894-0.97589-2.1894-2.1894v-42.045c0-1.2136 0.97588-2.1914 2.1894-2.1914zm-321.88 81.504h43.076c1.2136 0 2.1914 0.97589 2.1914 2.1894v42.045c0 1.2136-0.97785 2.1914-2.1914 2.1914h-43.076c-1.2136 0-2.1894-0.97785-2.1894-2.1914v-42.045c0-1.2136 0.97589-2.1894 2.1894-2.1894zm321.88 1.0312h43.076c1.2136 0 2.1914 0.97589 2.1914 2.1894v42.045c0 1.2136-0.97784 2.1914-2.1914 2.1914h-43.076c-1.2136 0-2.1894-0.97784-2.1894-2.1914v-42.045c0-1.2136 0.97588-2.1894 2.1894-2.1894z" fill="#000000" id="unique234"></path></symbol></defs><g id="icon-fi-adobe"><use xlink:href="#symbol-fi-adobe"></use></g><g id="icon-fi-adobe-hover"><use xlink:href="#symbol-fi-adobe-hover"></use></g><g id="icon-fi-archive"><use xlink:href="#symbol-fi-archive"></use></g><g id="icon-fi-archive-hover"><use xlink:href="#symbol-fi-archive-hover"></use></g><g id="icon-fi-audio"><use xlink:href="#symbol-fi-audio"></use></g><g id="icon-fi-audio-hover"><use xlink:href="#symbol-fi-audio-hover"></use></g><g id="icon-fi-binary"><use xlink:href="#symbol-fi-binary"></use></g><g id="icon-fi-binary-hover"><use xlink:href="#symbol-fi-binary-hover"></use></g><g id="icon-fi-config"><use xlink:href="#symbol-fi-config"></use></g><g id="icon-fi-config-hover"><use xlink:href="#symbol-fi-config-hover"></use></g><g id="icon-fi-crypt"><use xlink:href="#symbol-fi-crypt"></use></g><g id="icon-fi-crypt-hover"><use xlink:href="#symbol-fi-crypt-hover"></use></g><g id="icon-fi-db"><use xlink:href="#symbol-fi-db"></use></g><g id="icon-fi-db-hover"><use xlink:href="#symbol-fi-db-hover"></use></g><g id="icon-fi-ebook"><use xlink:href="#symbol-fi-ebook"></use></g><g id="icon-fi-ebook-hover"><use xlink:href="#symbol-fi-ebook-hover"></use></g><g id="icon-fi-folder"><use xlink:href="#symbol-fi-folder"></use></g><g id="icon-fi-folder-hover"><use xlink:href="#symbol-fi-folder-hover"></use></g><g id="icon-fi-folderup"><use xlink:href="#symbol-fi-folderup"></use></g><g id="icon-fi-folderup-hover"><use xlink:href="#symbol-fi-folderup-hover"></use></g><g id="icon-fi-font"><use xlink:href="#symbol-fi-font"></use></g><g id="icon-fi-font-hover"><use xlink:href="#symbol-fi-font-hover"></use></g><g id="icon-fi-gis"><use xlink:href="#symbol-fi-gis"></use></g><g id="icon-fi-gis-hover"><use xlink:href="#symbol-fi-gis-hover"></use></g><g id="icon-fi-image"><use xlink:href="#symbol-fi-image"></use></g><g id="icon-fi-image-hover"><use xlink:href="#symbol-fi-image-hover"></use></g><g id="icon-fi-markup"><use xlink:href="#symbol-fi-markup"></use></g><g id="icon-fi-markup-hover"><use xlink:href="#symbol-fi-markup-hover"></use></g><g id="icon-fi-officep"><use xlink:href="#symbol-fi-officep"></use></g><g id="icon-fi-officep-hover"><use xlink:href="#symbol-fi-officep-hover"></use></g><g id="icon-fi-offices"><use xlink:href="#symbol-fi-offices"></use></g><g id="icon-fi-offices-hover"><use xlink:href="#symbol-fi-offices-hover"></use></g><g id="icon-fi-officew"><use xlink:href="#symbol-fi-officew"></use></g><g id="icon-fi-officew-hover"><use xlink:href="#symbol-fi-officew-hover"></use></g><g id="icon-fi-oofficew"><use xlink:href="#symbol-fi-oofficew"></use></g><g id="icon-fi-oofficew-hover"><use xlink:href="#symbol-fi-oofficew-hover"></use></g><g id="icon-fi-shell"><use xlink:href="#symbol-fi-shell"></use></g><g id="icon-fi-shell-hover"><use xlink:href="#symbol-fi-shell-hover"></use></g><g id="icon-fi-source"><use xlink:href="#symbol-fi-source"></use></g><g id="icon-fi-source-hover"><use xlink:href="#symbol-fi-source-hover"></use></g><g id="icon-fi-tex"><use xlink:href="#symbol-fi-tex"></use></g><g id="icon-fi-tex-hover"><use xlink:href="#symbol-fi-tex-hover"></use></g><g id="icon-fi-text"><use xlink:href="#symbol-fi-text"></use></g><g id="icon-fi-text-hover"><use xlink:href="#symbol-fi-text-hover"></use></g><g id="icon-fi-unknown"><use xlink:href="#symbol-fi-unknown"></use></g><g id="icon-fi-unknown-hover"><use xlink:href="#symbol-fi-unknown-hover"></use></g><g id="icon-fi-video"><use xlink:href="#symbol-fi-video"></use></g><g id="icon-fi-video-hover"><use xlink:href="#symbol-fi-video-hover"></use></g></svg>