<svg xmlns="http://www.w3.org/2000/svg" height="1e3" width="1e3" version="1.1" viewBox="0 0 264.58333 264.58334">
 <g transform="translate(0 -32.417)">
  <g aria-label="B" fill="#808080">
   <path d="m210.45 172.95q9.0204 6.2016 14.658 15.645 5.6378 9.3023 5.6378 21.987 0 15.222-6.4834 25.793-6.3425 10.43-18.323 16.49-12.685 6.4834-29.316 9.1614-16.49 2.6779-38.901 2.6779h-103.88v-10.994q4.3693-0.42284 10.994-1.2685 6.6244-0.84567 9.3023-1.9732 5.2149-2.1142 7.0472-5.4968 1.9732-3.5236 1.9732-9.0204v-140.94q0-5.074-1.5504-8.4567-1.548-3.381-7.468-5.918-4.369-1.832-10.148-2.96-5.779-1.268-10.148-1.973v-10.994h108.67q41.015 0 59.197 11.276t18.182 33.263q0 10.148-4.0874 17.9-4.0874 7.611-11.698 13.249-6.9063 5.2149-16.49 9.0204-9.5842 3.8055-20.578 6.3425v2.678q10.994 1.1276 22.833 4.933 11.839 3.6646 20.578 9.5842zm-45.384-60.183q0-16.631-9.4433-25.934-9.3023-9.3023-28.048-9.3023-2.6779 0-7.0472 0.28189-4.2283 0.14094-7.3291 0.28189v74.137h7.3291q22.833 0 33.686-10.571 10.853-10.712 10.853-28.894zm9.8661 95.983q0-20.86-12.403-31.994-12.403-11.135-35.659-11.135-2.6779 0-7.1882 0.28189-4.3693 0.14094-6.4834 0.28189v73.15q1.2685 5.2149 7.8929 8.8795 6.6244 3.5236 16.068 3.5236 16.772 0 27.202-11.276 10.571-11.276 10.571-31.712z" stroke-width="1.6036px" fill="#808080"/>
  </g>
 </g>
</svg>
