<svg xmlns="http://www.w3.org/2000/svg" height="1e3" width="1e3" version="1.1" viewBox="0 0 1000 1000">
 <g aria-label="&lt;c&gt;" transform="matrix(3.7795 0 0 3.7795 20 -118.52)" stroke-width="0.774px" fill="#808080">
  <path d="m84.435 69.628-57.823 21.769 57.823 21.565v12.449l-71.905-28.435v-11.293l71.905-28.435z"/>
  <path d="m162.53 198.86q-5.034 2.9252-10.408 4.3538-5.3061 1.4966-10.884 1.4966-17.687 0-27.687-10.612-9.932-10.612-9.932-29.388t9.932-29.388q10-10.612 27.687-10.612 5.5102 0 10.748 1.4286 5.2381 1.4286 10.544 4.4218v13.129q-4.966-4.4218-10-6.3946-4.966-1.9728-11.293-1.9728-11.769 0-18.095 7.619-6.3265 7.619-6.3265 21.769 0 14.082 6.3265 21.769 6.3946 7.619 18.095 7.619 6.5306 0 11.701-1.9728 5.1701-2.0408 9.5918-6.2585z"/>
  <path d="m180.15 210.92v-12.39l71.905 28.435v11.293l-71.905 28.435v-12.449l57.823-21.565z"/>
 </g>
</svg>
