<svg xmlns="http://www.w3.org/2000/svg" height="1e3" width="1e3" version="1.1" viewBox="0 0 264.58333 264.58334">
 <g transform="translate(0 -32.417)">
  <g aria-label="H" fill="#808080">
   <path d="m235.82 264.71h-83.016v-10.007q3.3827-0.28189 9.7252-0.84567 6.4834-0.56378 8.8795-1.6913 4.2283-1.6913 6.2016-5.074 1.9732-3.5236 1.9732-9.0204v-71.18h-94.011v69.626q0 4.933 1.5504 8.3157 1.6913 3.3827 6.4834 5.9197 2.3961 1.2685 8.4567 2.537 6.2016 1.2685 9.7252 1.4094v10.007h-83.012v-10.007q3.3827-0.28189 9.7252-0.84567 6.4834-0.56378 8.8795-1.6913 4.2283-1.6913 6.2016-5.074 1.9732-3.5236 1.9732-9.0204v-144.33q0-4.5102-1.8323-8.1748-1.833-3.802-6.343-5.917-3.806-1.832-9.303-3.241-5.356-1.41-9.302-1.692v-10.007h83.016v10.007q-3.9464 0.14094-9.7252 1.2685-5.6378 1.1276-8.4567 2.1142-4.7921 1.6913-6.4834 5.6378-1.5504 3.9464-1.5504 8.5976v62.017h94.01v-60.607q0-4.5102-1.8323-8.1748-1.8323-3.8055-6.3425-5.9197-3.8055-1.8323-9.3023-3.2417-5.3559-1.4094-9.3023-1.6913v-10.008h83.016v10.007q-3.9464 0.14094-9.7252 1.2685-5.6378 1.1276-8.4567 2.1142-4.7921 1.6913-6.4834 5.6378-1.5504 3.9464-1.5504 8.5976v144.19q0 4.933 1.5504 8.3157 1.6913 3.3827 6.4834 5.9197 2.396 1.2685 8.4567 2.537 6.2016 1.2685 9.7252 1.4094z" stroke-width="1.6036px" fill="#808080"/>
  </g>
 </g>
</svg>
