<svg xmlns="http://www.w3.org/2000/svg" height="1e3" width="1e3" version="1.1" viewBox="0 0 264.58333 264.58334">
 <g transform="translate(0 -32.417)">
  <g aria-label="I" fill="#808080">
   <path d="m200.37 64.708-2.1142 9.3023q-4.3693 0.14094-11.416 1.2685-7.0472 1.1276-10.43 2.1142-5.9197 1.8323-8.4567 5.6378t-3.6646 8.3157l-33.83 146.16q-0.28189 0.98661-0.42283 2.2551-0.14095 1.2685-0.14095 2.2551 0 3.2417 1.4094 5.4968t5.074 3.9464q2.1142 0.98661 9.3023 2.396 7.1882 1.2685 10.712 1.5504l-2.1142 9.3023h-90.064l2.1142-9.3023q3.9464-0.28189 11.276-0.84567 7.3291-0.56378 10.43-1.6913 5.4968-1.9732 8.3157-5.3559 2.8189-3.5236 3.8055-8.4567l33.686-146.3q0.28188-1.2685 0.42283-2.537 0.14094-1.2685 0.14094-2.537 0-2.8189-1.2685-4.9331-1.1276-2.1142-4.933-3.8055-3.8055-1.6913-10.43-3.1008-6.4834-1.5504-9.5842-1.8323l2.1142-9.3023z" stroke-width="1.6036px" fill="#808080"/>
  </g>
 </g>
</svg>
