<svg xmlns="http://www.w3.org/2000/svg" height="1e3" width="1e3" version="1.1" viewBox="0 0 264.58333 264.58334">
 <g transform="translate(0 -32.417)">
  <g aria-label="🔗" fill="#808080">
   <path d="m232.45 100.3q0 11.864-5.9843 19.738-3.2546 4.3045-18.163 19.423-6.9291 7.3491-21.627 20.997-8.5039 6.9291-21.837 6.9291-7.3491 0-14.803-3.1496l-18.373 17.953q3.5696 9.5538 3.5696 15.538 0 11.864-6.7192 20.262-3.4646 4.3045-17.638 18.688-6.6142 6.9291-20.472 20.157-9.0289 7.874-22.257 7.874-14.278 0-25.197-10.814-10.814-10.709-10.814-24.882 0-12.808 6.9291-20.997 3.8845-4.6194 18.163-19.108 6.2992-6.5092 19.318-19.003 3.8845-3.3596 11.129-5.7743 6.8241-2.2047 12.388-2.2047 7.559 0 14.908 3.5696l18.268-18.478q-3.5696-5.7743-3.5696-15.118 0-9.3438 3.9895-16.588 3.5696-6.4042 15.748-18.583 9.1339-8.8189 18.268-17.638 2.7297-2.7297 8.5039-7.769 8.9239-6.6142 20.472-6.6142 14.488 0 25.092 10.604 10.709 10.499 10.709 24.987zm-23.622 0.20998q0-4.9344-3.5696-8.5039-3.4646-3.6745-8.294-3.6745-4.7244 0-7.874 2.7297-3.2546 3.4646-9.7638 10.184-7.0341 7.2441-19.318 19.738 2.4147-0.8399 4.8294-0.8399 4.7244 0 8.7139 3.7795 4.0945 3.7795 4.0945 8.5039 0 2.0997-1.1549 5.1444 13.438-13.333 21.837-22.047 3.3596-3.0446 9.0289-9.7638 1.4698-2.4147 1.4698-5.2493zm15.538-0.31496q0-11.129-8.189-19.213-8.189-8.189-19.318-8.189-10.604 0-16.903 5.3543-4.0945 3.4646-19.633 19.003-6.0892 5.8793-17.533 18.163-5.3543 6.4042-5.3543 16.903 0 6.9291 1.8898 8.6089 2.0997-2.0997 6.4042-6.1942-0.10499-1.2598-0.10499-2.2047 0-8.294 3.5696-12.388 2.5197-2.8346 20.157-20.472 5.3543-5.6693 17.008-15.958 4.1995-3.0446 10.499-3.0446 8.084 0 13.753 5.8793 5.6693 5.7743 5.6693 13.858 0 6.6142-3.0446 11.129-3.5696 5.2494-10.499 11.654-5.8793 5.1444-11.759 10.394-5.4593 5.5643-10.814 11.129-7.2441 6.6142-13.333 6.6142-0.62992 0-1.7848-0.10499-1.1548-0.20997-1.7848-0.20997-0.73491 0-7.1391 7.0341 4.1995 1.6798 9.0289 1.6798 7.769 0 13.123-3.3596 3.6745-2.3097 17.533-15.958 7.559-7.0341 15.013-14.068 9.4488-9.4488 11.968-16.063 1.5748-4.0945 1.5748-9.9738zm-55.118 32.441q-1.0499-3.7795-5.0394-4.7244-6.7192 5.9842-37.06 36.22-31.811 31.601-31.811 32.966 0 1.0499 1.5748 2.9396 1.5748 1.7848 2.6247 1.7848 1.3648 0 33.281-31.916 30.761-30.761 36.43-37.27zm-42.1 64.672q0-5.1444-1.4698-8.8189-2.3097 1.6798-4.7244 3.4646-2.5197 2.2047-2.5197 4.9344 0 0.62992 0.10499 1.8898 0.10498 1.2598 0.10498 1.8898 0 3.5696-2.3097 7.0341-2.5197 3.7795-19.318 20.472-16.693 16.693-19.738 18.268-4.7244 2.4147-9.5538 2.4147-8.084 0-13.963-5.7743-5.7743-5.6693-5.7743-13.753 0-7.979 4.9344-13.333 1.6798-1.8898 19.948-19.738 5.4593-5.7743 15.958-15.328 3.8845-2.8346 10.184-2.8346 0.41995 0 1.2598 0.20997 0.83989 0.10499 1.2598 0.10499 0.8399 0 6.7192-6.9291-4.0945-1.7848-8.7139-1.7848-9.3438 0-16.273 5.7743-6.8241 5.6693-23.202 22.152-5.3543 5.1444-15.223 15.853-4.6194 5.6693-4.6194 15.853 0 11.234 8.189 19.423t19.318 8.189q10.079 0 16.483-5.3543 5.1444-4.3045 21.837-20.997 5.5643-5.3543 16.063-16.798 5.0394-6.1942 5.0394-16.483zm-22.782 12.073q-2.0997 0.52493-4.1995 0.52493-4.9344 0-8.9239-4.1995-3.9895-4.3045-3.9895-9.2388 0-1.8898 0.52493-4.0945-10.289 9.4488-29.291 29.606-2.7297 3.2546-2.7297 7.0341 0 4.8294 3.5696 8.189 3.5696 3.4646 8.399 3.4646 4.5144 0 6.8241-1.6798 1.1549-0.8399 8.8189-8.399 7.0341-7.1391 20.997-21.207z" stroke-width="1.1945px" fill="#808080"/>
  </g>
 </g>
</svg>
