<svg xmlns="http://www.w3.org/2000/svg" height="1e3" width="1e3" version="1.1" viewBox="0 0 264.58333 264.58334">
 <g fill="#808080" transform="translate(0 -32.417)">
  <path d="m94.797 64.749h145.47v47.571h-145.47z"/>
  <path d="m95.911 140.92h145.47v47.572h-145.47z"/>
  <path d="m95.911 217.14h145.47v47.572h-145.47z"/>
  <g aria-label="1">
   <path d="m61.042 112.32h-29.017v-3.0567q1.2915-0.0861 4.0038-0.34441 2.7553-0.30136 3.7885-0.60272 1.3346-0.43052 2.0234-1.3776 0.73188-0.99019 0.73188-2.9275v-30.22h-10.72v-3.6163h2.3678q4.6496 0 8.309-1.7221 3.7024-1.7221 5.2953-3.7024h3.5733q-0.12916 2.7984-0.25831 6.5438-0.12916 3.7455-0.12916 6.716v25.53q0 1.5068 0.64577 2.7122 0.68882 1.1624 1.9373 1.7221 1.1193 0.47357 3.6594 0.86104 2.54 0.38746 3.7885 0.43051z" stroke-width=".48983px" fill="#808080"/>
  </g>
  <g aria-label="2">
   <path d="m66.617 188.49h-40.339v-5.855q1.1624-1.3346 3.2289-2.9706 2.0665-1.679 4.9079-3.6163 1.7221-1.1624 4.133-2.54t5.4676-3.0136q3.4011-1.8082 5.2092-3.1858 1.8512-1.3776 3.358-3.4011 0.99019-1.3346 1.5929-3.315 0.60272-2.0234 0.60272-5.7259 0-5.3814-2.8845-7.8784-2.8845-2.54-7.4049-2.54-2.7984 0-5.2953 1.1193-2.497 1.0763-3.7455 3.0136 0.30136 1.3776 0.73188 3.2719 0.47357 1.8943 0.47357 3.7024 0 1.636-1.3777 2.9275-1.3346 1.2485-4.0038 1.2485-2.1526 0-3.315-1.4638-1.1624-1.5068-1.1624-4.0038 0-2.3248 1.2915-4.6496 1.2915-2.3678 3.7024-4.3482 2.3678-1.9373 5.855-3.1428 3.4872-1.2054 7.534-1.2054 8.8256 0 13.992 3.9607 5.2092 3.9177 5.2092 10.505 0 3.1428-0.94714 5.7259-0.90408 2.5831-2.9706 4.5635-2.2817 2.1956-5.3384 3.7885-3.0567 1.5498-9.3422 4.3482-3.7455 1.679-6.9744 3.5302-3.2289 1.8082-5.2953 3.5302h33.107z" stroke-width=".48983px" fill="#808080"/>
  </g>
  <g aria-label="3">
   <path d="m43.95 272.57q-4.0468 0-7.4049-1.0332-3.358-0.99018-5.7689-2.7122-2.4109-1.7221-3.7455-3.9607-1.2915-2.2387-1.2915-4.6065 0-2.1095 1.0332-3.7885 1.0332-1.7221 3.315-1.7221 2.5831 0 3.9177 1.2916 1.3777 1.2485 1.3777 2.8845 0 1.3776-0.47357 3.4872-0.43052 2.1095-0.68883 3.0136 0.30136 0.38746 1.0763 1.0332 0.81798 0.64578 1.9804 1.1624 1.3777 0.64577 2.8845 1.0332 1.5068 0.38746 4.2621 0.38746 2.5831 0 4.9509-0.86103 2.4109-0.86103 4.2191-2.7553 1.8943-1.9804 2.9275-4.6496 1.0763-2.6262 1.0763-6.9313 0-2.3248-0.51662-4.6065-0.47357-2.2817-1.8082-3.9608-1.3346-1.679-3.6594-2.5831-2.2817-0.94714-5.812-0.94714h-5.6398v-4.9509h3.7455q5.9411 0 8.5673-3.2719 2.6261-3.2719 2.6261-9.8588 0-5.3814-2.54-8.0937-2.54-2.7553-7.1896-2.7553-2.2387 0-3.7024 0.55967-1.4207 0.51662-2.3248 1.0332-1.0763 0.60272-1.7651 1.3346-0.68882 0.73187-1.0332 1.0763 0.30136 1.3776 0.73188 3.4011 0.43052 1.9804 0.43052 3.7885 0 1.5929-1.3777 2.8845-1.3346 1.2485-3.9607 1.2485-2.2817 0-3.358-1.636-1.0332-1.636-1.0332-3.7885 0-2.2387 1.2485-4.5635t3.7024-4.3482 5.9842-3.2719q3.5302-1.2485 8.1368-1.2485 5.2953 0 8.7395 1.5929 3.4872 1.5498 5.4676 3.7885 1.9373 2.1956 2.6692 4.6065 0.73188 2.4109 0.73188 4.133 0 2.1526-0.60272 4.3482-0.60272 2.1526-1.9804 4.0038-1.5068 2.0234-4.0038 3.7024-2.4539 1.636-6.1994 2.6692v0.68883q2.4109 0.21525 5.1231 1.0763 2.7553 0.86103 4.9509 2.54 2.2817 1.7651 3.7455 4.5635 1.4638 2.7553 1.4638 7.0174 0 8.2659-6.6299 13.389-6.6299 5.1662-16.575 5.1662z" stroke-width=".48983px" fill="#808080"/>
  </g>
 </g>
</svg>
