<svg xmlns="http://www.w3.org/2000/svg" height="1e3" width="1e3" version="1.1" viewBox="0 0 264.58333 264.58334">
 <g transform="translate(0 -32.417)">
  <g aria-label="P" fill="#808080">
   <path d="m209.32 114.04q0 15.645-6.2016 27.766-6.0606 11.98-16.913 19.873-10.712 7.8929-23.538 11.557-12.826 3.6646-27.202 3.6646h-22.41v60.606q0 4.933 1.5504 8.7386 1.6913 3.6646 6.7653 5.6378 2.537 0.98661 8.8795 1.8323 6.4834 0.84566 11.839 0.98661v10.007h-85.828v-10.007q3.3827-0.28189 9.7252-0.98661 6.4834-0.70473 9.0204-1.8323 4.2283-1.8323 6.0606-5.3559 1.9732-3.5236 1.9732-9.0204v-144.32q0-4.9331-1.4094-8.8795-1.41-3.947-6.625-5.92-5.356-1.832-10.712-2.537-5.215-0.846-9.02-1.128v-10.007h91.332q27.907 0 45.243 13.531 17.477 13.39 17.477 35.8zm-42.847 34.109q4.7921-6.7653 6.3425-13.953 1.5504-7.3291 1.5504-13.108 0-8.0338-1.9732-16.35-1.8323-8.3157-6.4834-14.517-4.933-6.6244-12.967-10.289-8.0338-3.6646-20.014-3.6646h-19.873v88.372h14.376q15.222 0 24.665-4.6512 9.5842-4.7921 14.376-11.839z" stroke-width="1.6036px" fill="#808080"/>
  </g>
 </g>
</svg>
