<svg xmlns="http://www.w3.org/2000/svg" height="1e3" width="1e3" version="1.1" viewBox="0 0 264.58333 264.58334">
 <g transform="translate(0 -32.417)">
  <g aria-label="🖶">
   <path d="m232.29 244.71q0 13.379-3.3784 16.757-3.2433 3.2433-16.622 3.2433h-160q-13.379 0-16.757-3.2433-3.2433-3.3784-3.2433-16.757v-53.379q0-14.054 2.973-17.027t17.027-2.973h20.002v-106.62h120v106.62h20q14.054 0 17.027 2.973t2.973 17.027zm-46.62-73.38v-100h-106.76v100zm40 73.379v-53.379q0-9.3244-2.027-11.351-2.027-2.027-11.351-2.027h-160q-9.3244 0-11.351 2.027-2.0271 2.027-2.0271 11.351v53.379q0 8.6488 2.2973 11.081 2.4325 2.2973 11.081 2.2973h160q8.6488 0 10.946-2.2973 2.4325-2.4325 2.4325-11.081zm-56.75-146.76h-73.244v-6.6217h73.244zm0 26.757h-73.244v-6.7568h73.244zm0 26.622h-73.244v-6.6217h73.244zm33.379 69.46q0 10-10 10h-120.01q-10 0-10-10v-5.4055q0-6.2163 1.8919-8.1082t8.1082-1.8919h120q6.2163 0 8.1082 1.8919t1.8919 8.1082z" stroke-width="1.5375px" fill="#808080"/>
  </g>
 </g>
</svg>
