<svg xmlns="http://www.w3.org/2000/svg" height="1e3" width="1e3" version="1.1" viewBox="0 0 264.58333 264.58334">
 <g transform="translate(0 -32.417)">
  <g aria-label='&quot;&quot;' fill="#808080" stroke-width="1.6196px">
   <path d="m115.42 199.39c0 3.796-1.2337 11.103-3.7011 21.922-2.4674 10.818-5.2195 24.864-8.2562 42.135h-8.8256c-2.1827-14.045-4.6501-27.426-7.4021-40.142-2.6572-12.716-3.9858-20.688-3.9858-23.915 0-4.3654 1.3286-8.1139 3.9858-11.246 2.6572-3.1317 6.6904-4.6975 12.1-4.6975 5.2195 0 9.2052 1.5658 11.957 4.6975 2.7521 3.1317 4.1281 6.8802 4.1281 11.246zm-54.377 0c0 3.796-1.2337 11.103-3.7011 21.922-2.4674 10.818-5.2195 24.864-8.2562 42.135h-8.6833c-2.5623-16.133-5.1246-29.893-7.6868-41.281-2.4674-11.483-3.7011-19.075-3.7011-22.776 0-4.3654 1.3286-8.1139 3.9858-11.246 2.6572-3.1317 6.6904-4.6975 12.1-4.6975 5.1246 0 9.0629 1.5658 11.815 4.6975s4.1281 6.8802 4.1281 11.246z"/>
   <path d="m235.57 70.008c0 3.796-1.2337 11.103-3.7011 21.922-2.4674 10.818-5.2195 24.864-8.2562 42.135h-8.8256c-2.1827-14.045-4.6501-27.426-7.4021-40.142-2.6572-12.716-3.9858-20.688-3.9858-23.915 0-4.3654 1.3286-8.1139 3.9858-11.246 2.6572-3.1317 6.6904-4.6975 12.1-4.6975 5.2194 0 9.2052 1.5658 11.957 4.6975 2.7521 3.1317 4.1281 6.8802 4.1281 11.246zm-54.377 0c0 3.796-1.2337 11.103-3.7011 21.922-2.4674 10.818-5.2195 24.864-8.2562 42.135h-8.6833c-2.5623-16.133-5.1246-29.893-7.6868-41.281-2.4674-11.483-3.7011-19.075-3.7011-22.776 0-4.3654 1.3286-8.1139 3.9858-11.246 2.6572-3.1317 6.6904-4.6975 12.1-4.6975 5.1246 0 9.0629 1.5658 11.815 4.6975s4.1281 6.8802 4.1281 11.246z"/>
  </g>
 </g>
</svg>
