<svg xmlns="http://www.w3.org/2000/svg" height="1e3" width="1e3" version="1.1" viewBox="0 0 264.58333 264.58334">
 <g fill="#808080" transform="translate(0 -32.417)">
  <g aria-label="S">
   <path d="m186.28 172.82q6.0811 6.7568 8.9189 14.865 2.973 7.973 2.973 18.649 0 25.405-18.784 41.892-18.784 16.486-46.622 16.486-12.838 0-25.676-3.9189-12.838-4.0541-22.162-9.7297l-5.8108 9.8649h-10.814l-1.8919-65.676h10.946q3.3784 12.162 7.8378 22.027 4.5946 9.7297 12.027 18.243 7.027 7.973 16.351 12.703 9.4595 4.7297 21.892 4.7297 9.3243 0 16.216-2.4324 7.027-2.4324 11.351-6.8919 4.3243-4.4595 6.3514-10.405 2.1622-6.0811 2.1622-13.919 0-11.486-6.4865-21.351-6.4865-10-19.324-15.135-8.7838-3.5135-20.135-7.7027-11.351-4.3243-19.595-8.1081-16.216-7.2973-25.27-19.054-8.9189-11.892-8.9189-30.946 0-10.946 4.4595-20.405 4.4595-9.4595 12.703-16.892 7.8378-7.027 18.514-10.946 10.676-4.0541 22.297-4.0541 13.243 0 23.649 4.0541 10.541 4.0541 19.189 9.4595l5.5405-9.1892h10.811l1.0811 63.649h-10.946q-2.973-10.946-6.7568-20.946-3.6486-10-9.5946-18.108-5.8108-7.8378-14.189-12.432-8.3784-4.7297-20.541-4.7297-12.838 0-21.892 8.2432-9.0541 8.2432-9.0541 20.135 0 12.432 5.8108 20.676 5.8108 8.1081 16.892 13.378 9.8649 4.7297 19.324 8.2432 9.5946 3.3784 18.514 7.2973 8.1081 3.5135 15.541 7.973 7.5676 4.4595 13.108 10.405z" stroke-width="1.5375px" fill="#808080"/>
  </g>
  <path d="m16.971 147.12h230.64v35.169h-230.64z"/>
 </g>
</svg>
