<svg xmlns="http://www.w3.org/2000/svg" height="1e3" width="1e3" version="1.1" viewBox="0 0 264.58333 264.58334">
 <g transform="translate(0 -32.417)" fill="#000000">
  <path d="m130.79 124.78c-27.114 0.009-50.508 21.574-56.053 51.671-0.60886-2.1891-1.3669-3.3851-2.1487-3.3903-1.8964-0.00075-3.4338 6.8611-3.4338 15.326-0.000007 8.4648 1.5374 15.327 3.4338 15.326 0.65759-0.00032 1.3013-0.84353 1.8547-2.4294 1.6296 10.103 5.3487 19.624 10.852 27.781-37.24 6.8762-64.168 50.047-71.91 67.798h235.08c-7.7461-17.752-34.954-60.923-72.199-67.797 5.5412-8.224 9.2692-17.83 10.873-28.019 0.57003 1.7358 1.244 2.6646 1.934 2.6654 1.8962-0.00079 3.4332-6.8622 3.4332-15.326 0.00001-8.4637-1.537-15.325-3.4332-15.326-0.81618 0.006-1.6052 1.31-2.2255 3.6775-5.4416-30.214-28.866-51.925-56.06-51.958z"/>
  <path d="m956.21 38.275a216.49 307.67 0 0 0 -211.86 244.74 12.977 72.593 0 0 0 -8.12 -16.06 12.977 72.593 0 0 0 -12.97 72.59 12.977 72.593 0 0 0 1.02 28.3c6.46 12.63 12.13 25.57 16.98 38.62a12.977 72.593 0 0 0 1.98 -5.83 216.49 307.67 0 0 0 6.08 34.61c5.88 18.76 20.19 33.61 28.9 51.27 10.47 49.81 13.19 103.43-0.11 153.19-14.96 24.34-25.64 51.41-32.67 79.35h655.06a452.93 255.01 0 0 0 -272.4 -186.82 216.49 307.67 0 0 0 41.1 -132.72 12.977 72.593 0 0 0 7.3 12.63 12.977 72.593 0 0 0 13 -72.6 12.977 72.593 0 0 0 -13 -72.59 12.977 72.593 0 0 0 -8.4 17.42 216.49 307.67 0 0 0 -211.89 -246.1z" transform="matrix(.26458 0 0 .26458 0 32.417)"/>
  <path d="m45.338 38.275a216.49 307.67 0 0 0 -211.86 244.74 12.977 72.593 0 0 0 -8.12 -16.06 12.977 72.593 0 0 0 -12.98 72.59 12.977 72.593 0 0 0 12.98 72.6 12.977 72.593 0 0 0 7.01 -11.51 216.49 307.67 0 0 0 41.02 131.59 452.93 255.01 0 0 0 -272.3 186.83h655.49c0.03-1.65-0.62-3.67-2.22-6.19-8.1-31.15-25.33-59.21-35.59-89.75-3.76-45.85-8.67-94.87 6.4-139.74 12.86-15.19 21.21-32.85 27.53-51.41a216.49 307.67 0 0 0 5.62 -32.45 12.977 72.593 0 0 0 2.07 6.37c0.01-0.05 0.02-0.09 0.03-0.14 4.79-13.73 10.6-27.29 17.34-40.48a12.977 72.593 0 0 0 0.85 -25.72 12.977 72.593 0 0 0 -12.98 -72.59 12.977 72.593 0 0 0 -8.41 17.42 216.49 307.67 0 0 0 -211.88 -246.1z" transform="matrix(.26458 0 0 .26458 0 32.417)"/>
 </g>
</svg>
