<svg xmlns="http://www.w3.org/2000/svg" height="1e3" width="1e3" version="1.1" viewBox="0 0 1000 1000">
 <g aria-label="ðŸ‘" transform="matrix(5.173 0 0 5.173 -1431.2 -1415.3)" fill="#000000">
  <path fill="#000000" d="m460.78 370.29q-13.184 23.818-36.738 36.387-22.5 12.041-50.625 12.041-28.213 0-50.625-12.041-23.555-12.568-36.914-36.387 13.447-23.906 36.826-36.475 22.412-12.041 50.713-12.041 28.213 0 50.625 12.041 23.555 12.568 36.738 36.475zm-16.611 0q-17.227-30.234-54.316-36.387 11.074 4.7461 17.666 14.59 6.5918 9.7559 6.5918 21.797 0 11.777-6.5039 21.621-6.5039 9.8438-17.314 14.678 36.826-6.2402 53.877-36.299zm-38.496 0q0-13.271-9.5801-22.412-9.4922-9.2285-22.764-9.2285-6.9434 0-13.359 2.9004l-3.3398-7.6465q-37.002 6.3281-54.141 36.387 17.051 29.971 53.789 36.299-10.811-4.834-17.314-14.678-6.416-9.8438-6.416-21.621 0-7.207 2.5488-14.062l8.1738 2.5488q-2.2852 5.7129-2.2852 11.514 0 13.271 9.4922 22.5 9.4922 9.1406 22.852 9.1406 13.359 0 22.852-9.1406 9.4922-9.2285 9.4922-22.5zm-7.9102 0q0 10.02-7.207 17.051-7.207 6.9434-17.227 6.9434-10.107 0-17.314-6.9434-7.1191-7.0312-7.1191-17.051 0-4.4824 1.4941-8.4375l24.961 11.338-11.689-24.785q4.7461-2.1094 9.668-2.1094 10.02 0 17.227 7.0312 7.207 6.9434 7.207 16.963z"/>
 </g>
</svg>
