<svg xmlns="http://www.w3.org/2000/svg" height="1e3" width="1e3" version="1.1" viewBox="0 0 264.58333 264.58334">
 <g transform="translate(0 -32.417)">
  <g transform="matrix(.34577 0 0 .34577 -26.451 -30.191)">
   <path d="m355.94 359.32c-1.143 124.8-0.30768 249.63-0.5659 374.45-43.026 3.8389-93.308 28.63-104.06 80.622 0.45466 28.044 27.652 40.569 49.052 38.204 37.937-2.465 77.914-22.601 98.678-59.856 10.562-18.382 2.6374-39.519 4.2969-59.609v-185.14l213.84-62.553v176.3c-41.838 3.9162-90.017 26.712-103.26 75.882-4.9843 27.792 22.811 45.048 44.214 42.976 38.595-0.83092 78.8-20.925 101.49-57.038 12.709-19.045 4.5433-42.311 6.0135-63.759 0.0901-128.45-0.96146-256.9-0.0275-385.34-103.23 28.287-206.45 56.574-309.68 84.86zm309.68-15.519v0.35796zm-48.436 5.9929v78.507l-213.84 59.127v-78.959c71.28-19.558 142.56-39.117 213.84-58.675z" fill="#000000"/>
  </g>
 </g>
</svg>
