<svg xmlns="http://www.w3.org/2000/svg" height="1e3" width="1e3" version="1.1" viewBox="0 0 264.58333 264.58334">
 <g transform="translate(0 -32.417)">
  <g transform="matrix(.39307 0 0 .39307 -64.241 -55.786)">
   <path d="m276.58 306.55h446.84c1.2136 0 2.1906 0.97699 2.1906 2.1906v504.44c0 1.2136-0.97699 2.1906-2.1906 2.1906h-446.84c-1.2136 0-2.1906-0.97698-2.1906-2.1906v-504.44c0-1.2136 0.97699-2.1906 2.1906-2.1906z" fill="#000000"/>
   <path d="m306.64 332.4h386.73c1.0903 0 1.968 0.87773 1.968 1.968v453.19c0 1.0903-0.87773 1.968-1.968 1.968h-386.73c-1.0903 0-1.968-0.87773-1.968-1.968v-453.19c0-1.0903 0.87773-1.968 1.968-1.968z" fill="#fff"/>
   <path d="m339.43 370.06h316.7c0.95188 0 1.7182 0.76632 1.7182 1.7182v308.95c0 0.95188-0.76631 1.7182-1.7182 1.7182h-316.7c-0.95187 0-1.7182-0.76631-1.7182-1.7182v-308.95c0-0.95187 0.76632-1.7182 1.7182-1.7182z" fill="#000000"/>
  </g>
 </g>
</svg>
