<svg xmlns="http://www.w3.org/2000/svg" height="1e3" width="1e3" version="1.1" viewBox="0 0 264.58333 264.58334">
 <g transform="translate(0 -32.417)">
  <g transform="matrix(.33539 0 0 .33539 -35.406 -29.631)">
   <path d="m282.96 281.28c-1.2136 0-2.1914 0.97783-2.1914 2.1914v591.93c0 1.2136 0.97783 2.1914 2.1914 2.1914h434.08c1.2136 0 2.1914-0.97785 2.1914-2.1914v-591.93c0-1.2136-0.97783-2.1914-2.1914-2.1914zm29.768 24.91h43.076c1.2136 0 2.1914 0.97784 2.1914 2.1914v42.045c0 1.2136-0.97785 2.1894-2.1914 2.1895h-43.076c-1.2136 0-2.1894-0.97589-2.1894-2.1895v-42.045c0-1.2136 0.97589-2.1914 2.1894-2.1914zm321.88 1.0332h43.076c1.2136 0 2.1914 0.97588 2.1914 2.1894v42.045c0 1.2136-0.97784 2.1914-2.1914 2.1914h-43.076c-1.2136 0-2.1894-0.97785-2.1894-2.1914v-42.045c0-1.2136 0.97588-2.1894 2.1894-2.1894zm-321.88 81.502h43.076c1.2136 0 2.1914 0.97784 2.1914 2.1914v42.045c0 1.2136-0.97785 2.1894-2.1914 2.1894h-43.076c-1.2136 0-2.1894-0.97589-2.1894-2.1894v-42.045c0-1.2136 0.97589-2.1914 2.1894-2.1914zm321.88 1.0312h43.076c1.2136 0 2.1914 0.97785 2.1914 2.1914v42.045c0 1.2136-0.97784 2.1894-2.1914 2.1894h-43.076c-1.2136 0-2.1894-0.97588-2.1894-2.1894v-42.045c0-1.2136 0.97588-2.1914 2.1894-2.1914zm-321.88 81.504h43.076c1.2136 0 2.1914 0.97589 2.1914 2.1894v42.045c0 1.2136-0.97785 2.1914-2.1914 2.1914h-43.076c-1.2136 0-2.1894-0.97784-2.1894-2.1914v-42.045c0-1.2136 0.97589-2.1894 2.1894-2.1894zm321.88 1.0312h43.076c1.2136 0 2.1914 0.97783 2.1914 2.1914v42.043c0 1.2136-0.97784 2.1914-2.1914 2.1914h-43.076c-1.2136 0-2.1894-0.97784-2.1894-2.1914v-42.043c0-1.2136 0.97588-2.1914 2.1894-2.1914zm-321.88 81.504h43.076c1.2136 0 2.1914 0.97589 2.1914 2.1895v42.045c0 1.2136-0.97785 2.1894-2.1914 2.1894h-43.076c-1.2136 0-2.1894-0.97589-2.1894-2.1894v-42.045c0-1.2136 0.97589-2.1895 2.1894-2.1895zm321.88 1.0312h43.076c1.2136 0 2.1914 0.9759 2.1914 2.1895v42.045c0 1.2136-0.97784 2.1914-2.1914 2.1914h-43.076c-1.2136 0-2.1894-0.97784-2.1894-2.1914v-42.045c0-1.2136 0.97588-2.1895 2.1894-2.1895zm-321.88 81.502h43.076c1.2136 0 2.1914 0.97784 2.1914 2.1914v42.045c0 1.2136-0.97785 2.1895-2.1914 2.1895h-43.076c-1.2136 0-2.1894-0.97589-2.1894-2.1895v-42.045c0-1.2136 0.97589-2.1914 2.1894-2.1914zm321.88 1.0312h43.076c1.2136 0 2.1914 0.97784 2.1914 2.1914v42.045c0 1.2136-0.97784 2.1895-2.1914 2.1895h-43.076c-1.2136 0-2.1894-0.97589-2.1894-2.1895v-42.045c0-1.2136 0.97588-2.1914 2.1894-2.1914zm-321.88 81.504h43.076c1.2136 0 2.1914 0.97588 2.1914 2.1895v42.045c0 1.2136-0.97785 2.1914-2.1914 2.1914h-43.076c-1.2136 0-2.1894-0.97783-2.1894-2.1914v-42.045c0-1.2136 0.97589-2.1895 2.1894-2.1895zm321.88 1.0312h43.076c1.2136 0 2.1914 0.97784 2.1914 2.1914v42.045c0 1.2136-0.97784 2.1894-2.1914 2.1894h-43.076c-1.2136 0-2.1894-0.97589-2.1894-2.1894v-42.045c0-1.2136 0.97588-2.1914 2.1894-2.1914zm-321.88 81.504h43.076c1.2136 0 2.1914 0.97589 2.1914 2.1894v42.045c0 1.2136-0.97785 2.1914-2.1914 2.1914h-43.076c-1.2136 0-2.1894-0.97785-2.1894-2.1914v-42.045c0-1.2136 0.97589-2.1894 2.1894-2.1894zm321.88 1.0312h43.076c1.2136 0 2.1914 0.97589 2.1914 2.1894v42.045c0 1.2136-0.97784 2.1914-2.1914 2.1914h-43.076c-1.2136 0-2.1894-0.97784-2.1894-2.1914v-42.045c0-1.2136 0.97588-2.1894 2.1894-2.1894z" fill="#808080"/>
  </g>
 </g>
</svg>
