<svg xmlns="http://www.w3.org/2000/svg" height="1e3" width="1e3" version="1.1" viewBox="0 0 1000 1000">
 <path fill="#808080" d="m189.13-0.015v621.69l188.07-320.46c449.11 331.52 144.69 543.83-188.07 698.79h305.51c520.43-219.46 272.82-679.44-28.2-841.09l344.43-158.92zm52.914 52.91h328.21c-30.572 14.168-61.079 28.194-91.742 42.049-41.558 4.8767-77.465 56.152-53.313 94.672 57.424 41.936 119.59 79.86 169.44 131.77 87.358 89.943 158.66 211.09 147.56 340.65-9.1495 111.84-96.077 199.4-189.67 251.25-43.605 31.424-98.577 37.236-150.26 34.533 32.382-19.713 63.8-41.039 93.764-64.273 86.95-64.25 162.93-162.55 159.79-275.62-7.73-125.11-95.23-228.07-189.43-302.58-29.61-26.86-67.48-66.63-111.62-50.01-48.28 48.7-77.85 113.57-112.71 172.3z"/>
</svg>
