<svg id="svg2" xmlns:rdf="http://www.w3.org/1999/02/22-rdf-syntax-ns#" xmlns="http://www.w3.org/2000/svg" height="1e3" viewBox="0 0 1000 1000" width="1e3" version="1.1" xmlns:cc="http://creativecommons.org/ns#" xmlns:dc="http://purl.org/dc/elements/1.1/">
 <g id="layer3">
  <path id="rect11064" fill-opacity=".26667" fill="#ed1c24" d="m206.4 0h438.66c49.277 57.188 98.555 114.38 147.83 171.56v750.87h-586.49v-922.44z"/>
 </g>
 <g id="layer1">
  <path id="rect10986" fill="#808080" d="m134.66 0v999.58h730.68c-0.56928-270.53-1.1386-541.06-1.7078-811.59-60.9-62.67-121.8-125.33-182.7-187.99h-546.27zm71.74 73.846h438.66c49.277 52.61 98.555 105.22 147.83 157.83v690.76h-586.49v-848.59z"/>
 </g>
 <g id="layer2">
  <path id="rect10999" fill="#ed1c24" d="m614.43 0.00072173c11.873-0.0025 55.782 0.0025 67.655-0.000004l182.71 174.26c0.0295 13.01 0.0914 41.354 0.12092 54.364h-250.48z"/>
 </g>
 <g id="layer4">
  <path id="rect31057" fill="#ed1c24" d="m242.78 264.4h514.43c1.6735 0 3.0207 1.3472 3.0207 3.0207v465.16c0 1.6735-1.3472 3.0207-3.0207 3.0207h-514.43c-1.6735 0-3.0207-1.3472-3.0207-3.0207v-465.16c0-1.6735 1.3472-3.0207 3.0207-3.0207z"/>
  <path id="path31059" fill="#fff" transform="matrix(.51287 -.77986 .74404 .53756 -150.37 691)" d="m533.23 859.13-326.83-474.74 574.55-45.67z"/>
  <path id="path31059-2" fill="#ed1c24" d="m666.81 736.25c-28.755-0.0133-57.51-0.0267-86.266-0.04-10.943-19.805-21.887-39.609-32.83-59.414-58.898 0-117.8-0.00001-176.69 0 43.675-79.491 87.35-158.98 131.03-238.47 54.385 99.637 109.61 198.76 164.77 297.93z"/>
 </g>
</svg>
