<svg id="svg2" xmlns:rdf="http://www.w3.org/1999/02/22-rdf-syntax-ns#" xmlns="http://www.w3.org/2000/svg" version="1.1" xmlns:cc="http://creativecommons.org/ns#" xmlns:dc="http://purl.org/dc/elements/1.1/" viewBox="0 0 1000 1000">
 <g id="layer3">
  <path id="rect11064" d="m206.4 68.455h438.66c49.277 52.952 98.555 105.9 147.83 158.86v695.25h-586.49v-854.11z" fill-opacity=".25098" fill="#e3d61b"/>
 </g>
 <g id="layer1">
  <path id="rect10986" d="m134.66 0v999.71h730.68c-0.57-270.57-1.14-541.13-1.71-811.7-60.9-62.67-121.8-125.34-182.7-188.01h-546.27zm71.74 73.856h438.66c49.277 52.617 98.555 105.23 147.83 157.85v690.86h-586.49v-848.71z" fill="#808080"/>
 </g>
 <g id="layer2">
  <path id="rect10999" d="m614.43 0.00072173c11.873-0.0025 55.782 0.0025 67.655-0.000004l182.71 174.26c0.0295 13.01 0.0914 41.354 0.12092 54.364h-250.48z" fill="#e3d61b"/>
 </g>
 <g id="layer4">
  <path id="path10958" d="m244.02 377.26 1.03 387.17 181.39-195.23-182.42-191.94zm511.97 0-182.42 191.94 181.39 195.23 1.0293-387.17zm-302.44 144.56c-1.2136 0-2.1895 0.97785-2.1895 2.1914v93.668c0 1.2136 0.9759 2.1894 2.1895 2.1894h92.914c1.2136 0 2.1914-0.97589 2.1914-2.1894v-93.668c0-1.2136-0.97783-2.1914-2.1914-2.1914h-92.914z" fill="#808080"/>
 </g>
</svg>
