<svg xmlns="http://www.w3.org/2000/svg" height="1e3" width="1e3" version="1.1" viewBox="0 0 1000 1000">
 <g>
  <path d="m206.4 0h438.66c49.277 57.188 98.555 114.38 147.83 171.56v750.87h-586.49v-922.44z" fill-opacity=".25098" fill="#1d8000"/>
  <path d="m497.85 344.41c54.748 0 107.25 21.749 145.97 60.466 38.712 38.712 60.466 91.218 60.466 145.97 0 54.748-21.751 107.25-60.466 145.97-38.712 38.712-91.218 60.466-145.97 60.466-92.982-0.0229-174.47-62.202-199.05-151.88h64.062c22.232 55.041 75.631 91.095 134.99 91.136 80.47 0 145.7-65.231 145.7-145.7 0-80.47-65.231-145.7-145.7-145.7-34.059 0.0446-67.027 12.02-93.175 33.846l53.327 16.096-163 64.791 50.99-176.7 12.879 55.38c37.964-34.737 87.526-54.047 138.98-54.143z" stroke-width=".49075" fill="#808080"/>
 </g>
 <g>
  <path d="m134.66 0v999.58h730.68c-0.56928-270.53-1.1386-541.06-1.7078-811.59-60.9-62.67-121.8-125.33-182.7-187.99h-546.27zm71.74 73.846h438.66c49.277 52.61 98.555 105.22 147.83 157.83v690.76h-586.49v-848.59z" fill="#808080"/>
 </g>
 <g>
  <path d="m614.43 0.00072173c11.873-0.0025 55.782 0.0025 67.655-0.000004l182.71 174.26c0.0295 13.01 0.0914 41.354 0.12092 54.364h-250.48z" fill="#1d8000"/>
 </g>
</svg>
