<svg id="svg2" xmlns:rdf="http://www.w3.org/1999/02/22-rdf-syntax-ns#" xmlns="http://www.w3.org/2000/svg" version="1.1" xmlns:cc="http://creativecommons.org/ns#" xmlns:dc="http://purl.org/dc/elements/1.1/" viewBox="0 0 1000 1000">
 <g id="layer3" fill="#808080">
  <path id="rect11064" d="m206.4 0h438.66c49.277 57.188 98.555 114.38 147.83 171.56v750.87h-586.49v-922.44z" fill-opacity=".25098"/>
  <g>
   <path id="path11052" d="m428.32 349.8c-29.059 0.00066-53.131 49.886-53.131 111.42-0.0001 61.536 24.072 111.42 53.131 111.42 29.059-0.00055 52.1-49.886 52.1-111.42 0.0001-61.536-23.041-111.42-52.1-111.42zm0 29.919c16.144 0.00048 28.715 50.735 28.715 81.503s-12.571 81.502-28.715 81.503c-16.144-0.00058-29.746-50.735-29.746-81.503s13.603-81.502 29.746-81.503z"/>
   <path id="path11052-3" d="m561.06 349.8c-29.059 0.00066-53.131 49.886-53.131 111.42-0.0001 61.536 24.072 111.42 53.131 111.42 29.059-0.00055 52.1-49.886 52.1-111.42 0.0001-61.536-23.041-111.42-52.1-111.42zm0 29.919c16.144 0.00048 28.715 50.735 28.715 81.503s-12.571 81.502-28.715 81.503c-16.144-0.00058-29.746-50.735-29.746-81.503s13.603-81.502 29.746-81.503z"/>
   <path id="path11052-5" d="m310.02 626.53c-29.059 0.00066-53.131 49.886-53.131 111.42-0.0001 61.536 24.072 111.42 53.131 111.42 29.059-0.00055 52.1-49.886 52.1-111.42 0.0001-61.536-23.041-111.42-52.1-111.42zm0 29.919c16.144 0.00048 28.715 50.735 28.715 81.503s-12.571 81.502-28.715 81.503c-16.144-0.00058-29.746-50.735-29.746-81.503s13.603-81.502 29.746-81.503z"/>
   <path id="path11052-5-6" d="m689.68 626.53c-29.059 0.00066-53.131 49.886-53.131 111.42-0.0001 61.536 24.072 111.42 53.131 111.42 29.059-0.00055 52.1-49.886 52.1-111.42 0.0001-61.536-23.041-111.42-52.1-111.42zm0 29.919c16.144 0.00048 28.715 50.735 28.715 81.503s-12.571 81.502-28.715 81.503c-16.144-0.00058-29.746-50.735-29.746-81.503s13.603-81.502 29.746-81.503z"/>
  </g>
 </g>
 <g id="layer1">
  <path id="rect10986" d="m134.66 0v999.58h730.68c-0.56928-270.53-1.1386-541.06-1.7078-811.59-60.9-62.67-121.8-125.33-182.7-187.99h-546.27zm71.74 73.846h438.66c49.277 52.61 98.555 105.22 147.83 157.83v690.76h-586.49v-848.59z" fill="#808080"/>
 </g>
 <g id="layer2">
  <path id="rect10999" d="m614.43 0.00072173c11.873-0.0025 55.782 0.0025 67.655-0.000004l182.71 174.26c0.0295 13.01 0.0914 41.354 0.12092 54.364h-250.48z" fill="#808080"/>
 </g>
 <g id="layer4" fill="#808080">
  <path id="rect10977" d="m257.02 349.8h76.09c1.2136 0 2.1906 0.97699 2.1906 2.1906v219.49c0 1.2136-0.97699 2.1906-2.1906 2.1906h-76.09c-1.2136 0-2.1906-0.97699-2.1906-2.1906v-219.49c0-1.2136 0.97698-2.1906 2.1906-2.1906z"/>
  <path id="rect10977-3" d="m655.25 349.8h76.09c1.2136 0 2.1906 0.97699 2.1906 2.1906v219.49c0 1.2136-0.97698 2.1906-2.1906 2.1906h-76.09c-1.2136 0-2.1906-0.97699-2.1906-2.1906v-219.49c0-1.2136 0.97698-2.1906 2.1906-2.1906z"/>
  <path id="rect10977-6" d="m398.01 626.53h76.09c1.2136 0 2.1906 0.97699 2.1906 2.1906v219.49c0 1.2136-0.97699 2.1906-2.1906 2.1906h-76.09c-1.2136 0-2.1906-0.97699-2.1906-2.1906v-219.49c0-1.2136 0.97699-2.1906 2.1906-2.1906z"/>
  <path id="rect10977-6-7" d="m524.57 626.53h76.09c1.2136 0 2.1906 0.97699 2.1906 2.1906v219.49c0 1.2136-0.97698 2.1906-2.1906 2.1906h-76.09c-1.2136 0-2.1906-0.97699-2.1906-2.1906v-219.49c0-1.2136 0.97698-2.1906 2.1906-2.1906z"/>
 </g>
</svg>
