<svg id="svg2" xmlns:rdf="http://www.w3.org/1999/02/22-rdf-syntax-ns#" xmlns="http://www.w3.org/2000/svg" height="1e3" width="1e3" version="1.1" xmlns:cc="http://creativecommons.org/ns#" xmlns:dc="http://purl.org/dc/elements/1.1/" viewBox="0 0 1000 1000">
 <g id="layer3">
  <path id="rect11064" d="m206.4 0h438.66c49.277 57.188 98.555 114.38 147.83 171.56v750.87h-586.49v-922.44z" fill-opacity=".25098" fill="#005aff"/>
  <path id="path62619" d="m459.99 271.69c-1.67 0-3.02 1.34-3.02 3.02v46.29a179.74 184.59 0 0 0 -52.51 22.91l-31.11-31.11c-1.19-1.18-3.09-1.18-4.27 0l-57.56 57.56c-1.19 1.18-1.19 3.09 0 4.27l33.08 33.08a179.74 184.59 0 0 0 -19.02 48.57h-45.32c-1.68 0-3.02 1.35-3.02 3.02v81.4c0 1.67 1.34 3.02 3.02 3.02h45.34a179.74 184.59 0 0 0 18.65 48.09l-31.79 31.79c-1.19 1.19-1.19 3.09 0 4.28l56.57 56.57c1.19 1.18 3.09 1.18 4.27 0l29.32-29.32a179.74 184.59 0 0 0 54.35 23.9v40.08c0 1.67 1.35 3.02 3.02 3.02h80.02c1.67 0 3.02-1.35 3.02-3.02v-40.11a179.74 184.59 0 0 0 50.94 -21.92l28.31 28.31c1.18 1.18 3.09 1.18 4.27 0l57.56-57.56c1.18-1.18 1.18-3.09 0-4.27l-29.63-29.63a179.74 184.59 0 0 0 19.94 -50.21h45.32c1.68 0 3.02-1.35 3.02-3.02v-81.4c0-1.67-1.34-3.02-3.02-3.02h-45.34a179.74 184.59 0 0 0 -20.96 -51.97l34.1-34.1c1.19-1.18 1.19-3.09 0-4.27l-56.57-56.57c-1.19-1.19-3.09-1.19-4.27 0l-33.19 33.18a179.74 184.59 0 0 0 -50.48 -21.58v-46.26c0-1.68-1.35-3.02-3.02-3.02h-80.02zm40.01 136.54a89.358 91.773 0 0 1 89.36 91.77 89.358 91.773 0 0 1 -89.36 91.77 89.358 91.773 0 0 1 -89.36 -91.77 89.358 91.773 0 0 1 89.36 -91.77zm0 57.07a35.045 34.698 0 0 0 -35.04 34.7 35.045 34.698 0 0 0 35.04 34.7 35.045 34.698 0 0 0 35.04 -34.7 35.045 34.698 0 0 0 -35.04 -34.7z" fill="#808080"/>
 </g>
 <g id="layer1">
  <path id="rect10986" d="m134.66 0v999.58h730.68c-0.56928-270.53-1.1386-541.06-1.7078-811.59-60.9-62.67-121.8-125.33-182.7-187.99h-546.27zm71.74 73.846h438.66c49.277 52.61 98.555 105.22 147.83 157.83v690.76h-586.49v-848.59z" fill="#808080"/>
 </g>
 <g id="layer2">
  <path id="rect10999" d="m614.43 0.00072173c11.873-0.0025 55.782 0.0025 67.655-0.000004l182.71 174.26c0.0295 13.01 0.0914 41.354 0.12092 54.364h-250.48z" fill="#005aff"/>
 </g>
</svg>
