<svg id="svg2" xmlns:rdf="http://www.w3.org/1999/02/22-rdf-syntax-ns#" xmlns="http://www.w3.org/2000/svg" height="1e3" width="1e3" version="1.1" xmlns:cc="http://creativecommons.org/ns#" xmlns:dc="http://purl.org/dc/elements/1.1/" viewBox="0 0 1000 1000">
 <g id="layer3">
  <path id="rect11064" d="m206.4 0h438.66c49.277 57.188 98.555 114.38 147.83 171.56v750.87h-586.49v-922.44z" fill-opacity=".25098" fill="#2ee62e"/>
  <path id="rect54734" d="m500 390.7c-108.08 0-195.7 73.63-195.7 164.45v0.02c-9.75 0-19.5 0.01-29.25 0-1.18-0.02-2.33 0.74-2.78 1.84-0.55 97.64-0.08 195.41-0.24 293.1-2.76 14.65 8.47 28.63 23.7 28.2 130.33 0.58 260.69 0.08 391.04 0.25 15.91 1.5 36.05-3.22 40.96-20.53 0.55-95.83 0.08-191.7 0.24-287.54-1.29-4.64 2.68-12.17-2.12-15.19-10.05-0.02-20.1-0.02-30.15-0.03v-0.12c0-90.82-87.62-164.45-195.7-164.45zm0 64.17c82.78 0 135.32 30.72 135.32 100.28v0.04c-89.05-0.07-178.11-0.02-267.17-0.01v-0.03c0-69.56 49.07-100.28 131.85-100.28z" fill="#808080"/>
 </g>
 <g id="layer1">
  <path id="rect10986" d="m134.66 0v999.58h730.68c-0.56928-270.53-1.1386-541.06-1.7078-811.59-60.9-62.67-121.8-125.33-182.7-187.99h-546.27zm71.74 73.846h438.66c49.277 52.61 98.555 105.22 147.83 157.83v690.76h-586.49v-848.59z" fill="#808080"/>
 </g>
 <g id="layer2">
  <path id="rect10999" d="m614.43 0.00072173c11.873-0.0025 55.782 0.0025 67.655-0.000004l182.71 174.26c0.0295 13.01 0.0914 41.354 0.12092 54.364h-250.48z" fill="#2ee62e"/>
 </g>
</svg>
