<svg id="svg2" xmlns:rdf="http://www.w3.org/1999/02/22-rdf-syntax-ns#" xmlns="http://www.w3.org/2000/svg" height="1e3" width="1e3" version="1.1" xmlns:cc="http://creativecommons.org/ns#" xmlns:dc="http://purl.org/dc/elements/1.1/" viewBox="0 0 1000 1000">
 <g id="layer3">
  <path id="rect11064" d="m206.4 0h438.66c49.277 57.188 98.555 114.38 147.83 171.56v750.87h-586.49v-922.44z" fill-opacity=".25098" fill="#ff3ffd"/>
  <path id="rect66649" d="m339.32 284.18c-36.74 0.69-57.74 36-56.56 74.35v71.33 71.33 71.33 71.33 71.33 71.33c0.61 47.64 21.41 73.89 56.56 74.35h53.55 53.55 53.55 53.54 53.55 53.55c35.35-0.69 55.22-26.08 56.57-74.35v-71.33-71.33-71.33-71.33-71.33-71.33c1.96-39.36-21.75-74.55-56.57-74.35h-53.55-53.55-53.54-53.55-53.55-53.55zm-3.89 82.93h329.14c1.67 0 3.02 1.34 3.02 3.02v100.83c0 1.67-1.35 3.02-3.02 3.02h-329.14c-1.67 0-3.02-1.35-3.02-3.02v-100.83c0-1.68 1.35-3.02 3.02-3.02zm0 151.97h329.14c1.67 0 3.02 1.35 3.02 3.03v100.82c0 1.68-1.35 3.03-3.02 3.03h-329.14c-1.67 0-3.02-1.35-3.02-3.03v-100.82c0-1.68 1.35-3.03 3.02-3.03zm0 151.98h329.14c1.67 0 3.02 1.35 3.02 3.02v100.83c0 1.68-1.35 3.02-3.02 3.02h-329.14c-1.67 0-3.02-1.34-3.02-3.02v-100.83c0-1.67 1.35-3.02 3.02-3.02z" fill="#808080"/>
 </g>
 <g id="layer1">
  <path id="rect10986" d="m134.66 0v999.58h730.68c-0.56928-270.53-1.1386-541.06-1.7078-811.59-60.9-62.67-121.8-125.33-182.7-187.99h-546.27zm71.74 73.846h438.66c49.277 52.61 98.555 105.22 147.83 157.83v690.76h-586.49v-848.59z" fill="#808080"/>
 </g>
 <g id="layer2">
  <path id="rect10999" d="m614.43 0.00072173c11.873-0.0025 55.782 0.0025 67.655-0.000004l182.71 174.26c0.0295 13.01 0.0914 41.354 0.12092 54.364h-250.48z" fill="#ff3ffd"/>
 </g>
</svg>
