<svg id="svg2" xmlns:rdf="http://www.w3.org/1999/02/22-rdf-syntax-ns#" xmlns="http://www.w3.org/2000/svg" height="1e3" width="1e3" version="1.1" xmlns:cc="http://creativecommons.org/ns#" xmlns:dc="http://purl.org/dc/elements/1.1/" viewBox="0 0 1000 1000">
 <g id="layer3">
  <path id="rect11064" d="m206.4 0h438.66c49.277 57.188 98.555 114.38 147.83 171.56v750.87h-586.49v-922.44z" fill-opacity=".25098" fill="#546cff"/>
  <path id="rect70627" d="m258.85 291.59v552.14c0.21658 22.589 15.317 42.292 32.788 42.458h416.73c18.349 0.23285 33.029-18.584 32.788-42.458v-552.14c0.0483-24.762-13.631-42.805-32.788-42.458h-416.73c-16.961 0.11413-33.055 18.991-32.788 42.458zm71.377 30.407h339.55c1.6734 0 3.0215 1.348 3.0215 3.0215v445.03c0 1.6734-1.348 3.0215-3.0215 3.0215h-339.55c-1.6734 0-3.0215-1.348-3.0215-3.0215v-445.03c0-1.6734 1.348-3.0215 3.0215-3.0215zm35.223 59.682c-1.1953 0-2.1582 0.96288-2.1582 2.1582v42.18c0 1.1953 0.96289 2.1582 2.1582 2.1582h269.11c1.1953 0 2.1582-0.96287 2.1582-2.1582v-42.18c0-1.1953-0.96289-2.1582-2.1582-2.1582zm0 97.732c-1.1953 0-2.1582 0.96288-2.1582 2.1582v42.18c0 1.1953 0.96289 2.1582 2.1582 2.1582h269.11c1.1953 0 2.1582-0.96288 2.1582-2.1582v-42.18c0-1.1953-0.96289-2.1582-2.1582-2.1582zm0 97.732c-1.1953 0-2.1582 0.96288-2.1582 2.1582v42.18c0 1.1953 0.96289 2.1582 2.1582 2.1582h269.11c1.1953 0 2.1582-0.96288 2.1582-2.1582v-42.18c0-1.1953-0.96289-2.1582-2.1582-2.1582zm0 97.734c-1.1953 0-2.1582 0.96288-2.1582 2.1582v42.18c0 1.1953 0.96289 2.1582 2.1582 2.1582h269.11c1.1953 0 2.1582-0.96288 2.1582-2.1582v-42.18c0-1.1953-0.96289-2.1582-2.1582-2.1582zm102.71 132.2h63.691c1.1953 0 2.1582 0.96289 2.1582 2.1582v26.912c0 1.1953-0.96289 2.1582-2.1582 2.1582h-63.691c-1.1953 0-2.1582-0.96288-2.1582-2.1582v-26.912c0-1.1953 0.96289-2.1582 2.1582-2.1582z" fill="#808080"/>
 </g>
 <g id="layer1">
  <path id="rect10986" d="m134.66 0v999.58h730.68c-0.56928-270.53-1.1386-541.06-1.7078-811.59-60.9-62.67-121.8-125.33-182.7-187.99h-546.27zm71.74 73.846h438.66c49.277 52.61 98.555 105.22 147.83 157.83v690.76h-586.49v-848.59z" fill="#808080"/>
 </g>
 <g id="layer2">
  <path id="rect10999" d="m614.43 0.00072173c11.873-0.0025 55.782 0.0025 67.655-0.000004l182.71 174.26c0.0295 13.01 0.0914 41.354 0.12092 54.364h-250.48z" fill="#546cff"/>
 </g>
</svg>
