<?xml version="1.0" encoding="UTF-8" standalone="no"?>
<svg xmlns="http://www.w3.org/2000/svg" height="1e3" viewBox="0 0 1000 1000" width="1e3" version="1.1">
 <path fill="#808080" d="m430.36 160.65v156.17h-390.46l0.002 520.37 0.17 0.84 0.461 0.69 0.686 0.46 0.842 0.17h915.88c1.19 0 2.16-0.96 2.16-2.16v-673.69l-0.17-0.84-0.46-0.69-0.69-0.46-0.84-0.17-527.58-0.69zm220.88 175.73h79.6c1.66 0 3 1.33 3 3v46.02a178.79 183.61 0 0 1 50.22 21.47l33.01-33.01c1.17-1.18 3.06-1.18 4.25 0l56.27 56.27c1.18 1.17 1.18 3.08 0 4.25l-33.92 33.92a178.79 183.61 0 0 1 20.85 51.69h45.1c1.67 0 3 1.34 3 3.01v80.96c0 1.67-1.33 3.01-3 3.01h-45.08a178.79 183.61 0 0 1 -19.84 49.94l29.48 29.48c1.17 1.17 1.17 3.07 0 4.24l-57.26 57.26c-1.17 1.17-3.07 1.17-4.25 0l-28.16-28.16a178.79 183.61 0 0 1 -50.67 21.8v39.9c0 1.66-1.34 3-3 3h-79.6c-1.66 0-3-1.34-3-3v-39.87a178.79 183.61 0 0 1 -54.06 -23.77l-29.17 29.16c-1.17 1.18-3.06 1.18-4.24 0l-56.27-56.27c-1.19-1.18-1.19-3.07 0-4.25l31.62-31.63a178.79 183.61 0 0 1 -18.55 -47.83h-45.1c-1.67 0-3.01-1.34-3.01-3.01v-80.96c0-1.67 1.34-3.01 3.01-3.01h45.08a178.79 183.61 0 0 1 18.91 -48.31l-32.9-32.9c-1.18-1.18-1.18-3.08 0-4.25l57.26-57.26c1.17-1.17 3.06-1.17 4.24 0l30.95 30.95a178.79 183.61 0 0 1 52.23 -22.79v-46.05c0-1.67 1.34-3 3-3zm39.8 135.82a88.884 91.287 0 0 0 -88.88 91.28 88.884 91.287 0 0 0 88.88 91.29 88.884 91.287 0 0 0 88.89 -91.29 88.884 91.287 0 0 0 -88.89 -91.28zm0 56.76a34.859 34.514 0 0 1 34.86 34.52 34.859 34.514 0 0 1 -34.86 34.52 34.859 34.514 0 0 1 -34.85 -34.52 34.859 34.514 0 0 1 34.85 -34.52z"/>
 <path fill="#fdd1a5" d="m41.657 103.06h341.15c0.97172 0 1.754 0.78229 1.754 1.754v155.58c0 0.97172-0.78229 1.754-1.754 1.754h-341.15c-0.97172 0-1.754-0.78229-1.754-1.754v-155.58c0-0.97172 0.78229-1.754 1.754-1.754z"/>
 <path fill="#e3b61b" d="m296.18 162.24h38.693c0.97172 0 1.754 0.78228 1.754 1.754v37.224c0 0.97172-0.78229 1.754-1.754 1.754h-38.693c-0.97172 0-1.754-0.78229-1.754-1.754v-37.224c0-0.97173 0.78229-1.754 1.754-1.754z"/>
</svg>
