<svg xmlns="http://www.w3.org/2000/svg" height="1e3" viewBox="0 0 1000 1000" width="1e3" version="1.1">
 <path fill="#808080" d="m430.36 160.65v156.17h-390.46l0.002 520.37 0.17 0.84 0.461 0.69 0.686 0.46 0.842 0.17h915.88c1.19 0 2.16-0.96 2.16-2.16v-673.69l-0.17-0.84-0.46-0.69-0.69-0.46-0.84-0.17-527.58-0.69zm50.29 106.04h266.16c1.24 0 2.24 1.62 2.24 3.63v31.61c0 2.01-1 3.62-2.24 3.62h-266.16c-1.25 0-2.25-1.61-2.25-3.62v-31.61c0-2.01 1-3.63 2.25-3.63zm1.38 80.73h429.95c2.01 0 3.62 1.61 3.62 3.62v31.61c0 2.01-1.61 3.63-3.62 3.63h-429.95c-2.01 0-3.63-1.62-3.63-3.63v-31.61c0-2.01 1.62-3.62 3.63-3.62zm0 80.72h429.95c2.01 0 3.62 1.62 3.62 3.63v31.61c0 2.01-1.61 3.63-3.62 3.63h-429.95c-2.01 0-3.63-1.62-3.63-3.63v-31.61c0-2.01 1.62-3.63 3.63-3.63zm0 80.73h429.95c2.01 0 3.62 1.62 3.62 3.63v31.61c0 2.01-1.61 3.62-3.62 3.62h-429.95c-2.01 0-3.63-1.61-3.63-3.62v-31.61c0-2.01 1.62-3.63 3.63-3.63zm0 80.73h429.95c2.01 0 3.62 1.61 3.62 3.62v31.61c0 2.01-1.61 3.63-3.62 3.63h-429.95c-2.01 0-3.63-1.62-3.63-3.63v-31.61c0-2.01 1.62-3.62 3.63-3.62zm0 80.72h429.95c2.01 0 3.62 1.62 3.62 3.63v31.61c0 2.01-1.61 3.63-3.62 3.63h-429.95c-2.01 0-3.63-1.62-3.63-3.63v-31.61c0-2.01 1.62-3.63 3.63-3.63zm0 80.73h429.95c2.01 0 3.62 1.62 3.62 3.62v31.62c0 2.01-1.61 3.62-3.62 3.62h-429.95c-2.01 0-3.63-1.61-3.63-3.62v-31.62c0-2 1.62-3.62 3.63-3.62z"/>
 <path fill="#fdd1a5" d="m41.657 103.06h341.15c0.97172 0 1.754 0.78229 1.754 1.754v155.58c0 0.97172-0.78229 1.754-1.754 1.754h-341.15c-0.97172 0-1.754-0.78229-1.754-1.754v-155.58c0-0.97172 0.78229-1.754 1.754-1.754z"/>
 <path fill="#e3b61b" d="m296.18 162.24h38.693c0.97172 0 1.754 0.78228 1.754 1.754v37.224c0 0.97172-0.78229 1.754-1.754 1.754h-38.693c-0.97172 0-1.754-0.78229-1.754-1.754v-37.224c0-0.97173 0.78229-1.754 1.754-1.754z"/>
</svg>
