<svg xmlns="http://www.w3.org/2000/svg" height="1e3" viewBox="0 0 1000 1000" width="1e3" version="1.1">
 <path fill="#808080" d="m430.36 160.65v156.17h-390.46l0.002 520.37 0.17 0.84 0.461 0.69 0.686 0.46 0.842 0.17h915.88c1.19 0 2.16-0.96 2.16-2.16v-673.69l-0.17-0.84-0.46-0.69-0.69-0.46-0.84-0.17-527.58-0.69zm233.3 201.55h37.09v36.32h0.06v136.33h110.06v48.94h-110.06v20.74h-37.22v-20.74h-29.43v-48.94h29.43v-136.33h0.07v-36.32zm-73.02 22.81l17.9 31.01-13.61 7.86-17.9-31.01 13.61-7.86zm183.13 0l13.61 7.86-17.91 31.01-13.6-7.86 17.9-31.01zm-257.95 69.14l31 17.9-7.86 13.61-31-17.9 7.86-13.61zm332.84 0l7.85 13.61-31 17.9-7.86-13.61 31.01-17.9zm-363.58 86.63h36.32v37.09h-36.32v-37.09zm357.93 0h36.32v37.09h-36.32v-37.09zm-304.11 92.21l7.86 13.6-31.01 17.91-7.85-13.61 31-17.9zm286.67 0l31.01 17.9-7.86 13.61-31.01-17.91 7.86-13.6zm-230.64 61.78l13.61 7.85-17.9 31.01-13.61-7.85 17.9-31.01zm174.54 0l17.91 31.01-13.61 7.85-17.9-31.01 13.6-7.85zm-105.81 25.35h37.09v36.33h-37.09v-36.33z"/>
 <path fill="#fdd1a5" d="m41.657 103.06h341.15c0.97172 0 1.754 0.78229 1.754 1.754v155.58c0 0.97172-0.78229 1.754-1.754 1.754h-341.15c-0.97172 0-1.754-0.78229-1.754-1.754v-155.58c0-0.97172 0.78229-1.754 1.754-1.754z"/>
 <path fill="#e3b61b" d="m296.18 162.24h38.693c0.97172 0 1.754 0.78228 1.754 1.754v37.224c0 0.97172-0.78229 1.754-1.754 1.754h-38.693c-0.97172 0-1.754-0.78229-1.754-1.754v-37.224c0-0.97173 0.78229-1.754 1.754-1.754z"/>
</svg>
