<?xml version="1.0" encoding="UTF-8" standalone="no"?>
<svg xmlns="http://www.w3.org/2000/svg" height="1e3" viewBox="0 0 1000 1000" width="1e3" version="1.1">
 <path fill="#808080" d="m430.36 160.65v156.17h-390.46l0.002 520.37 0.17 0.84 0.461 0.69 0.686 0.46 0.842 0.17h915.88c1.19 0 2.16-0.96 2.16-2.16v-673.69l-0.17-0.84-0.46-0.69-0.69-0.46-0.84-0.17-527.58-0.69zm237.74 198.67c55.77 0 109.27 22.16 148.71 61.6s61.6 92.93 61.6 148.71c-0.1 52.42-19.77 102.91-55.16 141.59l83.37 49.59-206.97 15.48 31.44-196.82 50.96 85.08c22.24-26.64 34.44-60.22 34.49-94.92 0-81.98-66.46-148.44-148.44-148.44s-148.44 66.46-148.44 148.44c0.05 60.47 36.78 114.88 92.85 137.53v65.26c-91.36-25.04-154.7-108.06-154.72-202.79 0-55.78 22.16-109.27 61.6-148.71s92.93-61.6 148.71-61.6z"/>
 <path fill="#fdd1a5" d="m41.657 103.06h341.15c0.97172 0 1.754 0.78229 1.754 1.754v155.58c0 0.97172-0.78229 1.754-1.754 1.754h-341.15c-0.97172 0-1.754-0.78229-1.754-1.754v-155.58c0-0.97172 0.78229-1.754 1.754-1.754z"/>
 <path fill="#e3b61b" d="m296.18 162.24h38.693c0.97172 0 1.754 0.78228 1.754 1.754v37.224c0 0.97172-0.78229 1.754-1.754 1.754h-38.693c-0.97172 0-1.754-0.78229-1.754-1.754v-37.224c0-0.97173 0.78229-1.754 1.754-1.754z"/>
</svg>
