<svg xmlns="http://www.w3.org/2000/svg" height="1e3" viewBox="0 0 1000 1000" width="1e3" version="1.1">
 <path fill="#808080" d="m430.36 160.65v156.17h-390.46l0.002 520.37 0.17 0.84 0.461 0.69 0.686 0.46 0.842 0.17h915.88c1.19 0 2.16-0.96 2.16-2.16v-673.69l-0.17-0.84-0.46-0.69-0.69-0.46-0.84-0.17-527.58-0.69zm461.51 57.93c-0.93 128.44 0.12 256.89 0.03 385.34-1.47 21.45 6.69 44.71-6.02 63.76-22.69 36.11-62.89 56.21-101.49 57.04-21.4 2.07-49.19-15.19-44.21-42.98 13.24-49.17 61.42-71.97 103.26-75.88v-176.3l-213.84 62.55v185.14c-1.66 20.09 6.27 41.23-4.3 59.61-20.76 37.25-60.74 57.39-98.67 59.86-21.4 2.36-48.6-10.16-49.06-38.21 10.76-51.99 61.04-76.78 104.06-80.62 0.26-124.82-0.57-249.65 0.57-374.45h-0.01c103.23-28.29 206.45-56.57 309.68-84.86zm-48.43 75.33l-213.84 58.68v78.96l213.84-59.13v-78.51z"/>
 <path fill="#fdd1a5" d="m41.657 103.06h341.15c0.97172 0 1.754 0.78229 1.754 1.754v155.58c0 0.97172-0.78229 1.754-1.754 1.754h-341.15c-0.97172 0-1.754-0.78229-1.754-1.754v-155.58c0-0.97172 0.78229-1.754 1.754-1.754z"/>
 <path fill="#e3b61b" d="m296.18 162.24h38.693c0.97172 0 1.754 0.78228 1.754 1.754v37.224c0 0.97172-0.78229 1.754-1.754 1.754h-38.693c-0.97172 0-1.754-0.78229-1.754-1.754v-37.224c0-0.97173 0.78229-1.754 1.754-1.754z"/>
</svg>
