<svg xmlns="http://www.w3.org/2000/svg" height="1e3" viewBox="0 0 1000 1000" width="1e3" version="1.1">
 <path fill="#808080" d="m430.36 160.65 527.58 0.69396 0.8414 0.16904 0.68566 0.46153 0.46152 0.68565 0.16904 0.8414v673.69c0 1.1953-0.9623 2.1576-2.1576 2.1576h-915.88l-0.8414-0.16904-0.68565-0.46153-0.46153-0.68565-0.16904-0.8414v-520.37h390.46z"/>
 <path fill="#fdd1a5" d="m41.657 103.06h341.15c0.97172 0 1.754 0.78229 1.754 1.754v155.58c0 0.97172-0.78229 1.754-1.754 1.754h-341.15c-0.97172 0-1.754-0.78229-1.754-1.754v-155.58c0-0.97172 0.78229-1.754 1.754-1.754z"/>
 <path fill="#e3b61b" d="m296.18 162.24h38.693c0.97172 0 1.754 0.78228 1.754 1.754v37.224c0 0.97172-0.78229 1.754-1.754 1.754h-38.693c-0.97172 0-1.754-0.78229-1.754-1.754v-37.224c0-0.97173 0.78229-1.754 1.754-1.754z"/>
 <g transform="translate(190.43 -39.3)">
  <path d="m276.58 306.55h446.84c1.2136 0 2.1906 0.97699 2.1906 2.1906v504.44c0 1.2136-0.97699 2.1906-2.1906 2.1906h-446.84c-1.2136 0-2.1906-0.97698-2.1906-2.1906v-504.44c0-1.2136 0.97699-2.1906 2.1906-2.1906z" fill="#808080"/>
  <path d="m306.64 332.4h386.73c1.0903 0 1.968 0.87773 1.968 1.968v453.19c0 1.0903-0.87773 1.968-1.968 1.968h-386.73c-1.0903 0-1.968-0.87773-1.968-1.968v-453.19c0-1.0903 0.87773-1.968 1.968-1.968z" fill="#fff"/>
  <path d="m339.43 370.06h316.7c0.95188 0 1.7182 0.76632 1.7182 1.7182v308.95c0 0.95188-0.76631 1.7182-1.7182 1.7182h-316.7c-0.95187 0-1.7182-0.76631-1.7182-1.7182v-308.95c0-0.95187 0.76632-1.7182 1.7182-1.7182z" fill="#808080"/>
 </g>
</svg>
