<svg xmlns="http://www.w3.org/2000/svg" height="1e3" viewBox="0 0 1000 1000" width="1e3" version="1.1">
 <path fill="#808080" d="m430.36 160.65v156.17h-390.46l0.002 520.37 0.17 0.84 0.461 0.69 0.686 0.46 0.842 0.17h915.88c1.19 0 2.16-0.96 2.16-2.16v-673.69l-0.17-0.84-0.46-0.69-0.69-0.46-0.84-0.17-527.58-0.69zm260.69 182.28c62.67 0 116.18 22.17 160.52 66.52 44.35 44.34 66.52 97.85 66.52 160.52 0 62.68-22.17 116.18-66.52 160.53-44.34 44.34-97.85 66.51-160.52 66.51s-116.18-22.17-160.53-66.51c-44.34-44.35-66.51-97.85-66.51-160.53 0-62.67 22.17-116.18 66.51-160.52 44.35-44.35 97.86-66.52 160.53-66.52zm-6.65 12.86c-7.54 0.15-15.67 0.89-24.39 2.22-19.81 28.97-36.29 60.6-49.45 94.89 25.58 11.53 50.19 17.82 73.84 18.85v-115.96zm13.08 0v115.96c23.8-1.03 48.48-7.32 74.05-18.85-13-34.29-29.49-65.92-49.44-94.89-8.72-1.33-16.93-2.07-24.61-2.22zm-55.43 5.77c-36.07 8.42-67.92 25.27-95.56 50.55 15.52 13.6 32.89 25.35 52.1 35.25 11.68-30.15 26.16-58.75 43.46-85.8zm98 0c17.29 26.9 31.78 55.5 43.46 85.8 19.21-9.9 36.58-21.65 52.1-35.25-27.64-25.28-59.49-42.13-95.56-50.55zm-203.1 59.64c-38.43 39.61-58.46 87.06-60.08 142.34h96.44c0.89-32.66 7.77-67.33 20.63-103.98-21.14-10.79-40.14-23.58-56.99-38.36zm308.19 0c-16.85 14.93-35.84 27.71-56.98 38.36 12.86 36.65 19.73 71.32 20.62 103.98h96.45c-1.63-55.13-21.66-102.58-60.09-142.34zm-239.23 44.12c-12.12 34.88-18.63 67.63-19.51 98.22h98v-78.71c-25.43-1.03-51.59-7.54-78.49-19.51zm170.28 0c-26.9 11.97-53.14 18.48-78.71 19.51v78.71h98.22c-0.89-30.59-7.39-63.34-19.51-98.22zm-299.32 111.3c1.62 54.99 21.65 102.36 60.08 142.13 16.85-14.79 35.85-27.57 56.99-38.36-12.86-36.66-19.74-71.25-20.63-103.77h-96.44zm109.53 0c0.88 30.45 7.39 63.12 19.51 98 26.9-11.97 53.06-18.47 78.49-19.51v-78.49h-98zm111.08 0v78.49c25.57 1.04 51.81 7.54 78.71 19.51 12.12-34.88 18.62-67.55 19.51-98h-98.22zm111.3 0c-0.89 32.52-7.76 67.11-20.62 103.77 21.14 10.79 40.13 23.57 56.98 38.36 38.43-39.62 58.46-86.99 60.09-142.13h-96.45zm-124.38 91.58c-23.65 1.03-48.26 7.31-73.84 18.84 13.01 34.29 29.49 65.93 49.45 94.9 8.72 1.33 16.85 2.07 24.39 2.21v-115.95zm13.08 0v115.95c7.68-0.14 15.89-0.88 24.61-2.21 19.8-28.97 36.29-60.61 49.44-94.9-25.57-11.53-50.25-17.81-74.05-18.84zm-98.89 24.38c-19.21 9.91-36.58 21.66-52.1 35.26 27.64 25.27 59.49 42.12 95.56 50.55-17.3-27.05-31.78-55.65-43.46-85.81zm184.92 0c-11.68 30.16-26.17 58.76-43.46 85.81 36.07-8.43 67.92-25.28 95.56-50.55-15.52-13.6-32.89-25.35-52.1-35.26z"/>
 <path fill="#fdd1a5" d="m41.657 103.06h341.15c0.97172 0 1.754 0.78229 1.754 1.754v155.58c0 0.97172-0.78229 1.754-1.754 1.754h-341.15c-0.97172 0-1.754-0.78229-1.754-1.754v-155.58c0-0.97172 0.78229-1.754 1.754-1.754z"/>
 <path fill="#e3b61b" d="m296.18 162.24h38.693c0.97172 0 1.754 0.78228 1.754 1.754v37.224c0 0.97172-0.78229 1.754-1.754 1.754h-38.693c-0.97172 0-1.754-0.78229-1.754-1.754v-37.224c0-0.97173 0.78229-1.754 1.754-1.754z"/>
</svg>
