<svg id="svg2" xmlns:rdf="http://www.w3.org/1999/02/22-rdf-syntax-ns#" xmlns="http://www.w3.org/2000/svg" height="1e3" width="1e3" version="1.1" xmlns:cc="http://creativecommons.org/ns#" xmlns:dc="http://purl.org/dc/elements/1.1/" viewBox="0 0 1000 1000">
 <path id="rect74623" d="m430.36 160.65v156.17h-390.46c0.11334 173.73-0.22665 347.51 0.16992 521.21 25.513 3.1165 53.351 0.40558 79.74 1.3164h419.23v-277.29l-99.236 0.40429c85.877-110.16 171.75-220.33 257.63-330.49 87.554 109.46 175.11 218.91 262.66 328.37-0.42146-132.74 0.84233-265.89-0.63086-398.37-138.17-1.6493-277.01-0.57337-415.44-1.1748-37.888-0.0498-75.776-0.0996-113.66-0.14938zm529.74 399.69l-92.291 0.37695c0.0266 92.876-0.028 185.75-0.0625 278.63 30.531-0.43063 61.401 0.85474 91.723-0.63086 1.4716-92.517 0.21053-185.66 0.63086-278.38z" fill="#808080"/>
 <path id="rect74626" d="m41.657 103.06h341.15c0.97172 0 1.754 0.78229 1.754 1.754v155.58c0 0.97172-0.78229 1.754-1.754 1.754h-341.15c-0.97172 0-1.754-0.78229-1.754-1.754v-155.58c0-0.97172 0.78229-1.754 1.754-1.754z" fill="#fdd1a5"/>
 <path id="rect74630" d="m296.18 162.24h38.693c0.97172 0 1.754 0.78228 1.754 1.754v37.224c0 0.97172-0.78229 1.754-1.754 1.754h-38.693c-0.97172 0-1.754-0.78229-1.754-1.754v-37.224c0-0.97173 0.78229-1.754 1.754-1.754z" fill="#e3b61b"/>
 <path id="rect74674" d="m699.06 303.71-171.76 220.34 66.161-0.27033v381.66c7.4435 3.0769 17.97 0.44141 26.586 1.3194 64.046-0.25786 128.3 0.51533 192.22-0.38565 0.9-90.465 0.12856-174.15 0.3857-264.75v-118.74l61.53-0.25189z" fill="#808080"/>
</svg>
