<svg id="svg2" xmlns:rdf="http://www.w3.org/1999/02/22-rdf-syntax-ns#" xmlns="http://www.w3.org/2000/svg" height="1e3" width="1e3" version="1.1" xmlns:cc="http://creativecommons.org/ns#" xmlns:dc="http://purl.org/dc/elements/1.1/" viewBox="0 0 1000 1000">
 <g id="layer3">
  <path id="rect11064" d="m206.4 0h438.66c49.277 57.188 98.555 114.38 147.83 171.56v750.87h-586.49v-922.44z" fill-opacity=".25098"/>
  <path id="path10958" fill="#808080" d="m500.13 207.51c-78.828-1.3265-150.47 59.715-167.69 135.6-10.932 49.656-4.127 101.69 8.1551 150.46 53.178 99.65 106.36 199.3 159.53 298.95 53.18-99.65 106.36-199.3 159.54-298.95 11.61-60.16 24.65-125.89-3.47-183.66-27.06-60.26-89.36-103.17-156.07-102.4zm0 102.76c44.053-1.0843 77.913 45.734 68.08 87.569-4.9589 21.086-19.615 38.098-29.349 57.162-12.911 22.189-25.821 44.378-38.732 66.567-21.584-37.869-44.578-75.068-65.273-113.36-16.738-44.514 16.116-98.564 65.273-97.94z"/>
 </g>
 <g id="layer1">
  <path id="rect10986" d="m134.66 0v999.58h730.68c-0.56928-270.53-1.1386-541.06-1.7078-811.59-60.9-62.67-121.8-125.33-182.7-187.99h-546.27zm71.74 73.846h438.66c49.277 52.61 98.555 105.22 147.83 157.83v690.76h-586.49v-848.59z" fill="#808080"/>
 </g>
 <g id="layer2">
  <path id="rect10999" d="m614.43 0.00072173c11.873-0.0025 55.782 0.0025 67.655-0.000004l182.71 174.26c0.0295 13.01 0.0914 41.354 0.12092 54.364h-250.48z"/>
 </g>
</svg>
