<svg id="svg2" xmlns:rdf="http://www.w3.org/1999/02/22-rdf-syntax-ns#" xmlns="http://www.w3.org/2000/svg" version="1.1" xmlns:cc="http://creativecommons.org/ns#" xmlns:dc="http://purl.org/dc/elements/1.1/" viewBox="0 0 1000 1000">
 <g id="layer3">
  <path id="rect11064" d="m206.4 0h438.66c49.277 57.188 98.555 114.38 147.83 171.56v750.87h-586.49v-922.44z" fill-opacity=".25098" fill="#ff6eb9"/>
 </g>
 <g id="layer1">
  <path id="rect10986" d="m134.66 0v999.58h730.68c-0.56928-270.53-1.1386-541.06-1.7078-811.59-60.9-62.67-121.8-125.33-182.7-187.99h-546.27zm71.74 73.846h438.66c49.277 52.61 98.555 105.22 147.83 157.83v690.76h-586.49v-848.59z" fill="#808080"/>
 </g>
 <g id="layer2">
  <path id="rect10999" d="m614.43 0.00072173c11.873-0.0025 55.782 0.0025 67.655-0.000004l182.71 174.26c0.0295 13.01 0.0914 41.354 0.12092 54.364h-250.48z" fill="#ff6eb9"/>
 </g>
 <g id="layer4">
  <path id="rect26871" d="m276.58 306.55h446.84c1.2136 0 2.1906 0.97699 2.1906 2.1906v504.44c0 1.2136-0.97699 2.1906-2.1906 2.1906h-446.84c-1.2136 0-2.1906-0.97698-2.1906-2.1906v-504.44c0-1.2136 0.97699-2.1906 2.1906-2.1906z" fill="#808080"/>
  <path id="rect26871-0" d="m306.64 332.4h386.73c1.0903 0 1.968 0.87773 1.968 1.968v453.19c0 1.0903-0.87773 1.968-1.968 1.968h-386.73c-1.0903 0-1.968-0.87773-1.968-1.968v-453.19c0-1.0903 0.87773-1.968 1.968-1.968z" fill="#fff"/>
  <path id="rect26888" d="m339.43 370.06h316.7c0.95188 0 1.7182 0.76632 1.7182 1.7182v308.95c0 0.95188-0.76631 1.7182-1.7182 1.7182h-316.7c-0.95187 0-1.7182-0.76631-1.7182-1.7182v-308.95c0-0.95187 0.76632-1.7182 1.7182-1.7182z" fill="#808080"/>
 </g>
</svg>
