<svg id="svg2" xmlns:rdf="http://www.w3.org/1999/02/22-rdf-syntax-ns#" xmlns="http://www.w3.org/2000/svg" height="1e3" width="1e3" version="1.1" xmlns:cc="http://creativecommons.org/ns#" xmlns:dc="http://purl.org/dc/elements/1.1/" viewBox="0 0 1000 1000">
 <g id="layer3">
  <path id="rect11064" d="m206.4 0h438.66c49.277 57.188 98.555 114.38 147.83 171.56v750.87h-586.49v-922.44z" fill-opacity=".25098" fill="#5797ff"/>
  <g id="text22998" fill="#808080" transform="scale(.93624 1.0681)">
   <path id="path23003" style="" d="m531.97 191.2-2.0481 9.0118q-3.4136 0.13655-8.3291 1.6385-4.9155 1.3654-9.1483 3.6866-5.5982 3.1405-9.4214 7.2367-3.8232 4.0963-7.6464 11.196-14.064 26.08-38.232 71.412-24.031 45.332-49.428 92.029h-12.152l-15.839-149.38-84.793 149.38h-12.016q-3.1405-62.127-5.3251-104.45-2.1847-42.465-3.277-64.311-0.27308-4.3694-1.6385-7.3733t-5.3252-6.1444q-2.8674-2.3212-7.3733-3.4136-4.3694-1.2289-7.9194-1.502l2.0481-9.0118h77.966l-2.0481 9.0118q-16.249 0.9558-21.847 3.5501-5.4617 2.4578-5.4617 6.0079 0 2.7308 0.13654 8.056 0.13655 5.3251 0.40963 10.923 0.40963 9.4214 1.9116 38.095 1.6385 28.537 3.9597 71.958l81.379-144.87h12.562l16.249 148.01q17.068-32.634 29.766-57.894 12.698-25.397 22.666-45.605 6.0078-12.425 8.3291-18.843 2.4578-6.4175 2.4578-9.0118 0-4.3694-6.2809-6.9636-6.1444-2.7308-17.887-3.4136l2.0481-9.0118h71.548z"/>
  </g>
  <path id="rect23005" d="m499.11 317.83h216.21c2.0081 0 3.6248 1.6167 3.6248 3.6248v31.612c0 2.0081-1.6167 3.6248-3.6248 3.6248h-216.21c-2.0082 0-3.6248-1.6167-3.6248-3.6248v-31.612c0-2.0082 1.6167-3.6248 3.6248-3.6248z" fill="#808080"/>
  <path id="rect23005-2" d="m499.11 397.78h216.21c2.0081 0 3.6248 1.6167 3.6248 3.6248v31.612c0 2.0081-1.6167 3.6248-3.6248 3.6248h-216.21c-2.0082 0-3.6248-1.6167-3.6248-3.6248v-31.612c0-2.0082 1.6167-3.6248 3.6248-3.6248z" fill="#808080"/>
  <path id="rect23005-2-5" d="m285.37 477.72h429.95c2.0081 0 3.6248 1.6167 3.6248 3.6248v31.612c0 2.0081-1.6167 3.6248-3.6248 3.6248h-429.95c-2.0082 0-3.6248-1.6167-3.6248-3.6248v-31.612c0-2.0082 1.6167-3.6248 3.6248-3.6248z" fill="#808080"/>
  <path id="rect23005-2-5-3" d="m285.37 557.67h429.95c2.0081 0 3.6248 1.6167 3.6248 3.6248v31.612c0 2.0082-1.6167 3.6248-3.6248 3.6248h-429.95c-2.0082 0-3.6248-1.6167-3.6248-3.6248v-31.612c0-2.0081 1.6167-3.6248 3.6248-3.6248z" fill="#808080"/>
  <path id="rect23005-2-5-3-4" d="m285.37 637.61h429.95c2.0081 0 3.6248 1.6167 3.6248 3.6248v31.612c0 2.0082-1.6167 3.6248-3.6248 3.6248h-429.95c-2.0082 0-3.6248-1.6167-3.6248-3.6248v-31.612c0-2.0081 1.6167-3.6248 3.6248-3.6248z" fill="#808080"/>
  <path id="rect23005-2-5-3-9" d="m285.37 717.56h429.95c2.0081 0 3.6248 1.6167 3.6248 3.6248v31.612c0 2.0082-1.6167 3.6248-3.6248 3.6248h-429.95c-2.0082 0-3.6248-1.6167-3.6248-3.6248v-31.612c0-2.0081 1.6167-3.6248 3.6248-3.6248z" fill="#808080"/>
 </g>
 <g id="layer1">
  <path id="rect10986" d="m134.66 0v999.58h730.68c-0.56928-270.53-1.1386-541.06-1.7078-811.59-60.9-62.67-121.8-125.33-182.7-187.99h-546.27zm71.74 73.846h438.66c49.277 52.61 98.555 105.22 147.83 157.83v690.76h-586.49v-848.59z" fill="#808080"/>
 </g>
 <g id="layer2">
  <path id="rect10999" d="m614.43 0.00072173c11.873-0.0025 55.782 0.0025 67.655-0.000004l182.71 174.26c0.0295 13.01 0.0914 41.354 0.12092 54.364h-250.48z" fill="#5797ff"/>
 </g>
</svg>
