<svg id="svg2" xmlns:rdf="http://www.w3.org/1999/02/22-rdf-syntax-ns#" xmlns="http://www.w3.org/2000/svg" height="1e3" width="1e3" version="1.1" xmlns:cc="http://creativecommons.org/ns#" xmlns:dc="http://purl.org/dc/elements/1.1/" viewBox="0 0 1000 1000">
 <g id="layer3">
  <path id="rect11064" d="m206.4 0h438.66c49.277 57.188 98.555 114.38 147.83 171.56v750.87h-586.49v-922.44z" fill-opacity=".25098" fill="#2ee62e"/>
  <path id="rect14943" d="m243.88 269.26c-0.94 0-1.69 0.75-1.69 1.68v0.31 43.2 61.59 43.2 61.94 43.2 60.89 43.2 62.94c0 0.93 0.75 1.68 1.69 1.68h43.82c0.93 0 1.68-0.75 1.68-1.68v-60.95h87.44v60.95c0 0.93 0.75 1.68 1.69 1.68h43.82c0.93 0 1.68-0.75 1.68-1.68v-60.95h111.03v60.95c0 0.93 0.76 1.68 1.69 1.68h43.82c0.93 0 1.68-0.75 1.68-1.68v-60.95h114.51v60.95c0 0.93 0.75 1.68 1.68 1.68h43.82c0.94 0 1.69-0.75 1.69-1.68v-62.94-43.2-60.89-43.2-61.94-43.2-61.59-43.2-0.31c0-0.93-0.75-1.68-1.69-1.68h-0.31-454.23-43.51-0.31zm45.5 47.19h87.44v57.59h-87.44v-57.59zm134.63 0h111.03v57.59h-111.03v-57.59zm158.22 0h114.51v57.59h-114.51v-57.59zm-292.85 104.78h87.44v57.95h-87.44v-57.95zm134.63 0h111.03v57.95h-111.03v-57.95zm158.22 0h114.51v57.95h-114.51v-57.95zm-292.85 105.14h87.44v56.91h-87.44v-56.91zm134.63 0h111.03v56.91h-111.03v-56.91zm158.22 0h114.51v56.91h-114.51v-56.91z" fill="#808080"/>
 </g>
 <g id="layer1">
  <path id="rect10986" d="m134.66 0v999.58h730.68c-0.56928-270.53-1.1386-541.06-1.7078-811.59-60.9-62.67-121.8-125.33-182.7-187.99h-546.27zm71.74 73.846h438.66c49.277 52.61 98.555 105.22 147.83 157.83v690.76h-586.49v-848.59z" fill="#808080"/>
 </g>
 <g id="layer2">
  <path id="rect10999" d="m614.43 0.00072173c11.873-0.0025 55.782 0.0025 67.655-0.000004l182.71 174.26c0.0295 13.01 0.0914 41.354 0.12092 54.364h-250.48z" fill="#2ee62e"/>
 </g>
</svg>
