<svg id="svg2" xmlns:rdf="http://www.w3.org/1999/02/22-rdf-syntax-ns#" xmlns="http://www.w3.org/2000/svg" height="1e3" width="1e3" version="1.1" xmlns:cc="http://creativecommons.org/ns#" xmlns:dc="http://purl.org/dc/elements/1.1/" viewBox="0 0 1000 1000">
 <g id="layer3">
  <path id="rect11064" d="m206.4 0h438.66c49.277 57.188 98.555 114.38 147.83 171.56v750.87h-586.49v-922.44z" fill-opacity=".25098" fill="#ff9100"/>
  <path id="rect19014" d="m239.54 301.87c-1.22 0-2.2 0.99-2.2 2.21v490.38c0 1.22 0.98 2.21 2.2 2.21h518.83c1.23 0 2.21-0.99 2.21-2.21v-490.38c0-1.22-0.98-2.21-2.21-2.21h-518.83zm47.19 48.58h424.45c1.23 0 2.21 0.99 2.21 2.21v393.22c0 1.23-0.98 2.21-2.21 2.21h-424.45c-1.22 0-2.2-0.98-2.2-2.21v-393.22c0-1.22 0.98-2.21 2.2-2.21zm317.87 45.8c-2.01 0-3.63 1.62-3.63 3.63v286.45h-61.76v-212.36c0-1.54-1.23-2.77-2.77-2.77h-74.27c-1.53 0-2.77 1.23-2.77 2.77v212.36h-61.76v-164.34c0-1.23-0.98-2.21-2.21-2.21h-75.39c-1.22 0-2.21 0.98-2.21 2.21v188.5c0 1.22 0.99 2.21 2.21 2.21h75.39 283.14c1.22 0 2.21-0.99 2.21-2.21v-21.95-288.66c0-2.01-1.62-3.63-3.63-3.63h-72.55z" fill="#808080"/>
 </g>
 <g id="layer1">
  <path id="rect10986" d="m134.66 0v999.58h730.68c-0.56928-270.53-1.1386-541.06-1.7078-811.59-60.9-62.67-121.8-125.33-182.7-187.99h-546.27zm71.74 73.846h438.66c49.277 52.61 98.555 105.22 147.83 157.83v690.76h-586.49v-848.59z" fill="#808080"/>
 </g>
 <g id="layer2">
  <path id="rect10999" d="m614.43 0.00072173c11.873-0.0025 55.782 0.0025 67.655-0.000004l182.71 174.26c0.0295 13.01 0.0914 41.354 0.12092 54.364h-250.48z" fill="#ff9100"/>
 </g>
</svg>
