<svg id="svg2" xmlns:rdf="http://www.w3.org/1999/02/22-rdf-syntax-ns#" xmlns="http://www.w3.org/2000/svg" height="1e3" width="1e3" version="1.1" xmlns:cc="http://creativecommons.org/ns#" xmlns:dc="http://purl.org/dc/elements/1.1/" viewBox="0 0 1000 1000">
 <g id="layer3">
  <path id="rect11064" d="m206.4 0h438.66c49.277 57.188 98.555 114.38 147.83 171.56v750.87h-586.49v-922.44z" fill-opacity=".25098" fill="#8ac4ff"/>
 </g>
 <g id="layer1">
  <path id="rect10986" d="m134.66 0v999.58h730.68c-0.56928-270.53-1.1386-541.06-1.7078-811.59-60.9-62.67-121.8-125.33-182.7-187.99h-546.27zm71.74 73.846h438.66c49.277 52.61 98.555 105.22 147.83 157.83v690.76h-586.49v-848.59z" fill="#808080"/>
 </g>
 <g id="layer2">
  <path id="rect10999" d="m614.43 0.00072173c11.873-0.0025 55.782 0.0025 67.655-0.000004l182.71 174.26c0.0295 13.01 0.0914 41.354 0.12092 54.364h-250.48z" fill="#8ac4ff"/>
 </g>
 <g id="layer4">
  <path id="rect23005" fill="#808080" d="m327.26 197.45-105.34 58.299 0.18164 0.49219 0.49219 0.40039 0.73437 0.26953 0.89844 0.0977h103.03l103.03 57.922 103.03-57.922h103.03l0.89843-0.0977 0.73438-0.26953 0.49219-0.40039 0.18164-0.49219-105.34-58.299-103.03 57.922-103.03-57.922zm-154.18 106.01-105.34 58.299 0.18164 0.49219 0.49218 0.40039 0.73438 0.26953 0.89844 0.0977h103.03l103.03 57.922 103.03-57.922h103.03l0.90039-0.0977 0.73242-0.26953 0.49414-0.40039 0.18164-0.49219-105.34-58.299-103.03 57.922-103.03-57.922zm359.6 20.941c-2.0081 0-3.625 1.6168-3.625 3.625v31.613c0 2.0081 1.6168 3.623 3.625 3.623h216.21c2.0081 0 3.625-1.615 3.625-3.623v-31.613c0-2.0081-1.6169-3.625-3.625-3.625h-216.21zm0 79.951c-2.0081 0-3.625 1.6168-3.625 3.625v31.611c0 2.0081 1.6168 3.625 3.625 3.625h216.21c2.0081 0 3.625-1.6169 3.625-3.625v-31.611c0-2.0081-1.6169-3.625-3.625-3.625h-216.21zm-213.74 79.94c-2.0081 0-3.623 1.6168-3.623 3.625v31.611c0 2.0081 1.6148 3.625 3.623 3.625h429.95c2.0081 0 3.625-1.6169 3.625-3.625v-31.611c0-2.0081-1.6169-3.625-3.625-3.625h-429.95zm0 79.949c-2.0081 0-3.623 1.6169-3.623 3.625v31.613c0 2.0081 1.6148 3.625 3.623 3.625h429.95c2.0081 0 3.625-1.6168 3.625-3.625v-31.613c0-2.0081-1.6169-3.625-3.625-3.625h-429.95zm0 79.941c-2.0081 0-3.623 1.6169-3.623 3.625v31.611c0 2.0081 1.6148 3.625 3.623 3.625h429.95c2.0081 0 3.625-1.6168 3.625-3.625v-31.611c0-2.0081-1.6169-3.625-3.625-3.625h-429.95zm0 79.949c-2.0081 0-3.623 1.6169-3.623 3.625v31.611c0 2.0081 1.6148 3.625 3.623 3.625h429.95c2.0081 0 3.625-1.6168 3.625-3.625v-31.611c0-2.0081-1.6169-3.625-3.625-3.625h-429.95z"/>
 </g>
</svg>
