<svg id="svg2" xmlns:rdf="http://www.w3.org/1999/02/22-rdf-syntax-ns#" xmlns="http://www.w3.org/2000/svg" height="1e3" width="1e3" version="1.1" xmlns:cc="http://creativecommons.org/ns#" xmlns:dc="http://purl.org/dc/elements/1.1/" viewBox="0 0 1000 1000">
 <g id="layer3">
  <path id="rect11064" d="m206.4 0h438.66c49.277 57.188 98.555 114.38 147.83 171.56v750.87h-586.49v-922.44z" fill-opacity=".25098" fill="#808080"/>
  <path id="rect50786" d="m244.17 283.14h511.65c1.6734 0 3.0207 1.3472 3.0207 3.0207v427.69c0 1.6734-1.3472 3.0207-3.0207 3.0207h-511.65c-1.6734 0-3.0207-1.3472-3.0207-3.0207v-427.69c0-1.6734 1.3472-3.0207 3.0207-3.0207z" fill="#808080"/>
  <g id="text50788" transform="scale(.74107 1.3494)">
   <path id="path50793" fill="#fff" d="m525.25 334.14-135.45 67.727v-25.465l106.47-51.608-106.47-51.743v-25.465l135.45 67.727v18.828z"/>
  </g>
 </g>
 <g id="layer1">
  <path id="rect10986" d="m134.66 0v999.58h730.68c-0.56928-270.53-1.1386-541.06-1.7078-811.59-60.9-62.67-121.8-125.33-182.7-187.99h-546.27zm71.74 73.846h438.66c49.277 52.61 98.555 105.22 147.83 157.83v690.76h-586.49v-848.59z" fill="#808080"/>
 </g>
 <g id="layer2">
  <path id="rect10999" d="m614.43 0.00072173c11.873-0.0025 55.782 0.0025 67.655-0.000004l182.71 174.26c0.0295 13.01 0.0914 41.354 0.12092 54.364h-250.48z" fill="#808080"/>
 </g>
</svg>
