<svg id="svg2" xmlns:rdf="http://www.w3.org/1999/02/22-rdf-syntax-ns#" xmlns="http://www.w3.org/2000/svg" height="1e3" width="1e3" version="1.1" xmlns:cc="http://creativecommons.org/ns#" xmlns:dc="http://purl.org/dc/elements/1.1/" viewBox="0 0 1000 1000">
 <g id="layer3">
  <path id="rect11064" d="m206.4 0h438.66c49.277 57.188 98.555 114.38 147.83 171.56v750.87h-586.49v-922.44z" fill-opacity=".25098" fill="#af3fff"/>
  <g id="text10958" fill="#808080" transform="scale(.82992 1.2049)">
   <path id="path11001" style="" d="m539.62 688.9v35.284h-15.192q-61.012 0-81.839-18.132-20.582-18.132-20.582-72.283v-58.561q0-36.999-13.231-51.21-13.231-14.212-48.025-14.212h-14.947v-35.039h14.947q35.039 0 48.025-13.966 13.231-14.212 13.231-50.72v-58.806q0-54.151 20.582-72.038 20.827-18.132 81.839-18.132h15.192v35.039h-16.662q-34.549 0-45.085 10.781t-10.536 45.33v60.767q0 38.469-11.271 55.866-11.026 17.397-37.979 23.523 27.198 6.6157 38.224 24.013t11.026 55.621v60.767q0 34.549 10.536 45.33t45.085 10.781h16.662z"/>
   <path id="path11003" style="" d="m665.32 688.9h17.152q34.304 0 44.595-10.536 10.536-10.536 10.536-45.575v-60.767q0-38.224 11.026-55.621t38.224-24.013q-27.198-6.1256-38.224-23.523t-11.026-55.866v-60.767q0-34.794-10.536-45.33-10.291-10.781-44.595-10.781h-17.152v-35.039h15.437q61.012 0 81.349 18.132 20.582 17.887 20.582 72.038v58.806q0 36.509 13.231 50.72 13.231 13.966 48.025 13.966h15.192v35.039h-15.192q-34.794 0-48.025 14.212t-13.231 51.21v58.561q0 54.151-20.582 72.283-20.337 18.132-81.349 18.132h-15.437v-35.284z"/>
  </g>
 </g>
 <g id="layer1">
  <path id="rect10986" d="m134.66 0v999.58h730.68c-0.56928-270.53-1.1386-541.06-1.7078-811.59-60.9-62.67-121.8-125.33-182.7-187.99h-546.27zm71.74 73.846h438.66c49.277 52.61 98.555 105.22 147.83 157.83v690.76h-586.49v-848.59z" fill="#808080"/>
 </g>
 <g id="layer2">
  <path id="rect10999" d="m614.43 0.00072173c11.873-0.0025 55.782 0.0025 67.655-0.000004l182.71 174.26c0.0295 13.01 0.0914 41.354 0.12092 54.364h-250.48z" fill="#af3fff"/>
 </g>
</svg>
