<svg xmlns="http://www.w3.org/2000/svg" height="1e3" width="1e3" version="1.1" viewBox="0 0 1000 1000">
 <g>
  <path d="m206.4 0h438.66c49.277 57.188 98.555 114.38 147.83 171.56v750.87h-586.49v-922.44z" fill-opacity=".25098" fill="#1d8000"/>
 </g>
 <g>
  <path d="m134.66 0v999.58h730.68c-0.56928-270.53-1.1386-541.06-1.7078-811.59-60.9-62.67-121.8-125.33-182.7-187.99h-546.27zm71.74 73.846h438.66c49.277 52.61 98.555 105.22 147.83 157.83v690.76h-586.49v-848.59z" fill="#808080"/>
 </g>
 <g>
  <path d="m614.43 0.00072173c11.873-0.0025 55.782 0.0025 67.655-0.000004l182.71 174.26c0.0295 13.01 0.0914 41.354 0.12092 54.364h-250.48z" fill="#1d8000"/>
  <text style="word-spacing:0px;letter-spacing:0px" xml:space="preserve" font-size="192px" line-height="25px" y="507" x="406" font-family="&apos;Averia Sans Libre&apos;" fill="#000000"><tspan x="406" y="569.375"/></text>
  <path d="m618.25 508.77v85.948h-184.62v-85.948h184.62zm-162.27-100.04h85.948v209.37h-85.948v-209.37zm102.52 12.199c14.554-25.208 29.108-50.416 43.662-75.624 8.2373 4.7558 16.475 9.5116 24.712 14.267-14.554 25.208-29.108 50.416-43.662 75.624-8.2373-4.7558-16.475-9.5116-24.712-14.267zm-186.08 323.68c14.554-25.208 29.108-50.416 43.662-75.624 8.2373 4.7558 16.475 9.5116 24.712 14.267-14.554 25.208-29.108 50.416-43.662 75.624-8.2373-4.7558-16.475-9.5116-24.712-14.267zm211.39-75.97c14.554 25.208 29.108 50.416 43.662 75.624-8.2373 4.7558-16.475 9.5116-24.712 14.267-14.554-25.208-29.108-50.416-43.662-75.624 8.2373-4.7558 16.475-9.5116 24.712-14.267zm-187.28-322.99c14.554 25.208 29.108 50.416 43.662 75.624-8.2373 4.7558-16.475 9.5116-24.712 14.267-14.554-25.208-29.108-50.416-43.662-75.624 8.2373-4.7558 16.475-9.5116 24.712-14.267zm234.27 265.3l75.624 43.662c-4.7558 8.2373-9.5116 16.475-14.267 24.712l-75.624-43.662c4.7558-8.2373 9.5116-16.475 14.267-24.712zm-323.67-186.09l75.624 43.662c-4.7558 8.2373-9.5116 16.475-14.267 24.712l-75.624-43.662c4.7558-8.2373 9.5116-16.475 14.267-24.712zm309.07 43.066l75.624-43.662c4.7558 8.2373 9.5116 16.475 14.267 24.712l-75.624 43.662c-4.7558-8.2373-9.5116-16.475-14.267-24.712zm-323 187.27l75.624-43.662c4.7558 8.2373 9.5116 16.475 14.267 24.712l-75.624 43.662c-4.7558-8.2373-9.5116-16.475-14.267-24.712zm162.78-246.47v-86.636h86.636v86.636h-86.636zm0.68758 373.36v-86.636h86.636v86.636h-86.636zm186.34-273.66h86.636v86.636h-86.636v-86.636zm-373.36 0.68757h86.636v86.636h-86.636v-86.636z" stroke-width="1.2913" fill="#808080"/>
 </g>
</svg>
