<?xml version="1.0" encoding="UTF-8" standalone="no"?>
<!-- Created with Inkscape (http://www.inkscape.org/) -->

<svg
   xmlns:dc="http://purl.org/dc/elements/1.1/"
   xmlns:cc="http://creativecommons.org/ns#"
   xmlns:rdf="http://www.w3.org/1999/02/22-rdf-syntax-ns#"
   xmlns:svg="http://www.w3.org/2000/svg"
   xmlns="http://www.w3.org/2000/svg"
   xmlns:sodipodi="http://sodipodi.sourceforge.net/DTD/sodipodi-0.dtd"
   xmlns:inkscape="http://www.inkscape.org/namespaces/inkscape"
   height="1000"
   width="1000"
   viewBox="0 0 1000 1000"
   id="svg2"
   version="1.1"
   inkscape:version="0.92.1 r15371"
   sodipodi:docname="temp.svg">
  <defs
     id="defs8" />
  <sodipodi:namedview
     pagecolor="#ffffff"
     bordercolor="#666666"
     borderopacity="1"
     objecttolerance="10"
     gridtolerance="10"
     guidetolerance="10"
     inkscape:pageopacity="0"
     inkscape:pageshadow="2"
     inkscape:window-width="2558"
     inkscape:window-height="1568"
     id="namedview6"
     showgrid="false"
     units="px"
     inkscape:zoom="1"
     inkscape:cx="500"
     inkscape:cy="597.39455"
     inkscape:window-x="6"
     inkscape:window-y="0"
     inkscape:window-maximized="1"
     inkscape:current-layer="layer2"
     inkscape:object-paths="true"
     inkscape:snap-intersection-paths="true"
     inkscape:object-nodes="true"
     inkscape:snap-smooth-nodes="true"
     inkscape:snap-midpoints="true"
     inkscape:snap-object-midpoints="true"
     inkscape:snap-center="true" />
  <metadata
     id="metadata4">
    <rdf:RDF>
      <cc:Work
         rdf:about="">
        <dc:format>image/svg+xml</dc:format>
        <dc:type
           rdf:resource="http://purl.org/dc/dcmitype/StillImage" />
        <dc:title></dc:title>
      </cc:Work>
    </rdf:RDF>
  </metadata>
  <g
     inkscape:groupmode="layer"
     id="layer3"
     inkscape:label="Background"
     style="display:inline">
    <path
       style="opacity:1;fill:#1d8000;fill-opacity:0.25098041;stroke:none;stroke-width:10;stroke-linecap:butt;stroke-linejoin:round;stroke-miterlimit:1;stroke-dasharray:none;stroke-dashoffset:0;stroke-opacity:1"
       d="m 206.40079,0 c 146.21875,0 292.4375,0 438.65625,0 49.27742,57.188244 98.55484,114.37651 147.83226,171.56475 0,250.29137 0,500.58275 0,750.87415 -195.49617,0 -390.99234,0 -586.48851,0 0,-307.47964 0,-614.95927 0,-922.4389 z"
       id="rect11064"
       inkscape:connector-curvature="0" />
  </g>
  <g
     inkscape:groupmode="layer"
     id="layer1"
     inkscape:label="Border"
     style="display:inline">
    <path
       style="opacity:1;fill:#808080;fill-opacity:1;stroke:none;stroke-width:10;stroke-linecap:butt;stroke-linejoin:round;stroke-miterlimit:1;stroke-dasharray:none;stroke-dashoffset:0;stroke-opacity:1"
       d="m 134.66056,0 c 0,333.19231 0,666.38461 0,999.57692 243.55963,0 487.11925,0 730.67888,0 -0.56928,-270.53124 -1.13857,-541.0625 -1.70785,-811.59373 C 802.73011,125.32213 741.82863,62.661064 680.92715,0 498.83829,0 316.74942,0 134.66056,0 Z m 71.74023,73.846323 c 146.21875,0 292.4375,0 438.65625,0 49.27742,52.610007 98.55484,105.220027 147.83226,157.830037 0,230.25419 0,460.50836 0,690.76254 -195.49617,0 -390.99234,0 -586.48851,0 0,-282.86419 0,-565.72838 0,-848.592577 z"
       id="rect10986"
       inkscape:connector-curvature="0" />
  </g>
  <g
     inkscape:groupmode="layer"
     id="layer2"
     inkscape:label="Corner"
     style="display:inline">
    <path
       style="opacity:1;fill:#1d8000;fill-opacity:1;stroke:none;stroke-width:10;stroke-linecap:butt;stroke-linejoin:round;stroke-miterlimit:1;stroke-dasharray:none;stroke-dashoffset:0;stroke-opacity:1"
       d="m 614.43397,7.2172559e-4 c 11.87271,-0.002499996 55.78218,0.002500004 67.65489,-4e-6 L 864.7933,174.25996 c 0.0295,13.01009 0.0914,41.35367 0.12092,54.36377 l -250.48025,0 z"
       id="rect10999"
       inkscape:connector-curvature="0"
       sodipodi:nodetypes="cccccc" />
    <text
       xml:space="preserve"
       style="font-style:normal;font-variant:normal;font-weight:normal;font-stretch:normal;font-size:192px;line-height:25px;font-family:'Averia Sans Libre';-inkscape-font-specification:'Averia Sans Libre';letter-spacing:0px;word-spacing:0px;fill:#000000;fill-opacity:1;stroke:none;stroke-width:1px;stroke-linecap:butt;stroke-linejoin:miter;stroke-opacity:1;"
       x="406"
       y="507"
       id="text5363"><tspan
         sodipodi:role="line"
         id="tspan5361"
         x="406"
         y="569.375" /></text>
    <path
       id="rect6175-2"
       style="display:inline;fill:#808080;fill-opacity:1;stroke-width:1.29132271"
       d="m 618.25342,508.77373 c 0,28.64936 0,57.29874 0,85.9481 -61.53885,0 -123.07769,0 -184.61654,0 0,-28.64936 0,-57.29874 0,-85.9481 61.53885,0 123.07769,0 184.61654,0 z m -162.27,-100.0436 c 28.64936,0 57.29874,0 85.9481,0 0,69.78986 0,139.57973 0,209.36959 -28.64936,0 -57.29874,0 -85.9481,0 0,-69.78986 0,-139.57973 0,-209.36959 z m 102.5168,12.19898 c 14.55389,-25.20806 29.10777,-50.41612 43.66165,-75.62419 8.23728,4.7558 16.47457,9.5116 24.71185,14.2674 -14.55388,25.20806 -29.10777,50.41612 -43.66165,75.62418 -8.23728,-4.75579 -16.47456,-9.51159 -24.71185,-14.26739 z M 372.41638,744.61087 c 14.55388,-25.20806 29.10776,-50.41611 43.66164,-75.62418 8.23728,4.7558 16.47457,9.5116 24.71185,14.2674 -14.55388,25.20806 -29.10776,50.41611 -43.66164,75.62417 -8.23728,-4.7558 -16.47457,-9.51159 -24.71185,-14.26739 z M 583.80755,668.6429 c 14.55389,25.20806 29.10777,50.41612 43.66165,75.62418 -8.23728,4.7558 -16.47457,9.5116 -24.71185,14.2674 -14.55388,-25.20807 -29.10776,-50.41613 -43.66165,-75.62419 8.23729,-4.7558 16.47457,-9.5116 24.71185,-14.26739 z M 396.53285,345.64868 c 14.55388,25.20806 29.10776,50.41611 43.66164,75.62418 -8.23728,4.75579 -16.47457,9.51159 -24.71185,14.26739 -14.55388,-25.20806 -29.10776,-50.41611 -43.66164,-75.62418 8.23728,-4.75579 16.47457,-9.51159 24.71185,-14.26739 z m 234.27467,265.29807 c 25.20807,14.55389 50.41613,29.10777 75.62419,43.66165 -4.7558,8.23728 -9.51159,16.47457 -14.26739,24.71185 -25.20806,-14.55388 -50.41613,-29.10777 -75.62419,-43.66165 4.7558,-8.23728 9.5116,-16.47456 14.26739,-24.71185 z M 307.12576,424.86291 c 25.20807,14.55388 50.41612,29.10776 75.62418,43.66164 -4.7558,8.23728 -9.5116,16.47457 -14.26739,24.71185 -25.20807,-14.55388 -50.41612,-29.10776 -75.62418,-43.66164 4.7558,-8.23728 9.5116,-16.47457 14.26739,-24.71185 z m 309.07061,43.06623 c 25.20806,-14.55388 50.41612,-29.10776 75.62418,-43.66164 4.7558,8.23728 9.5116,16.47456 14.2674,24.71185 -25.20807,14.55388 -50.41613,29.10776 -75.62419,43.66164 -4.7558,-8.23728 -9.5116,-16.47456 -14.26739,-24.71185 z M 293.20215,655.20385 c 25.20806,-14.55388 50.41611,-29.10776 75.62418,-43.66164 4.75579,8.23728 9.51159,16.47456 14.26739,24.71185 -25.20806,14.55388 -50.41611,29.10775 -75.62418,43.66164 -4.75579,-8.23729 -9.51159,-16.47457 -14.26739,-24.71185 z M 455.98342,408.73013 c 0,-28.87855 0,-57.75712 0,-86.63568 28.87857,0 57.75713,0 86.6357,0 0,28.87856 0,57.75713 0,86.63568 -28.87857,0 -57.75713,0 -86.6357,0 z m 0.68758,373.35856 c 0,-28.87857 0,-57.75713 0,-86.6357 28.87857,0 57.75713,0 86.6357,0 0,28.87857 0,57.75713 0,86.6357 -28.87857,0 -57.75713,0 -86.6357,0 z M 643.00647,508.42995 c 28.87855,0 57.75712,0 86.63568,0 0,28.87856 0,57.75712 0,86.63569 -28.87856,0 -57.75713,0 -86.63568,0 0,-28.87857 0,-57.75713 0,-86.63569 z m -373.35856,0.68757 c 28.87857,0 57.75713,0 86.6357,0 0,28.87857 0,57.75713 0,86.6357 -28.87857,0 -57.75713,0 -86.6357,0 0,-28.87857 0,-57.75713 0,-86.6357 z" />
  </g>
  <g
     inkscape:groupmode="layer"
     id="layer4"
     inkscape:label="Symbol"
     style="display:none" />
</svg>
