<svg id="svg2" xmlns:rdf="http://www.w3.org/1999/02/22-rdf-syntax-ns#" xmlns="http://www.w3.org/2000/svg" height="1e3" width="1e3" version="1.1" xmlns:cc="http://creativecommons.org/ns#" xmlns:dc="http://purl.org/dc/elements/1.1/" viewBox="0 0 1000 1000">
 <g id="layer3">
  <path id="rect11064" d="m206.4 0h438.66c49.277 57.188 98.555 114.38 147.83 171.56v750.87h-586.49v-922.44z" fill-opacity=".25098" fill="#808080"/>
 </g>
 <g id="layer1">
  <path id="rect10986" d="m134.66 0v999.58h730.68c-0.56928-270.53-1.1386-541.06-1.7078-811.59-60.9-62.67-121.8-125.33-182.7-187.99h-546.27zm71.74 73.846h438.66c49.277 52.61 98.555 105.22 147.83 157.83v690.76h-586.49v-848.59z" fill="#808080"/>
 </g>
 <g id="layer2">
  <path id="rect10999" d="m614.43 0.00072173c11.873-0.0025 55.782 0.0025 67.655-0.000004l182.71 174.26c0.0295 13.01 0.0914 41.354 0.12092 54.364h-250.48z" fill="#808080"/>
 </g>
 <g id="layer4">
  <g id="text46835" transform="matrix(0 1 -1 0 100.94 96.363)" fill="#808080">
   <path id="path46842" d="m380.27-503.01h-13.028q-1.6993-6.7973-6.2309-16.049-4.3428-9.4408-9.8184-17.749-5.6644-8.6855-12.462-15.105-6.6085-6.6085-12.839-7.5526-5.8533-0.75526-14.728-1.1329-8.8743-0.37763-16.427-0.37763h-10.951v214.31q0 6.2309 2.6434 11.518 2.6434 5.098 9.2519 7.9302 3.3987 1.3217 14.161 3.5875 10.951 2.2658 16.993 2.4546v13.406h-126.51v-13.406q5.2868-0.37763 16.049-1.5105 10.951-1.1329 15.105-2.8322 6.2309-2.4546 9.0631-6.9862 3.021-4.7204 3.021-12.462v-216h-10.951q-5.8533 0-14.539 0.37763-8.6855 0.18881-16.616 1.1329-6.2309 0.75526-13.028 7.5526-6.6085 6.6085-12.273 15.105-5.6645 8.4967-10.007 18.126-4.3428 9.4408-6.0421 15.672h-13.217v-72.694h233.38v72.694z"/>
   <path id="path46844" d="m550.9-297.88-5.098 78.925h-222.42v-13.406c3.7763-0.25176 8.8114-0.75526 15.105-1.5105 6.2938-0.88114 10.385-1.7623 12.273-2.6434 4.0281-1.8882 6.7973-4.3428 8.3079-7.3638 1.6364-3.021 2.4546-6.8603 2.4546-11.518v-192.59c0-4.1539-0.69232-7.8044-2.077-10.951-1.3846-3.2728-4.2798-5.9162-8.6855-7.9302-3.3987-1.6364-7.9932-3.084-13.784-4.3428-5.6644-1.2588-10.196-2.014-13.595-2.2658v-13.406h207.32v64.575h-14.161c-2.5175-9.5666-7.9932-19.7-16.427-30.399-8.3079-10.825-16.238-16.742-23.791-17.749-3.9022-0.50351-8.5596-0.88114-13.972-1.1329-5.4127-0.25176-11.581-0.37763-18.504-0.37763h-42.106v106.49h30.21c9.6925 0 16.742-0.88114 21.147-2.6434 4.5316-1.8882 8.4967-4.9721 11.895-9.2519 2.7693-3.6504 5.098-8.4967 6.9862-14.539 2.014-6.168 3.3357-11.958 3.9651-17.371h14.161v104.79h-14.161c-0.5035-6.0421-1.8882-12.399-4.1539-19.07-2.1399-6.7974-4.4057-11.707-6.7973-14.728-3.9022-4.9092-8.3708-8.119-13.406-9.6296-4.9092-1.5105-11.455-2.2658-19.637-2.2658h-30.21v80.435c0 8.0561 0.56645 14.413 1.6993 19.07 1.1329 4.6574 3.3357 8.182 6.6085 10.574 3.2728 2.3917 7.7414 3.9651 13.406 4.7204 5.6644 0.62938 13.721 0.94407 24.168 0.94407h16.427c6.7974 0 12.525-0.25176 17.182-0.75526 4.7833-0.50351 9.6925-1.3846 14.728-2.6434 5.161-1.3846 8.8114-3.2098 10.951-5.4756 5.7903-6.0421 11.832-15.168 18.126-27.378 6.4197-12.336 10.511-21.399 12.273-27.189z"/>
   <path id="path46846" d="m792.23-311.25h-125.37v-13.406q15.483-0.37763 24.924-2.8322 9.6296-2.6434 9.6296-7.9302 0-2.8322-4.3428-11.707-4.3427-8.8743-11.14-19.826-7.5526-12.084-17.937-28.322-10.385-16.427-20.581-31.343-16.616 21.903-37.763 52.868-21.147 30.777-21.147 36.252 0 6.2309 5.6644 9.2519 5.8533 2.8322 25.49 3.5875v13.406h-100.07v-13.406q4.9092-0.37763 12.462-1.3217 7.7414-1.1329 12.651-3.5875 9.8184-5.2868 15.672-11.329 6.0421-6.2309 12.084-14.539 12.084-16.616 30.966-41.35 18.882-24.924 33.42-45.316-10.951-16.049-27.945-40.595-16.993-24.735-36.252-52.868-8.119-11.895-12.839-16.805-4.5316-4.9092-12.273-8.4967-4.5316-2.077-12.651-3.2098-7.9302-1.3217-12.651-1.6993v-13.406h124.05v13.406q-10.951 0.37763-22.847 2.8322-11.707 2.2658-11.707 7.175 0 3.5875 4.7204 12.651 4.7204 8.8743 11.14 19.07 6.6085 10.574 14.728 23.413 8.119 12.839 19.826 29.644 21.336-28.889 36.819-52.113t15.483-30.21q0-6.0421-7.175-8.8743-6.9862-2.8322-23.791-3.5875v-13.406h99.883v13.406q-4.7204 0.18882-12.462 1.5105-7.5526 1.1329-12.651 3.3987-9.8184 4.7204-14.728 10.196-4.7204 5.4756-12.839 15.86-15.105 19.448-27.945 36.63-12.651 16.993-30.588 41.539 15.105 21.525 33.609 48.903 18.693 27.378 35.686 52.302 5.8533 8.4967 13.406 16.238 7.5526 7.5526 12.273 10.385 4.5316 2.6434 12.084 3.3987 7.7414 0.56645 13.028 0.75526v13.406z"/>
  </g>
 </g>
</svg>
