<svg id="svg2" xmlns:rdf="http://www.w3.org/1999/02/22-rdf-syntax-ns#" xmlns="http://www.w3.org/2000/svg" version="1.1" xmlns:cc="http://creativecommons.org/ns#" xmlns:dc="http://purl.org/dc/elements/1.1/" viewBox="0 0 1000 1000">
 <g id="layer3" fill="#808080">
  <path id="rect11064" d="m206.4 0h438.66c49.277 57.188 98.555 114.38 147.83 171.56v750.87h-586.49v-922.44z" fill-opacity=".25098"/>
  <g id="text10966" transform="scale(1.0061 .99398)">
   <path id="path10971" d="m433.16 765.88h83.863v104.93h-83.863v-104.93zm81.385-60.729h-78.906v-63.62q0-41.725 11.567-68.578t48.748-62.381l37.181-36.768q23.548-21.895 33.876-41.312 10.741-19.417 10.741-39.66 0-36.768-27.266-59.489-26.853-22.722-71.47-22.722-32.636 0-69.817 14.459-36.768 14.459-76.84 42.138v-77.667q38.833-23.548 78.493-35.115 40.073-11.567 82.624-11.567 76.014 0 121.87 40.073 46.269 40.073 46.269 105.76 0 31.397-14.872 59.902-14.872 28.092-52.053 63.62l-36.355 35.528q-19.417 19.417-27.679 30.571-7.8493 10.741-11.154 21.069-2.4787 8.6755-3.7181 21.069t-1.2394 33.876v50.814z"/>
  </g>
 </g>
 <g id="layer1">
  <path id="rect10986" d="m134.66 0v999.58h730.68c-0.56928-270.53-1.1386-541.06-1.7078-811.59-60.9-62.67-121.8-125.33-182.7-187.99h-546.27zm71.74 73.846h438.66c49.277 52.61 98.555 105.22 147.83 157.83v690.76h-586.49v-848.59z" fill="#808080"/>
 </g>
 <g id="layer2">
  <path id="rect10999" d="m614.43 0.00072173c11.873-0.0025 55.782 0.0025 67.655-0.000004l182.71 174.26c0.0295 13.01 0.0914 41.354 0.12092 54.364h-250.48z" fill="#808080"/>
 </g>
</svg>
