<svg id="svg2" xmlns:rdf="http://www.w3.org/1999/02/22-rdf-syntax-ns#" xmlns="http://www.w3.org/2000/svg" version="1.1" xmlns:cc="http://creativecommons.org/ns#" xmlns:dc="http://purl.org/dc/elements/1.1/" viewBox="0 0 1000 1000">
 <g id="layer3">
  <path id="rect11064" d="m206.4 0h438.66c49.277 57.188 98.555 114.38 147.83 171.56v750.87h-586.49v-922.44z" fill-opacity=".25098" fill="#808080"/>
 </g>
 <g id="layer1">
  <path id="rect10986" d="m134.66 0v999.58h730.68c-0.56928-270.53-1.1386-541.06-1.7078-811.59-60.9-62.67-121.8-125.33-182.7-187.99h-546.27zm71.74 73.846h438.66c49.277 52.61 98.555 105.22 147.83 157.83v690.76h-586.49v-848.59z" fill="#808080"/>
 </g>
 <g id="layer2">
  <path id="rect10999" d="m614.43 0.00072173c11.873-0.0025 55.782 0.0025 67.655-0.000004l182.71 174.26c0.0295 13.01 0.0914 41.354 0.12092 54.364h-250.48z" fill="#808080"/>
 </g>
 <g id="layer4">
  <path id="rect18825" d="m282.96 281.28c-1.2136 0-2.1914 0.97783-2.1914 2.1914v591.93c0 1.2136 0.97783 2.1914 2.1914 2.1914h434.08c1.2136 0 2.1914-0.97785 2.1914-2.1914v-591.93c0-1.2136-0.97783-2.1914-2.1914-2.1914h-434.08zm29.768 24.91h43.076c1.2136 0 2.1914 0.97784 2.1914 2.1914v42.045c0 1.2136-0.97785 2.1894-2.1914 2.1895h-43.076c-1.2136 0-2.1894-0.97589-2.1894-2.1895v-42.045c0-1.2136 0.97589-2.1914 2.1894-2.1914zm321.88 1.0332h43.076c1.2136 0 2.1914 0.97588 2.1914 2.1894v42.045c0 1.2136-0.97784 2.1914-2.1914 2.1914h-43.076c-1.2136 0-2.1894-0.97785-2.1894-2.1914v-42.045c0-1.2136 0.97588-2.1894 2.1894-2.1894zm-321.88 81.502h43.076c1.2136 0 2.1914 0.97784 2.1914 2.1914v42.045c0 1.2136-0.97785 2.1894-2.1914 2.1894h-43.076c-1.2136 0-2.1894-0.97589-2.1894-2.1894v-42.045c0-1.2136 0.97589-2.1914 2.1894-2.1914zm321.88 1.0312h43.076c1.2136 0 2.1914 0.97785 2.1914 2.1914v42.045c0 1.2136-0.97784 2.1894-2.1914 2.1894h-43.076c-1.2136 0-2.1894-0.97588-2.1894-2.1894v-42.045c0-1.2136 0.97588-2.1914 2.1894-2.1914zm-321.88 81.504h43.076c1.2136 0 2.1914 0.97589 2.1914 2.1894v42.045c0 1.2136-0.97785 2.1914-2.1914 2.1914h-43.076c-1.2136 0-2.1894-0.97784-2.1894-2.1914v-42.045c0-1.2136 0.97589-2.1894 2.1894-2.1894zm321.88 1.0312h43.076c1.2136 0 2.1914 0.97783 2.1914 2.1914v42.043c0 1.2136-0.97784 2.1914-2.1914 2.1914h-43.076c-1.2136 0-2.1894-0.97784-2.1894-2.1914v-42.043c0-1.2136 0.97588-2.1914 2.1894-2.1914zm-321.88 81.504h43.076c1.2136 0 2.1914 0.97589 2.1914 2.1895v42.045c0 1.2136-0.97785 2.1894-2.1914 2.1894h-43.076c-1.2136 0-2.1894-0.97589-2.1894-2.1894v-42.045c0-1.2136 0.97589-2.1895 2.1894-2.1895zm321.88 1.0312h43.076c1.2136 0 2.1914 0.9759 2.1914 2.1895v42.045c0 1.2136-0.97784 2.1914-2.1914 2.1914h-43.076c-1.2136 0-2.1894-0.97784-2.1894-2.1914v-42.045c0-1.2136 0.97588-2.1895 2.1894-2.1895zm-321.88 81.502h43.076c1.2136 0 2.1914 0.97784 2.1914 2.1914v42.045c0 1.2136-0.97785 2.1895-2.1914 2.1895h-43.076c-1.2136 0-2.1894-0.97589-2.1894-2.1895v-42.045c0-1.2136 0.97589-2.1914 2.1894-2.1914zm321.88 1.0312h43.076c1.2136 0 2.1914 0.97784 2.1914 2.1914v42.045c0 1.2136-0.97784 2.1895-2.1914 2.1895h-43.076c-1.2136 0-2.1894-0.97589-2.1894-2.1895v-42.045c0-1.2136 0.97588-2.1914 2.1894-2.1914zm-321.88 81.504h43.076c1.2136 0 2.1914 0.97588 2.1914 2.1895v42.045c0 1.2136-0.97785 2.1914-2.1914 2.1914h-43.076c-1.2136 0-2.1894-0.97783-2.1894-2.1914v-42.045c0-1.2136 0.97589-2.1895 2.1894-2.1895zm321.88 1.0312h43.076c1.2136 0 2.1914 0.97784 2.1914 2.1914v42.045c0 1.2136-0.97784 2.1894-2.1914 2.1894h-43.076c-1.2136 0-2.1894-0.97589-2.1894-2.1894v-42.045c0-1.2136 0.97588-2.1914 2.1894-2.1914zm-321.88 81.504h43.076c1.2136 0 2.1914 0.97589 2.1914 2.1894v42.045c0 1.2136-0.97785 2.1914-2.1914 2.1914h-43.076c-1.2136 0-2.1894-0.97785-2.1894-2.1914v-42.045c0-1.2136 0.97589-2.1894 2.1894-2.1894zm321.88 1.0312h43.076c1.2136 0 2.1914 0.97589 2.1914 2.1894v42.045c0 1.2136-0.97784 2.1914-2.1914 2.1914h-43.076c-1.2136 0-2.1894-0.97784-2.1894-2.1914v-42.045c0-1.2136 0.97588-2.1894 2.1894-2.1894z" fill="#808080"/>
 </g>
</svg>
