<svg xmlns="http://www.w3.org/2000/svg" height="1e3" width="1e3" version="1.1" viewBox="0 0 264.58333 264.58334">
 <g transform="translate(0 -32.417)">
  <path d="m33.091 53.379c-14.504-0.5-25.668 13.801-23.732 27.719 0.081 38.712-0.1622 77.422 0.1221 116.13 0.9579 13.92 15.049 23.09 28.262 21.29h31.036c3.4252 15.953-1.5135 32.768-12.71 44.558-3.2034 4.9099-34.466 38.597-21.106 31.893 32.42-12.465 76.704-53.861 102.77-76.45 32.062-0.0808 64.133 0.16199 96.19-0.12207 13.922-0.95787 23.094-15.049 21.299-28.262-0.081-38.487 0.16224-76.982-0.12207-115.46-0.96-13.925-15.05-23.097-28.27-21.301zm-5.131 26.173h105.95v18.307h-105.95zm0 30.684h143.31v18.171h-143.31zm0 31.637h77.316v18.034h-77.32z" fill="#000000"/>
 </g>
</svg>
