<svg xmlns="http://www.w3.org/2000/svg" height="1e3" width="1e3" version="1.1" viewBox="0 0 264.58333 264.58334">
 <g transform="translate(0 -32.417)">
  <g id="Icon_Shape" fill="#808080" transform="matrix(2.9857 0 0 2.9857 -29.409 3.3811)">
   <g fill="#808080">
    <path d="m54.158 32.243c4.524 0 8.728 1.37 12.215 3.718l0.003-0.006c0.826 0.551 1.818 0.872 2.886 0.872 2.874 0 5.204-2.323 5.204-5.188 0-1.888-1.014-3.542-2.526-4.449-5.1-3.363-11.21-5.323-17.781-5.323-13.789 0-25.553 8.624-30.171 20.752h-13.545v10.378h17.468c2.369-0.038 4.296-1.669 4.876-3.553 0.044-0.2 0.091-0.402 0.138-0.603 0.003-0.002 0.003-0.005 0.003-0.008v0.001c2.34-9.525 10.957-16.591 21.23-16.591zm26.324 22.828 0.015 0.003c-2.442 0-4.431 1.694-4.986 3.635-0.03 0.14-0.063 0.279-0.097 0.417-0.007 0.038-0.014 0.075-0.02 0.114l-0.002-0.021c-2.333 9.53-10.954 16.605-21.234 16.605-4.434 0-8.559-1.318-12.006-3.581-0.833-0.567-1.841-0.9-2.928-0.9-2.874 0-5.203 2.324-5.203 5.188 0 1.8 0.918 3.386 2.314 4.315l-0.001 0.002c5.106 3.382 11.234 5.353 17.824 5.353 13.788 0 25.553-8.623 30.172-20.753h13.545v-10.377zm-26.324-13.488c-6.898 0-12.491 5.575-12.491 12.451s5.593 12.452 12.491 12.452 12.491-5.575 12.491-12.452c0-6.876-5.592-12.451-12.491-12.451z" fill-rule="evenodd" clip-rule="evenodd" fill="#808080"/>
   </g>
  </g>
 </g>
</svg>
