<svg xmlns="http://www.w3.org/2000/svg" height="1e3" width="1e3" version="1.1" viewBox="0 0 1000 1000">
 <g aria-label="🛡" transform="scale(.94809 1.0548)" fill="#000000">
  <path d="m915.64 307.9c2.12 176.73-33.16 361.24-167.48 481.28-62.24 55.72-139.66 93.03-220.78 111.81-133.7-28.92-227.77-115.56-296.16-234.04-72.88-120.97-100.58-266.46-89.24-406.34 10.58-78.83 18.26-157.11 75.37-213.51 81.46 52.107 193.46 109.8 280.65 56.91 21.565-23.241 37.187-23.241 58.752 0 87.192 52.884 199.19-4.8045 280.65-56.912 67.587 67.331 77.951 166.2 78.242 260.8z" stroke-width="6.668px" fill="#000000"/>
 </g>
 <rect height="671.53" width="50.694" y="196.53" x="431.94" fill="#fff"/>
</svg>
