<svg xmlns="http://www.w3.org/2000/svg" height="1e3" width="1e3" version="1.1" viewBox="0 0 1000 1000">
 <g aria-label="♿" fill="#808080">
  <path d="m344 37.311q94.802 0 94.802 87.727-0.70747 101.17-79.945 101.88l14.857 142.91h170.5q7.7822 0 17.687 90.557l-2.8299 2.1224h-170.51l7.7822 62.258h275.21q7.7822 4.2449 94.802 250.45l82.775-24.762 29.714 87.019q-2.8299 4.9523-172.62 60.135-9.9046-14.857-101.88-280.16h-295.01q-7.7822 0-60.135-498.06 0-82.067 94.802-82.067zm217.19 886.47q-70.04 38.911-146.45 38.911-76.407 0-146.45-38.204-70.04-38.911-108.95-108.24-38.204-70.04-38.204-147.86 0-76.407 39.619-147.15 19.809-36.789 49.523-65.795l24.762 134.42q-15.564 37.496-16.979 78.53 0 51.646 25.469 99.047 26.177 46.693 72.87 72.87 47.401 25.469 98.339 25.469 51.646 0 98.339-25.469 46.693-26.177 72.87-72.87l42.449 104q-28.299 31.129-67.21 52.353z" stroke-width="8.0495px" fill="#808080"/>
 </g>
</svg>
