<svg xmlns="http://www.w3.org/2000/svg" height="1e3" width="1e3" version="1.1" viewBox="0 0 1000 1000"><path d="m899.98 132.04c-20.34 19.254-52.677 34.286-62.762 59.509v696.62h-737.22v-737.22h713.33c22.944-10.645 52.034-44.707 73.086-38.338 4.5292 6.47 9.0581 12.94 13.587 19.41zm-137.48 681.44v-552.9c-117.89 129.39-223.46 271.83-298.87 430.36-34.26 22.349-66.742 47.273-99.126 72.229-22.641-67.147-49.717-133.56-85.676-194.76-12.124-28.937-52.945-50.924-66.384-65.26 27.545-27.002 64.006-59.834 105.56-51.119 43.944 27.247 62.093 80.062 84.678 124.08 10.329 28.621 26.314-32.392 40.17-42.375 76.03-115.17 169.84-218.08 274.31-308.04h-542.46v587.79h587.79z" fill-opacity=".94118" stroke-width=".95638px" fill="#808080"/></svg>
