<svg xmlns="http://www.w3.org/2000/svg" height="1e3" width="1e3" version="1.1" viewBox="0 0 1000 1000">
 <path stroke-width="9.9472px" fill="#808080" d="m94.447 647.72c0-20.292 14.921-38.793 44.763-55.506 31.036-16.712 55.506-25.067 73.409-25.067 13.13 0 28.052 23.277 44.763 69.829 16.712 45.359 29.842 68.038 39.392 68.038 5.9682 0 16.115-11.937 30.439-35.81 65.66-111.01 134.89-217.84 207.7-320.5 72.82-103.85 131.9-176.07 177.27-216.65 41.77-38.2 106.24-57.298 193.37-57.298v19.695c-101.46 107.43-193.37 218.44-275.74 333.03-81.17 113.41-140.26 203.53-177.26 270.37-35.81 65.652-71.619 119.96-107.43 162.94-34.617 42.973-68.038 64.457-100.27 64.457-26.261 0-50.134-13.727-71.619-41.183-20.29-27.46-35.81-59.09-46.55-94.9-10.75-35.81-19.1-66.85-25.07-93.11-4.775-26.26-7.163-42.37-7.163-48.34z"/>
</svg>
