<svg id="svg2" xmlns:rdf="http://www.w3.org/1999/02/22-rdf-syntax-ns#" xmlns="http://www.w3.org/2000/svg" height="1e3" viewBox="0 0 1000 1000" width="1e3" version="1.1" xmlns:cc="http://creativecommons.org/ns#" xmlns:dc="http://purl.org/dc/elements/1.1/">
 <text id="text6888" style="word-spacing:0px;letter-spacing:0px" xml:space="preserve" font-size="180px" line-height="125%" y="416.07718" x="338.26367" font-family="Georgia" fill="#000000"><tspan id="tspan6890" x="338.26367" y="416.07718"/></text>
 <path id="path8352" d="m500 9.3252c-198.72 0.0001-359.81 45.204-359.81 100.96v398.39 381.03c0.003 55.76 161.09 100.96 359.81 100.96 198.71-0.00007 359.8-45.202 359.81-100.96v-381.03-398.39c0-55.761-161.09-100.96-359.81-100.96zm0 24.438c150.62 0 272.72 34.262 272.72 76.527 0 42.27-122.1 58.52-272.72 58.52s-272.72-16.25-272.72-58.52c0-42.265 122.1-76.527 272.72-76.527zm298.44 142.2v266.93c-68.3-22.31-193.61-35.15-298.44-35.17-104.89 0.0459-223.14 12.934-291.37 35.289v-266.93c68.31 22.31 186.54 35.16 291.37 35.17 104.89-0.04 230.21-12.93 298.44-35.28zm-298.44 256.2c150.62-0.00011 272.72 34.262 272.72 76.527 0.00004 42.265-122.1 76.527-272.72 76.527-150.62 0.00011-272.72-34.262-272.72-76.527s122.1-76.527 272.72-76.527z" fill="#808080"/>
</svg>
