<svg id="svg2" xmlns:rdf="http://www.w3.org/1999/02/22-rdf-syntax-ns#" xmlns="http://www.w3.org/2000/svg" height="1e3" width="1e3" version="1.1" xmlns:cc="http://creativecommons.org/ns#" xmlns:dc="http://purl.org/dc/elements/1.1/" viewBox="0 0 1000 1000">
 <g id="text4696" fill="#808080">
  <path id="path4701" style="" d="m798.93 835.75q-51.853 45.112-123.41 72.595-71.039 28.001-158.67 28.001-78.299 0-154-25.408-75.706-24.89-136.37-76.224-60.15-51.335-96.966-127.56-36.816-76.743-36.816-180.45 0-88.669 33.186-172.15 33.186-83.484 94.892-148.82 59.631-63.78 147.26-102.67 88.151-39.409 191.86-39.409 89.706 0 155.56 29.038 65.854 28.519 107.86 75.706 42.001 46.668 62.743 107.34 21.26 60.668 21.26 126.52 0 126.52-69.484 214.15-69.484 87.114-175.78 87.114-44.075 0-74.669-21.778-30.594-22.297-34.223-62.224l-3.6297-1.0371q-24.89 37.853-57.039 60.668-31.631 22.297-64.298 22.297-21.26 0-43.557-6.7409-21.778-7.2595-38.89-23.334-17.112-17.112-27.482-44.594-9.8521-27.482-9.8521-67.928 0-37.853 17.112-84.521 17.63-47.187 47.187-89.706 29.556-43.038 76.224-74.669 47.187-31.631 101.63-31.631 29.038 0 51.335 16.593 22.815 16.075 28.001 47.705h3.1112l22.297-58.076h77.262l-98.003 278.97q-4.6668 12.963-7.778 30.075-2.5927 16.593-2.5927 26.445 0 26.445 13.482 38.89 13.482 11.926 34.742 11.926 80.373 0 134.3-75.187 53.928-75.706 53.928-199.12 0-61.187-19.186-113.04-19.186-52.372-58.594-92.299-37.853-39.409-95.41-62.224t-131.71-22.815q-70.521 0-137.41 27.482-66.891 27.482-121.86 80.891-53.409 51.853-86.595 129.11-33.186 77.262-33.186 174.75 0 93.855 25.927 165.41 25.927 71.039 73.113 119.26 46.15 46.668 108.89 70.002 62.743 23.334 135.86 23.334 82.447 0 146.75-22.297 64.298-22.297 115.63-64.817l16.075 26.445zm-180.45-446.46q-7.2595-42.001-23.334-61.187-16.075-19.186-47.187-19.186-33.186 0-61.187 26.964-27.482 26.445-46.668 63.261-20.223 38.372-31.631 84.002-10.889 45.112-10.889 83.484 0 44.075 10.371 67.928 10.889 23.334 35.26 23.334 35.26 0 63.261-24.371t52.372-68.965l59.631-175.26z"/>
 </g>
</svg>
