<svg xmlns="http://www.w3.org/2000/svg" height="1e3" width="1e3" version="1.1" viewBox="0 0 264.58333 264.58334"><path stroke-width=".29342" fill="#FFFFFF" d="m132.29 35.305c-41.949 0-75.956 61.073-75.956 114.64s34.006 79.337 75.956 79.337c41.949 0 75.956-25.77 75.956-79.337 0-53.564-34.006-114.64-75.956-114.64zm-1.2806 16.171c14.65-0.1561 27.215 10.303 35.808 21.389 19.171 27.183 30.099 62.507 23.415 95.587-3.0109 23.503-24.037 41.645-47.119 44.426-22.659 3.7226-49.064-4.519-61.581-24.733-15.155-29.53-9.9535-65.29 3.757-94.273 8.7206-18.859 22.905-39.235 45.021-42.38 0.23283-0.0079 0.46566-0.01323 0.69849-0.01587z"/></svg>
