<svg id="svg2" xmlns="http://www.w3.org/2000/svg" height="1e3" viewBox="0 0 1000 1000" width="1e3" version="1.1"><path id="rect74623" fill="#808080" d="m430.36 160.65v156.17h-390.46l0.002 520.37 0.17 0.84 0.461 0.69 0.686 0.46 0.842 0.17h915.88c1.19 0 2.16-0.96 2.16-2.16v-28.11h-470.08v-140.76h470.08v-504.82l-0.17-0.84-0.46-0.69-0.69-0.46-0.84-0.17-527.58-0.69zm529.74 507.67v140.76h41.3v-140.76h-41.3z"/><path id="rect74626" d="m41.657 103.06h341.15c0.97172 0 1.754 0.78229 1.754 1.754v155.58c0 0.97172-0.78229 1.754-1.754 1.754h-341.15c-0.97172 0-1.754-0.78229-1.754-1.754v-155.58c0-0.97172 0.78229-1.754 1.754-1.754z" fill="#fdd1a5"/><path id="rect74630" d="m296.18 162.24h38.693c0.97172 0 1.754 0.78228 1.754 1.754v37.224c0 0.97172-0.78229 1.754-1.754 1.754h-38.693c-0.97172 0-1.754-0.78229-1.754-1.754v-37.224c0-0.97173 0.78229-1.754 1.754-1.754z" fill="#e3b61b"/></svg>
