<svg xmlns="http://www.w3.org/2000/svg" height="1e3" width="1e3" version="1.1" viewBox="0 0 1000 1000">
 <defs>
  <linearGradient id="3" x1="85.479" gradientUnits="userSpaceOnUse" y1="495.11" gradientTransform="matrix(.87408 0 0 .87408 62.962 67.243)" x2="914.52" y2="495.11">
   <stop stop-color="#d4aa00" offset="0"/>
   <stop stop-color="#fff6d5" offset=".25"/>
   <stop stop-color="#d4aa00" stop-opacity=".49804" offset=".5"/>
   <stop stop-color="#fff6d5" offset=".75"/>
   <stop stop-color="#d4aa00" offset="1"/>
  </linearGradient>
 </defs>
 <path stroke-width="1.4387" fill="url(#3)" d="m500.01 75.344c-161.61 0.0005-292.91 154.26-295.46 345.66h-49.395c-9.6859 0-17.483 7.7969-17.483 17.481v468.69c0 9.685 7.7968 17.481 17.483 17.481h689.68c9.685 0 17.481-7.7969 17.481-17.481v-468.66c0-9.685-7.7969-17.481-17.481-17.481h-49.393c-2.55-191.43-133.85-345.69-295.46-345.69zm0 76.965c114.44 0 207.44 100.46 209.47 268.72h-418.96c2.04-168.25 95.04-268.72 209.48-268.72z"/>
</svg>
