<svg xmlns="http://www.w3.org/2000/svg" height="1e3" width="1e3" version="1.1" viewBox="0 0 1000 1000">
 <defs>
  <linearGradient id="3" y2="495.11" gradientUnits="userSpaceOnUse" x2="914.52" gradientTransform="matrix(.39817 0 0 .39817 593.6 486.4)" y1="495.11" x1="85.479">
   <stop stop-color="#d4aa00" offset="0"/>
   <stop stop-color="#fff6d5" offset=".25"/>
   <stop stop-color="#d4aa00" stop-opacity=".49804" offset=".5"/>
   <stop stop-color="#fff6d5" offset=".75"/>
   <stop stop-color="#d4aa00" offset="1"/>
  </linearGradient>
 </defs>
 <g stroke-width=".74898" transform="matrix(.93766 0 0 .93766 114 28.062)">
  <path fill="#808080" d="m548.13 270.72 395.15 0.51977 0.63019 0.1266 0.51354 0.34568 0.34567 0.51354 0.12661 0.63019v504.58c0 0.89526-0.72075 1.616-1.616 1.616h-685.98l-0.63019-0.12661-0.51354-0.34567-0.34568-0.51354-0.1266-0.63019v-389.75h292.45z"/>
  <path fill="#fdd1a5" d="m257 227.58h255.51c0.7278 0 1.3137 0.58592 1.3137 1.3137v116.53c0 0.72779-0.58592 1.3137-1.3137 1.3137h-255.51c-0.7278 0-1.3137-0.58591-1.3137-1.3137v-116.52c0-0.7278 0.58592-1.3137 1.3137-1.3137z"/>
  <path fill="#e3b61b" d="m447.63 271.91h28.98c0.7278 0 1.3137 0.58591 1.3137 1.3137v27.88c0 0.7278-0.58592 1.3137-1.3137 1.3137h-28.98c-0.7278 0-1.3137-0.58592-1.3137-1.3137v-27.88c0-0.72781 0.58592-1.3137 1.3137-1.3137z"/>
 </g>
 <path d="m792.69 490.09c-73.617 0.00023-133.43 70.268-134.59 157.46h-22.501c-4.4122 0-7.964 3.5517-7.964 7.9633v213.5c0 4.4118 3.5517 7.9633 7.964 7.9633h314.17c4.4118 0 7.9633-3.5517 7.9633-7.9633v-213.49c0-4.4118-3.5517-7.9633-7.9633-7.9633h-22.5c-1.16-87.2-60.97-157.47-134.59-157.47zm0 35.06c52.133 0 94.497 45.762 95.421 122.41h-190.85c0.92774-76.644 43.29-122.41 95.421-122.41z" stroke-width=".65537" fill="url(#3)"/>
</svg>
