<svg xmlns="http://www.w3.org/2000/svg" height="1e3" width="1e3" version="1.1" viewBox="0 0 1000 1000">
 <g stroke-width=".74898" transform="matrix(.93766 0 0 .93766 114 28.062)">
  <path fill="#808080" d="m548.13 270.72 395.15 0.51977 0.63019 0.1266 0.51354 0.34568 0.34567 0.51354 0.12661 0.63019v504.58c0 0.89526-0.72075 1.616-1.616 1.616h-685.98l-0.63019-0.12661-0.51354-0.34567-0.34568-0.51354-0.1266-0.63019v-389.75h292.45z"/>
  <path fill="#fdd1a5" d="m257 227.58h255.51c0.7278 0 1.3137 0.58592 1.3137 1.3137v116.53c0 0.72779-0.58592 1.3137-1.3137 1.3137h-255.51c-0.7278 0-1.3137-0.58591-1.3137-1.3137v-116.52c0-0.7278 0.58592-1.3137 1.3137-1.3137z"/>
  <path fill="#e3b61b" d="m447.63 271.91h28.98c0.7278 0 1.3137 0.58591 1.3137 1.3137v27.88c0 0.7278-0.58592 1.3137-1.3137 1.3137h-28.98c-0.7278 0-1.3137-0.58592-1.3137-1.3137v-27.88c0-0.72781 0.58592-1.3137 1.3137-1.3137z"/>
 </g>
 <path d="m382.14 499.36-381.4 221.06-0.74-440.84z" transform="matrix(.46632 0 0 .74348 -3.9594e-7 128.26)" fill="#808080"/>
</svg>
