<?xml version="1.0" encoding="UTF-8" standalone="no"?>
<svg xmlns="http://www.w3.org/2000/svg" height="1e3" width="1e3" version="1.1" viewBox="0 0 1000 1000">
 <defs>
  <linearGradient id="3" x1="85.479" gradientUnits="userSpaceOnUse" y1="495.11" gradientTransform="matrix(.41288 0 0 .41288 586.3 515.72)" x2="914.52" y2="495.11">
   <stop stop-color="#d4aa00" offset="0"/>
   <stop stop-color="#fff6d5" offset=".25"/>
   <stop stop-color="#d4aa00" stop-opacity=".49804" offset=".5"/>
   <stop stop-color="#fff6d5" offset=".75"/>
   <stop stop-color="#d4aa00" offset="1"/>
  </linearGradient>
 </defs>
 <g stroke-width=".74898" transform="matrix(1.0583 0 0 1.0583 -5.4225e-7 -32.668)">
  <path fill="#808080" d="m548.13 270.72 395.15 0.51977 0.63019 0.1266 0.51354 0.34568 0.34567 0.51354 0.12661 0.63019v504.58c0 0.89526-0.72075 1.616-1.616 1.616h-685.98l-0.63019-0.12661-0.51354-0.34567-0.34568-0.51354-0.1266-0.63019v-389.75h292.45z"/>
  <path fill="#fdd1a5" d="m257 227.58h255.51c0.7278 0 1.3137 0.58592 1.3137 1.3137v116.53c0 0.72779-0.58592 1.3137-1.3137 1.3137h-255.51c-0.7278 0-1.3137-0.58591-1.3137-1.3137v-116.52c0-0.7278 0.58592-1.3137 1.3137-1.3137z"/>
  <path fill="#e3b61b" d="m447.63 271.91h28.98c0.7278 0 1.3137 0.58591 1.3137 1.3137v27.88c0 0.7278-0.58592 1.3137-1.3137 1.3137h-28.98c-0.7278 0-1.3137-0.58592-1.3137-1.3137v-27.88c0-0.72781 0.58592-1.3137 1.3137-1.3137z"/>
 </g>
 <path d="m792.74 519.55c-76.337 0.00024-138.36 72.864-139.56 163.28h-23.332c-4.5752 0-8.2582 3.6829-8.2582 8.2575v221.39c0 4.5748 3.6829 8.2575 8.2582 8.2575h325.78c4.5748 0 8.2575-3.6829 8.2575-8.2575v-221.39c0-4.5748-3.6829-8.2575-8.2575-8.2575h-23.332c-1.1974-90.424-63.22-163.28-139.56-163.28zm0 36.355c54.059 0 97.988 47.453 98.946 126.93h-197.9c0.96201-79.476 44.889-126.93 98.946-126.93z" stroke-width=".67958" fill="url(#3)"/>
</svg>
