<svg id="svg2" xmlns="http://www.w3.org/2000/svg" height="1e3" viewBox="0 0 1000 1000" width="1e3" version="1.1"><path id="rect74623" fill="#808080" d="m430.36 160.65v156.17h-390.46l0.002 520.37 0.17 0.84 0.461 0.69 0.686 0.46 0.842 0.17h630.74v-24.66h-185.31v-140.76h185.31v-185.31h140.76v185.31h146.54v-510.43l-0.17-0.84-0.46-0.69-0.69-0.46-0.84-0.17-527.58-0.69zm529.74 513.28v140.76h38.77v-140.76h-38.77zm0 140.76h-146.54v24.66h144.38c1.19 0 2.16-0.96 2.16-2.16v-22.5zm-146.54 24.66h-140.76v160.65h140.76v-160.65z"/><path id="rect74626" fill="#fdd1a5" d="m41.657 103.06h341.15c0.97172 0 1.754 0.78229 1.754 1.754v155.58c0 0.97172-0.78229 1.754-1.754 1.754h-341.15c-0.97172 0-1.754-0.78229-1.754-1.754v-155.58c0-0.97172 0.78229-1.754 1.754-1.754z"/><path id="rect74630" fill="#e3b61b" d="m296.18 162.24h38.693c0.97172 0 1.754 0.78228 1.754 1.754v37.224c0 0.97172-0.78229 1.754-1.754 1.754h-38.693c-0.97172 0-1.754-0.78229-1.754-1.754v-37.224c0-0.97173 0.78229-1.754 1.754-1.754z"/></svg>
