<svg id="svg2" xmlns:rdf="http://www.w3.org/1999/02/22-rdf-syntax-ns#" xmlns="http://www.w3.org/2000/svg" height="1e3" viewBox="0 0 1000 1000" width="1e3" version="1.1" xmlns:cc="http://creativecommons.org/ns#" xmlns:dc="http://purl.org/dc/elements/1.1/">
 <defs id="defs8">
  <linearGradient id="3" x1="85.479" gradientUnits="userSpaceOnUse" y1="495.11" gradientTransform="matrix(.60756 0 0 .60756 430.48 379.13)" x2="914.52" y2="495.11">
   <stop id="31" stop-color="#d4aa00" offset="0"/>
   <stop id="32" stop-color="#fff6d5" offset=".25"/>
   <stop id="33" stop-color="#d4aa00" stop-opacity=".49804" offset=".5"/>
   <stop id="34" stop-color="#fff6d5" offset=".75"/>
   <stop id="35" stop-color="#d4aa00" offset="1"/>
  </linearGradient>
 </defs>
 <path id="rect74623" fill="#808080" d="m430.36 160.65 527.58 0.69396 0.8414 0.16904 0.68566 0.46153 0.46152 0.68565 0.16904 0.8414v673.69c0 1.1953-0.9623 2.1576-2.1576 2.1576h-915.88l-0.8414-0.16904-0.68565-0.46153-0.46153-0.68565-0.16904-0.8414v-520.37h390.46z"/>
 <path id="rect74626" fill="#fdd1a5" d="m41.657 103.06h341.15c0.97172 0 1.754 0.78229 1.754 1.754v155.58c0 0.97172-0.78229 1.754-1.754 1.754h-341.15c-0.97172 0-1.754-0.78229-1.754-1.754v-155.58c0-0.97172 0.78229-1.754 1.754-1.754z"/>
 <path id="rect74630" fill="#e3b61b" d="m296.18 162.24h38.693c0.97172 0 1.754 0.78228 1.754 1.754v37.224c0 0.97172-0.78229 1.754-1.754 1.754h-38.693c-0.97172 0-1.754-0.78229-1.754-1.754v-37.224c0-0.97173 0.78229-1.754 1.754-1.754z"/>
 <path id="4" d="m734.26 384.76c-112.33 0.00036-203.6 107.22-205.36 240.27h-34.333c-6.7324 0-12.152 5.4194-12.152 12.151v325.78c0 6.7318 5.4194 12.151 12.152 12.151h479.39c6.7318 0 12.151-5.4194 12.151-12.151v-325.78c0-6.7318-5.4194-12.151-12.151-12.151h-34.333c-1.7619-133.06-93.029-240.27-205.36-240.27zm0 53.497c79.548 0 144.19 69.827 145.6 186.78h-291.2c1.4156-116.95 66.054-186.78 145.6-186.78z" fill="url(#3)"/>
</svg>
