<svg xmlns="http://www.w3.org/2000/svg" height="1e3" width="1e3" version="1.1" viewBox="0 0 1000 1000">
 <path fill="#808080" d="m626.73 877.95h-238v-32.931q11.476-0.9977 23.451-1.9954 12.474-0.9977 21.455-3.9915 13.971-4.4905 20.457-15.467 6.9852-11.476 6.9852-29.438v-303.86q0-15.967-7.4842-28.939-6.9853-13.472-19.958-22.453-9.48-5.9873-27.442-9.979-17.962-4.4903-32.931-5.4882v-32.432l173.63-10.977 6.9853 6.9854v401.15q0 17.463 6.4863 28.939 6.9853 11.476 21.455 16.964 10.977 4.4905 21.455 7.4843 10.478 2.4947 23.451 3.4926zm-62.86-692.04q0 28.44-18.96 49.895-18.461 20.956-45.903 20.956-25.446 0-44.406-19.958-18.461-20.457-18.461-46.402 0-27.442 18.461-47.899 18.96-20.457 44.406-20.457 28.44 0 46.402 19.459 18.461 18.96 18.461 44.406z"/>
</svg>
