<svg id="1" xmlns="http://www.w3.org/2000/svg" height="1e3" width="1e3" version="1.1" xmlns:xlink="http://www.w3.org/1999/xlink" viewBox="0 0 1000 1000"><defs id="2"><linearGradient id="3" y2="495.11" gradientUnits="userSpaceOnUse" x2="914.52" y1="495.11" x1="85.479"><stop id="31" stop-color="#d4aa00" offset="0"/><stop id="32" stop-color="#fff6d5" offset=".25"/><stop id="33" stop-color="#d4aa00" stop-opacity=".49804" offset=".5"/><stop id="34" stop-color="#fff6d5" offset=".75"/><stop id="35" stop-color="#d4aa00" offset="1"/></linearGradient></defs><path id="4" d="m500 9.2695c-184.89 0.0006-335.11 176.47-338.01 395.47h-56.51c-11.081 0-20.001 8.92-20.001 20v536.21c0 11.08 8.92 20 20.001 20h789.04c11.08 0 20-8.92 20-20v-536.21c0-11.08-8.92-20-20-20h-56.51c-2.9-219-153.12-395.47-338.01-395.47zm0 88.052c130.93 0 237.32 114.93 239.65 307.42h-479.3c2.33-192.49 108.72-307.42 239.65-307.42z" fill="url(#3)"/></svg>
