<?xml version="1.0" encoding="UTF-8" standalone="no"?>
<svg xmlns="http://www.w3.org/2000/svg" height="1e3" viewBox="0 0 1000 1000" width="1e3" version="1.1">
 <path fill="#808080" d="m165.25 101.7a80.508 80.508 0 0 0 -80.504 80.5 80.508 80.508 0 0 0 80.504 80.51 80.508 80.508 0 0 0 80.51 -80.51 80.508 80.508 0 0 0 -80.51 -80.5zm326.28 0a80.508 80.508 0 0 0 -80.51 80.5 80.508 80.508 0 0 0 80.51 80.51 80.508 80.508 0 0 0 80.5 -80.51 80.508 80.508 0 0 0 -80.5 -80.5zm326.27 0a80.508 80.508 0 0 0 -80.51 80.5 80.508 80.508 0 0 0 80.51 80.51 80.508 80.508 0 0 0 80.5 -80.51 80.508 80.508 0 0 0 -80.5 -80.5zm-652.55 317.79a80.508 80.508 0 0 0 -80.504 80.51 80.508 80.508 0 0 0 80.504 80.51 80.508 80.508 0 0 0 80.51 -80.51 80.508 80.508 0 0 0 -80.51 -80.51zm326.28 0a80.508 80.508 0 0 0 -80.51 80.51 80.508 80.508 0 0 0 80.51 80.51 80.508 80.508 0 0 0 80.5 -80.51 80.508 80.508 0 0 0 -80.5 -80.51zm326.27 0a80.508 80.508 0 0 0 -80.51 80.51 80.508 80.508 0 0 0 80.51 80.51 80.508 80.508 0 0 0 80.5 -80.51 80.508 80.508 0 0 0 -80.5 -80.51zm-652.55 317.8a80.508 80.508 0 0 0 -80.504 80.51 80.508 80.508 0 0 0 80.504 80.5 80.508 80.508 0 0 0 80.51 -80.5 80.508 80.508 0 0 0 -80.51 -80.51zm326.28 0a80.508 80.508 0 0 0 -80.51 80.51 80.508 80.508 0 0 0 80.51 80.5 80.508 80.508 0 0 0 80.5 -80.5 80.508 80.508 0 0 0 -80.5 -80.51zm326.27 0a80.508 80.508 0 0 0 -80.51 80.51 80.508 80.508 0 0 0 80.51 80.5 80.508 80.508 0 0 0 80.5 -80.5 80.508 80.508 0 0 0 -80.5 -80.51z"/>
</svg>
