<svg xmlns="http://www.w3.org/2000/svg" height="1e3" viewBox="0 0 1000 1000" width="1e3" version="1.1">
 <g aria-label="1A FF 00 11" style="word-spacing:0px;letter-spacing:0px" font-size="180px" line-height="25px" font-family="Georgia">
  <flowRoot style="word-spacing:0px;letter-spacing:0px;writing-mode:lr" xml:space="preserve" font-size="180px" line-height="25px" font-family="monospace" fill="black"><flowRegion><rect y="113.81" width="1129.5" x="34.294" height="788.76"/></flowRegion><flowPara/></flowRoot>
  <path d="m500.2 71.429c-115.5-1.943-220.48 87.501-245.71 198.68-16.01 72.76-6.04 149 11.95 220.46 77.92 146.01 155.84 292.02 233.75 438.03 77.92-146.01 155.84-292.02 233.76-438.03 17.01-88.15 36.12-184.46-5.08-269.1-39.65-88.3-130.93-151.17-228.68-150.04zm0 150.57c64.548-1.5887 114.16 67.011 99.753 128.31-7.2659 30.896-28.74 55.822-43.003 83.755-18.918 32.512-37.834 65.024-56.751 97.536-31.63-55.49-65.32-110-95.64-166.1-24.53-65.23 23.61-144.42 95.64-143.51z" stroke-width="1.4652px" fill="#808080"/>
 </g>
</svg>
