<svg xmlns="http://www.w3.org/2000/svg" height="1e3" width="1e3" version="1.1" viewBox="0 0 264.58333 264.58334">
 <g transform="translate(0 -32.417)">
  <g aria-label="{ }" transform="scale(.89785 1.1138)" stroke-width="1.0926px" fill="#000000">
   <path d="m117.14 237.67q-10.083 0-18.149-1.4404-8.0662-1.3444-13.54-5.1854-5.5695-3.9371-8.4503-10.563-2.7848-6.5298-2.7848-17.381 0-5.7616 0.67218-12.387 0.76821-6.7218 0.76821-12.003 0-6.9139-2.0166-11.427-2.0166-4.6093-5.9536-7.394-3.841-2.7848-9.5066-4.0331-5.6655-1.2483-12.291-1.7285v-12.387q6.7218-0.57615 12.483-1.9205 5.8576-1.4404 9.4106-4.0331 4.1291-2.9768 5.9536-7.49 1.9205-4.6093 1.9205-11.139 0-5.4735-0.76821-12.099-0.67218-6.6258-0.67218-12.387 0-9.9867 2.7848-16.805 2.8808-6.8179 8.4503-10.851 5.4735-3.9371 13.636-5.3775 8.1622-1.5364 18.053-1.5364v7.8742q-3.841 0.19205-8.9304 1.0563-5.0894 0.76821-8.0662 2.4007-3.4569 1.9205-5.6656 6.1457-2.1126 4.1291-2.1126 11.235v22.47q0 10.083-2.4007 16.709-2.4007 6.6258-7.1059 10.755-4.3212 3.841-10.275 6.1457-5.9536 2.2086-13.252 3.553v2.9768q6.9139 1.3444 12.964 3.553 6.1457 2.2086 10.563 6.1457 4.5132 4.0331 7.0099 10.659 2.4967 6.6258 2.4967 16.805v22.374q0 6.8179 2.0166 11.043 2.0166 4.2252 5.7616 6.4338 3.553 2.0166 8.2582 2.6887 4.8013 0.67218 8.7384 0.86423z"/>
   <path d="m248.8 154.12q-6.6258 0.48013-12.387 1.8245-5.6656 1.2483-9.4106 3.9371-3.9371 2.7848-5.9536 7.394-2.0166 4.5132-2.0166 11.427 0 5.2814 0.67218 12.003 0.76821 6.6258 0.76821 12.387 0 10.851-2.8808 17.381-2.7848 6.6258-8.3543 10.563-5.3775 3.745-13.54 5.1854-8.0662 1.4404-18.149 1.4404v-7.6821q3.9371-0.19205 8.7384-0.86423 4.8013-0.67219 8.2583-2.6887 3.745-2.2086 5.7616-6.4338t2.0166-11.043v-22.37q0-10.179 2.4967-16.805 2.4967-6.6258 7.0099-10.659 4.4172-3.9371 10.467-6.1457 6.1457-2.2086 13.06-3.553v-2.9768q-7.298-1.3444-13.252-3.553-5.9536-2.3046-10.275-6.1457-4.7053-4.1291-7.1059-10.755-2.4007-6.6258-2.4007-16.709v-22.47q0-7.1059-2.2086-11.235-2.1126-4.2252-5.5695-6.1457-2.9768-1.6324-8.0662-2.4007-5.0894-0.86424-8.9304-1.0563v-7.8742q9.8907 0 18.053 1.5364 8.1622 1.4404 13.636 5.3775 5.5695 4.0331 8.3543 10.851 2.8808 6.8179 2.8808 16.805 0 5.7616-0.76821 12.387-0.67218 6.6258-0.67218 12.099 0 6.5298 1.8245 11.139 1.9205 4.5132 6.0496 7.49 3.553 2.4967 9.3146 3.9371 5.8576 1.4404 12.579 2.0166z"/>
  </g>
  <flowRoot style="word-spacing:0px;letter-spacing:0px;writing-mode:lr" xml:space="preserve" font-size="180px" line-height="24.99999809px" font-family="Georgia" fill="black"><flowRegion><rect y="326" width="869" x="93" height="592"/></flowRegion><flowPara/></flowRoot>
 </g>
</svg>
