<svg xmlns="http://www.w3.org/2000/svg" height="1e3" width="1e3" version="1.1" viewBox="0 0 1000 1000">
 <path d="m400.62 0a400.62 403.12 0 0 0 -400.62 403.12 400.62 403.12 0 0 0 400.62 403.13 400.62 403.12 0 0 0 200.89 -54.79l255.38 250.34 143.11-140.28-256.24-251.16a400.62 403.12 0 0 0 57.48 -207.24 400.62 403.12 0 0 0 -400.62 -403.12zm0 97.48a303.75 305.64 0 0 1 303.75 305.64 303.75 305.64 0 0 1 -303.75 305.65 303.75 305.64 0 0 1 -303.74 -305.65 303.75 305.64 0 0 1 303.74 -305.64z" fill="#000000"/>
</svg>
