<svg xmlns="http://www.w3.org/2000/svg" height="1e3" width="1e3" version="1.1" viewBox="0 0 1000 1000">
 <path d="m400.62 0a400.62 403.12 0 0 0 -400.62 403.12 400.62 403.12 0 0 0 400.62 403.13 400.62 403.12 0 0 0 231.16 -74.2l225.11 269.75 143.11-140.28-280.93-214.32a400.62 403.12 0 0 0 82.17 -244.08 400.62 403.12 0 0 0 -400.62 -403.12zm0 97.48a303.75 305.64 0 0 1 303.75 305.64 303.75 305.64 0 0 1 -303.75 305.65 303.75 305.64 0 0 1 -303.74 -305.65 303.75 305.64 0 0 1 303.74 -305.64z" fill="#808080"/>
</svg>
