<svg xmlns="http://www.w3.org/2000/svg" height="1e3" width="1e3" version="1.1" viewBox="0 0 264.58333 264.58334">
 <g transform="translate(0 -32.417)" fill="#808080">
  <path d="m462.91 105.74v72.65h74.18v-72.65h-74.18zm-146.04 45.64l-27.22 15.71 35.81 62.02 27.21-15.72-35.8-62.01zm366.26 0l-35.8 62.01 27.21 15.72 35.81-62.02-27.22-15.71zm-515.91 138.27l-15.71 27.22 62.01 35.8 15.72-27.21-62.02-35.81zm665.69 0l-62.02 35.81 15.72 27.21 62.01-35.8-15.71-27.22zm-727.17 173.26v74.18h72.65v-74.18h-72.65zm715.87 0v74.18h72.65v-74.18h-72.65zm-608.22 184.42l-62.01 35.8 15.71 27.22 62.02-35.81-15.72-27.21zm573.34 0l-15.71 27.21 62.02 35.81 15.71-27.22-62.02-35.8zm-461.27 123.56l-35.81 62.02 27.22 15.71 35.8-62.01-27.21-15.72zm349.08 0l-27.21 15.72 35.8 62.01 27.22-15.71-35.81-62.02zm-211.63 50.72v72.65h74.18v-72.65h-74.18z" transform="matrix(.26458 0 0 .26458 0 32.417)"/>
  <path d="m462.78 178.39v272.67h-58.86v97.88h58.86v41.48h74.44v-41.48h220.12v-97.88h-220.12v-272.67h-74.44z" transform="matrix(.26458 0 0 .26458 0 32.417)"/>
 </g>
</svg>
